<svg width="773" height="565" viewBox="0 0 773 565" fill="none" xmlns="http://www.w3.org/2000/svg">
<path fill-rule="evenodd" clip-rule="evenodd" d="M0 20.019C0 8.97314 8.9541 0.019043 20 0.019043H0V20.019ZM0 544.317V564.323H772.653V544.317C772.653 555.363 763.699 564.317 752.653 564.317H502.691C491.646 564.317 482.691 555.363 482.691 544.317V20.019C482.691 8.97314 491.646 0.019043 502.691 0.019043H439.302C450.348 0.019043 459.302 8.97314 459.302 20.019V544.317C459.302 555.363 450.348 564.317 439.302 564.317H20C8.9541 564.317 0 555.363 0 544.317ZM752.653 0.019043C763.699 0.019043 772.653 8.97314 772.653 20.019V0.019043H752.653Z" fill="#F2F2F2"/>
</svg>
