<svg width="53" height="53" viewBox="0 0 53 53" fill="none" xmlns="http://www.w3.org/2000/svg">
<g id="Group 13589">
<circle id="Ellipse 14" cx="26.6201" cy="26.4537" r="26" fill="#836FFE"/>
<path id="Vector" fill-rule="evenodd" clip-rule="evenodd" d="M27.3242 17.627C26.9981 18.2509 27.2254 19.0273 27.8245 19.3616C30.0258 20.5928 33.0646 22.8553 34.1962 24.6796L17.3554 24.6796C16.6723 24.6796 16.1201 25.2523 16.1201 25.9608C16.1201 26.6693 16.6723 27.2419 17.3554 27.2419L34.19 27.2419C33.0659 29.0611 30.0814 31.2814 27.8245 32.5458C27.2254 32.8815 27.0006 33.6566 27.3242 34.2805C27.6479 34.9031 28.3965 35.1363 28.9968 34.7994C30.3507 34.0448 37.0855 30.072 37.1164 25.9749C37.1164 25.9697 37.1201 25.9659 37.1201 25.9608L37.1189 25.9557C37.1189 25.9531 37.1201 25.9505 37.1201 25.9467C37.1201 21.8534 30.3532 17.8653 28.9968 17.1081C28.3965 16.7712 27.6479 17.0043 27.3242 17.627Z" fill="white"/>
</g>
</svg>
