<svg width="233" height="68" viewBox="0 0 233 68" fill="none" xmlns="http://www.w3.org/2000/svg">
<g id="Group">
<path id="Vector" d="M60.5151 0.455078H71.2216V67.0758H60.5151V0.455078Z" fill="white"/>
<path id="Vector_2" d="M108.461 45.9633C108.461 56.2848 100.082 57.2231 97.2895 57.2231C90.7725 57.2231 89.8415 51.1241 89.8415 47.8399V22.0361H79.135V47.3708C79.135 53.4698 80.997 59.0998 84.721 62.3839C87.9795 65.668 92.169 67.0755 97.2895 67.0755C101.013 67.0755 105.668 66.1372 108.461 63.3222V67.0755H119.168V22.0361H108.461V45.9633Z" fill="white"/>
<path id="Vector_3" d="M140.116 5.61572H129.409V22.0363H121.496V32.3578H129.409V67.0757H140.116V32.3578H148.029V22.0363H140.116V5.61572Z" fill="white"/>
<path id="Vector_4" d="M181.545 53.4697C179.217 55.3463 175.959 56.7538 172.7 56.7538C165.252 56.7538 160.132 51.1239 160.132 43.6173C160.132 36.1108 165.252 30.95 172.7 30.95C175.959 30.95 179.217 31.8883 181.545 34.2341L182.941 35.6416L190.389 28.6042L188.527 27.1967C184.338 23.4434 178.752 21.0977 172.7 21.0977C159.666 21.0977 149.891 30.95 149.891 44.0865C149.891 57.223 159.666 67.0753 172.7 67.0753C178.752 67.0753 184.338 64.7295 188.527 60.9763L190.389 59.5688L182.941 52.0622L181.545 53.4697Z" fill="white"/>
<path id="Vector_5" d="M228.095 25.7897C224.837 22.5056 221.578 21.0981 216.458 21.0981C212.734 21.0981 209.01 22.0364 206.217 24.8514V0.455078H195.51V67.0758H206.217V42.2103C206.217 31.8888 213.199 30.9505 215.992 30.9505C222.509 30.9505 222.044 37.0496 222.044 40.3337V66.6066H232.75V40.8028C232.75 34.7038 231.354 29.0738 228.095 25.7897Z" fill="white"/>
<path id="Vector_6" d="M172.235 51.5932C176.348 51.5932 179.683 48.2324 179.683 44.0866C179.683 39.9409 176.348 36.5801 172.235 36.5801C168.121 36.5801 164.787 39.9409 164.787 44.0866C164.787 48.2324 168.121 51.5932 172.235 51.5932Z" fill="white"/>
<path id="Vector_7" d="M45.619 50.6553C41.895 54.4085 36.309 56.7543 30.2575 56.7543C18.62 56.7543 10.241 47.3712 10.241 34.7038C10.241 22.0365 18.62 12.6533 30.723 12.6533C36.309 12.6533 41.895 14.9991 46.0845 19.2215L47.481 20.629L54.4635 13.5916L53.067 12.1841C47.0155 6.08507 39.102 2.80095 30.723 2.80095C13.034 2.33179 0 16.4066 0 34.7038C0 53.0011 13.034 67.0759 30.2575 67.0759C38.6365 67.0759 47.0155 63.7917 52.6015 57.6927L53.998 56.2852L47.0155 49.2478L45.619 50.6553Z" fill="white"/>
</g>
</svg>
