<svg width="295" height="67" viewBox="0 0 295 67" fill="none" xmlns="http://www.w3.org/2000/svg">
<path d="M51.7405 27.6226H61.6534C69.6321 27.6226 75.193 33.1053 75.193 40.172V40.2939C75.193 47.3606 69.753 52.8434 61.6534 52.8434H51.7405V27.6226ZM61.6534 47.7261C66.2472 47.7261 69.2694 44.6801 69.2694 40.2939V40.172C69.2694 35.7858 66.2472 32.618 61.6534 32.618H57.4223V47.7261H61.6534Z" fill="white"/>
<path d="M80.0281 27.6226H99.2494V32.4961H85.7099V37.6134H97.6779V42.487H85.7099V47.7261H99.4912V52.5997H80.149L80.0281 27.6226Z" fill="white"/>
<path d="M102.635 49.0666L106.02 45.1678C108.317 46.9954 110.734 48.2138 113.636 48.2138C115.933 48.2138 117.262 47.239 117.262 45.8988V45.777C117.262 44.3149 116.295 43.5838 112.185 42.6091C107.108 41.2689 103.723 39.9287 103.723 34.9332V34.8114C103.723 30.3033 107.349 27.2573 112.669 27.2573C116.295 27.2573 119.559 28.3539 122.098 30.4252L119.197 34.6895C117.021 33.1056 114.724 32.2528 112.548 32.2528C110.372 32.2528 109.284 33.2275 109.284 34.4459V34.324C109.284 35.9079 110.372 36.5171 114.724 37.6137C119.922 38.9539 122.702 40.7815 122.702 45.0459V45.1678C122.702 50.1632 118.834 52.9655 113.394 52.9655C109.525 52.9655 105.657 51.6253 102.635 49.0666Z" fill="white"/>
<path d="M127.779 27.6226H133.34V52.7215H127.779V27.6226Z" fill="white"/>
<path d="M138.659 40.1726C138.659 32.984 144.22 27.1357 151.957 27.1357C156.551 27.1357 159.211 28.3541 161.87 30.6691L158.364 34.9335C156.43 33.3496 154.738 32.3749 151.715 32.3749C147.605 32.3749 144.462 35.9082 144.462 40.1726V40.2944C144.462 44.9243 147.605 48.3359 152.199 48.3359C154.254 48.3359 156.067 47.8485 157.518 46.7519V43.2186H151.836V38.4668H162.837V49.3106C160.178 51.5037 156.672 53.3313 151.957 53.3313C143.979 52.9658 138.659 47.6048 138.659 40.1726Z" fill="white"/>
<path d="M168.156 27.6226H173.354L185.202 42.9744V27.6226H190.642V52.7215H185.927L173.596 36.7605V52.7215H168.156V27.6226Z" fill="white"/>
<path d="M196.807 27.623H208.413C211.677 27.623 214.095 28.5978 215.787 30.1817C217.238 31.6438 217.963 33.5932 217.963 35.9081V36.03C217.963 40.0507 215.787 42.6093 212.523 43.8277L218.688 52.722H212.16L206.72 44.6806H206.599H202.247V52.722H196.566V27.623H196.807ZM208.05 39.6852C210.831 39.6852 212.281 38.2231 212.281 36.1518V36.03C212.281 33.715 210.71 32.4966 207.929 32.4966H202.368V39.6852H208.05Z" fill="white"/>
<path d="M222.678 41.8788V27.5017H228.239V41.6351C228.239 45.7777 230.294 47.7271 233.679 47.7271C237.064 47.7271 239.119 45.6558 239.119 41.6351V27.3799H244.68V41.5133C244.68 49.0674 240.328 52.8444 233.558 52.8444C226.788 52.8444 222.678 49.1892 222.678 41.8788Z" fill="white"/>
<path d="M248.669 49.0666L252.054 45.1678C254.351 46.9954 256.769 48.2138 259.67 48.2138C261.967 48.2138 263.297 47.239 263.297 45.8988V45.777C263.297 44.3149 262.33 43.5838 258.22 42.6091C253.142 41.2689 249.757 39.9287 249.757 34.9332V34.8114C249.757 30.3033 253.384 27.2573 258.703 27.2573C262.33 27.2573 265.594 28.3539 268.133 30.4252L265.231 34.6895C263.055 33.1056 260.758 32.2528 258.582 32.2528C256.406 32.2528 255.318 33.2275 255.318 34.4459V34.324C255.318 35.9079 256.406 36.5171 260.758 37.6137C265.957 38.9539 268.737 40.7815 268.737 45.0459V45.1678C268.737 50.1632 264.869 52.9655 259.429 52.9655C255.681 52.9655 251.692 51.6253 248.669 49.0666Z" fill="white"/>
<path d="M273.573 27.623H279.133V37.6139H289.409V27.623H294.97V52.722H289.409V42.7312H279.133V52.722H273.573V27.623Z" fill="white"/>
<path d="M19.7244 41.7548C19.6041 41.6327 19.6041 41.7548 19.7244 41.7548L19.1231 41.3886L19.0028 41.2666L4.81083 31.0153C4.81083 31.0153 4.69056 31.0153 4.69056 30.8932L4.45002 30.6491L4.32975 30.5271H4.08921L0 27.5981L8.05814 28.8185C8.41896 28.8185 8.53923 28.9406 8.90004 29.0626C9.02031 29.0626 9.26085 29.1847 9.26085 29.1847C9.62166 29.3067 9.74193 29.4287 9.98248 29.5508C10.223 29.6728 10.3433 29.7949 10.5838 29.9169C10.7041 30.0389 10.9446 30.161 10.9446 30.283C11.0649 30.4051 11.1852 30.4051 11.3055 30.5271C11.546 30.6491 11.6663 30.7712 11.6663 30.8932C12.0271 31.2593 12.2676 31.6255 12.6284 31.8695L19.0028 41.0225L19.1231 41.1446L19.7244 41.7548Z" fill="white"/>
<path d="M19.7527 55.9114L19.1467 54.9351L19.0256 54.813L0 27.5981L4.12019 30.5271L4.84728 31.0153L19.1467 41.2666H19.2679L19.7527 41.6327C19.7527 41.6327 19.8738 41.6327 19.8738 41.7548L20.4797 41.2666L39.7477 27.5981L20.3586 54.9351L20.2374 55.0571L19.7527 55.9114Z" fill="white"/>
<path d="M19.826 37.1273L19.2216 36.1526L19.1007 36.0308L14.386 29.4514L19.1007 30.4261H19.2216L19.826 30.548L20.4304 30.4261L25.0242 29.3296L20.4304 36.1526V36.2745L19.826 37.1273Z" fill="white"/>
<path d="M39.8935 27.5015L33.8491 28.3543L31.5522 28.7199C29.7388 28.9635 28.0464 29.9383 26.9584 31.5222L20.5513 40.782L20.4304 40.9038L19.8259 41.7567L20.5513 41.0257L20.6722 40.9038L19.8259 41.7567L36.146 30.0601L39.8935 27.5015Z" fill="white"/>
<path d="M22.8481 8.25115C22.8481 13.6121 13.6605 16.4144 13.6605 22.1409C13.5396 23.4811 13.9023 24.8214 14.5068 26.0397C14.5068 26.0397 11.001 22.6282 11.001 18.973C11.001 15.3179 14.3859 9.83507 14.3859 9.83507C14.3859 12.2719 15.353 13.0029 16.3201 13.1247H16.441C17.529 13.1247 18.1334 12.2719 18.1334 11.0535C18.1334 9.83507 16.8037 8.61667 16.8037 6.17988C16.8037 3.86492 19.705 0.0878906 19.705 0.0878906C21.7601 2.52468 22.8481 5.327 22.8481 8.25115Z" fill="white"/>
<path d="M20.309 27.7454C17.4077 27.7454 15.2317 25.4305 15.2317 22.6282V22.5063C15.2317 16.2925 23.8148 15.6833 23.8148 7.27637C24.0566 7.64189 26.3535 10.8097 26.3535 14.2212C26.3535 18.4856 22.3641 19.5822 22.3641 21.6535C22.3641 22.5063 22.7268 23.1155 23.9357 23.1155C24.0566 23.1155 24.1775 23.1155 24.2984 22.9937C26.5953 22.019 28.1668 19.8259 28.2877 17.2672C28.2877 17.3891 29.4966 27.7454 20.309 27.7454Z" fill="white"/>
<path d="M24.0574 23.1155C24.1783 23.1155 24.2992 23.1155 24.4201 22.9937C23.2112 23.3592 18.7383 24.4558 18.7383 21.2879C18.7383 17.3891 25.3872 16.5362 25.3872 13.2465C25.3872 11.1752 24.9036 9.10396 23.8156 7.27637C24.0574 7.64189 26.3543 10.8097 26.3543 14.2212C26.3543 18.4856 22.365 19.5822 22.365 21.6535C22.4858 22.5063 22.9694 23.1155 24.0574 23.1155Z" fill="white"/>
<path d="M20.4308 10.4443C20.4308 13.4903 16.5623 13.2466 16.3206 13.1247H16.6832C17.7712 13.1247 18.3757 12.2719 18.3757 11.0535C18.3757 9.83507 17.0459 8.61667 17.0459 6.17988C17.0459 3.86492 19.9472 0.0878906 19.9472 0.0878906C18.9801 1.67181 18.4966 3.37756 18.3757 5.08332C18.3757 7.88563 20.4308 8.12931 20.4308 10.4443Z" fill="white"/>
<path d="M18.0121 63.6886L15.3525 61.861H18.6165L19.7045 58.5713L20.6717 61.861H23.9357L21.2761 63.6886L22.2432 66.8564L19.5837 64.907L16.8032 66.8564L18.0121 63.6886Z" fill="white"/>
<path d="M31.9147 63.6886L29.2551 61.861H32.5191L33.6071 58.5713L34.5742 61.861H37.8383L35.1787 63.6886L36.1458 66.8564L33.4862 64.907L30.7058 66.8564L31.9147 63.6886Z" fill="white"/>
<path d="M4.23109 63.6886L1.57153 61.861H4.83554L5.92354 58.5713L6.89066 61.861H10.1547L7.4951 63.6886L8.46221 66.8564L5.80265 64.907L3.14309 66.8564L4.23109 63.6886Z" fill="white"/>
</svg>
