<svg width="255" height="115" viewBox="0 0 255 115" fill="none" xmlns="http://www.w3.org/2000/svg">
<path d="M5.3131 16.4402V18.5303C8.04565 18.5354 10.6645 19.6248 12.5945 21.5592C14.5244 23.4936 15.6077 26.115 15.6065 28.8475V62.7293H30.9869V47.3346H46.4913V78.2194H15.6065L0.125854 62.7293V0.945221H31.0107L46.4866 16.4402V31.8206H30.9821V16.4402H5.3131Z" fill="#EB0043"/>
<path d="M51.984 62.7293V22.9636H82.8689L98.2445 38.4728V78.2194H67.3644L51.984 62.7293ZM67.3596 62.7293H82.8641V38.4728H67.3596V62.7293Z" fill="#EB0043"/>
<path d="M150.146 62.7293L134.641 78.2385H103.756V38.4728L119.265 22.9636H134.641V0.940453H150.146V62.7293ZM119.265 62.7293H134.641V38.4728H119.265V62.7293Z" fill="#EB0043"/>
<path d="M187.296 22.9636L202.805 38.4728V52.1591L171.921 70.1403V78.2194H156.416V22.9636H187.296ZM171.921 52.1591L187.296 43.2926V38.4728H171.921V52.1591ZM202.805 67.53V78.2147H187.296V67.53H202.805Z" fill="#EB0043"/>
<path d="M254.024 62.7293L238.52 78.2385H207.635V38.4728L223.139 22.9636H238.52V0.940453H254.024V62.7293ZM223.139 62.7293H238.52V38.4728H223.139V62.7293Z" fill="#EB0043"/>
<path d="M71.3395 92.7027H80.2967C84.7538 92.7027 86.8917 94.497 86.8917 97.8613C86.8917 101.226 84.7538 103.025 80.2967 103.025H73.883V108.618H71.3395V92.7027ZM73.883 94.8406V100.906H80.206C83.117 100.906 84.2766 99.9515 84.2766 97.8804C84.2766 95.8093 83.117 94.8597 80.206 94.8597L73.883 94.8406Z" fill="#010101"/>
<path d="M109.612 102.003V92.6788H112.131V102.003C112.131 106.365 108.948 108.847 104.176 108.847C99.4041 108.847 96.1925 106.365 96.1925 102.003V92.6788H98.7408V102.003C98.7408 105.139 100.993 106.733 104.176 106.733C107.359 106.733 109.612 105.139 109.612 102.003Z" fill="#010101"/>
<path d="M122.367 92.7027H124.916V106.389H135.782V108.618H122.367V92.7027Z" fill="#010101"/>
<path d="M152.112 101.727C148.633 101.684 144.424 101.841 144.424 97.1789C144.424 93.4042 147.86 92.5213 151.973 92.4736C154.185 92.4553 156.392 92.6681 158.559 93.1083V95.3369C156.206 94.8314 153.807 94.5723 151.401 94.5638C149.062 94.6354 146.991 95.2271 146.991 97.2505C146.991 99.4552 149.287 99.522 152.336 99.522C155.385 99.522 159.384 99.4552 159.384 104.07C159.384 107.277 156.679 108.89 151.272 108.842C148.974 108.784 146.685 108.548 144.424 108.136V105.864C145.674 106.045 148.652 106.68 151.582 106.704C155.042 106.728 156.831 105.864 156.831 103.974C156.817 101.889 154.655 101.751 152.112 101.727Z" fill="#010101"/>
<path d="M168.919 92.7027H182.787V94.9313H171.443V99.1593H180.988V101.383H171.443V106.384H182.767V108.613H168.919V92.7027Z" fill="#010101"/>
<path d="M57.9968 114.02L53.8737 109.896V102.361H51.6547V98.9589H53.8737V91.4572L57.9968 87.3007H59.4952V90.7032H57.2381V98.2001L54.8043 100.682L57.2381 103.12V110.65H59.4952V114.02H57.9968Z" fill="#010101"/>
<path d="M196.129 114.02L200.257 109.896V102.361H202.471V98.9589H200.257V91.4572L196.129 87.3007H194.631V90.7032H196.888V98.2001L199.322 100.682L196.888 103.12V110.65H194.631V114.02H196.129Z" fill="#010101"/>
</svg>
