<svg width="682" height="648" viewBox="0 0 682 648" fill="none" xmlns="http://www.w3.org/2000/svg">
<path fill-rule="evenodd" clip-rule="evenodd" d="M681.831 0.253418H0.821289V647.538H681.831V0.253418ZM22.9561 195.095C22.9561 90.8468 107.466 6.33691 211.714 6.33691C261.902 6.33691 307.515 25.9238 341.326 57.8704C375.137 25.9238 420.75 6.33691 470.938 6.33691C575.186 6.33691 659.696 90.8469 659.696 195.095V452.696C659.696 556.944 575.186 641.454 470.938 641.454C420.75 641.454 375.137 621.867 341.326 589.92C307.515 621.867 261.902 641.454 211.714 641.454C107.466 641.454 22.9561 556.944 22.9561 452.696V195.095Z" fill="#F2F2F2"/>
</svg>
