<svg width="275" height="68" viewBox="0 0 275 68" fill="none" xmlns="http://www.w3.org/2000/svg">
<path d="M72.0213 24.0869H99.7427V29.2476H88.8277V58.3391H82.845V29.2476H71.9756L72.0213 24.0869ZM98.5553 33.5405H103.67V38.3358H103.762C103.944 37.6508 104.264 37.0114 104.721 36.372C105.177 35.7327 105.725 35.139 106.41 34.6366C107.05 34.0886 107.781 33.6775 108.603 33.3578C109.379 33.0382 110.201 32.8555 111.023 32.8555C111.663 32.8555 112.119 32.9012 112.348 32.9012C112.576 32.9468 112.85 32.9925 113.078 32.9925V38.2445C112.713 38.1532 112.302 38.1075 111.891 38.0618C111.48 38.0161 111.114 37.9705 110.703 37.9705C109.79 37.9705 108.922 38.1532 108.1 38.5185C107.278 38.8839 106.593 39.4319 105.954 40.1169C105.36 40.8477 104.858 41.7154 104.492 42.7658C104.127 43.8162 103.944 45.0493 103.944 46.4194V58.2021H98.464L98.5553 33.5405ZM138.197 58.3391H132.808V54.8683H132.716C132.031 56.147 131.026 57.1061 129.702 57.8825C128.378 58.6588 127.008 59.0242 125.637 59.0242C122.395 59.0242 120.02 58.2478 118.559 56.6037C117.097 55.0053 116.366 52.5391 116.366 49.2966V33.5405H121.847V48.7485C121.847 50.9407 122.258 52.4934 123.126 53.3611C123.948 54.2745 125.135 54.7312 126.642 54.7312C127.784 54.7312 128.743 54.5486 129.519 54.1832C130.296 53.8179 130.935 53.3612 131.392 52.7674C131.894 52.1737 132.214 51.443 132.442 50.621C132.671 49.7989 132.762 48.8855 132.762 47.9265V33.5405H138.242V58.3391H138.197ZM147.513 50.3926C147.696 51.9911 148.29 53.0871 149.34 53.7722C150.39 54.4116 151.669 54.7312 153.131 54.7312C153.633 54.7312 154.227 54.6856 154.866 54.5942C155.505 54.5029 156.145 54.3659 156.693 54.1375C157.286 53.9092 157.743 53.5895 158.109 53.1328C158.474 52.6761 158.657 52.1281 158.611 51.443C158.565 50.758 158.337 50.1643 157.835 49.7076C157.332 49.2509 156.738 48.9312 156.008 48.6115C155.277 48.3375 154.409 48.1091 153.45 47.9265C152.491 47.7438 151.532 47.5154 150.527 47.2871C149.523 47.0587 148.518 46.7847 147.559 46.465C146.6 46.1454 145.778 45.7343 145.001 45.1406C144.271 44.5926 143.631 43.9075 143.22 43.0398C142.764 42.1721 142.535 41.1674 142.535 39.8886C142.535 38.5185 142.855 37.4224 143.54 36.5091C144.179 35.5957 145.047 34.8649 146.052 34.3169C147.056 33.7689 148.198 33.3578 149.431 33.1295C150.664 32.9012 151.852 32.8098 152.948 32.8098C154.227 32.8098 155.46 32.9468 156.601 33.2208C157.743 33.4949 158.839 33.9059 159.753 34.5453C160.712 35.139 161.488 35.961 162.082 36.9201C162.721 37.8791 163.087 39.0666 163.269 40.4366H157.561C157.286 39.1122 156.693 38.2445 155.779 37.7878C154.82 37.3311 153.77 37.1028 152.537 37.1028C152.171 37.1028 151.669 37.1484 151.167 37.1941C150.619 37.2854 150.162 37.3768 149.66 37.5595C149.203 37.7421 148.792 38.0161 148.472 38.3358C148.153 38.6555 147.97 39.1122 147.97 39.6603C147.97 40.3453 148.198 40.8477 148.655 41.2587C149.112 41.6697 149.705 41.9894 150.482 42.3091C151.212 42.5831 152.08 42.8115 153.039 42.9941C153.998 43.1768 155.003 43.4052 156.008 43.6335C157.012 43.8619 157.972 44.1359 158.931 44.4556C159.89 44.7753 160.757 45.1863 161.488 45.78C162.219 46.328 162.858 47.0131 163.315 47.8351C163.772 48.6572 164 49.7076 164 50.895C164 52.3564 163.68 53.5895 162.995 54.6399C162.31 55.6446 161.442 56.5124 160.392 57.1517C159.342 57.7911 158.109 58.2478 156.83 58.5675C155.505 58.8415 154.227 59.0242 152.948 59.0242C151.395 59.0242 149.934 58.8415 148.609 58.4762C147.285 58.1108 146.097 57.5628 145.138 56.8777C144.179 56.147 143.403 55.2793 142.855 54.1832C142.307 53.1328 141.987 51.8541 141.941 50.347H147.468V50.3926H147.513ZM165.553 33.5405H169.709V26.0507H175.189V33.4949H180.121V37.5595H175.189V50.8037C175.189 51.3974 175.235 51.8541 175.28 52.3108C175.326 52.7218 175.463 53.0871 175.6 53.3611C175.783 53.6352 176.057 53.8635 176.376 54.0005C176.742 54.1375 177.198 54.2289 177.838 54.2289C178.203 54.2289 178.614 54.2289 178.98 54.1832C179.345 54.1375 179.756 54.0919 180.121 54.0005V58.2478C179.528 58.3391 178.934 58.3848 178.34 58.4305C177.746 58.5218 177.198 58.5218 176.559 58.5218C175.098 58.5218 173.956 58.3848 173.088 58.1108C172.22 57.8368 171.535 57.4258 171.033 56.9234C170.531 56.3754 170.211 55.736 170.028 54.9596C169.846 54.1832 169.754 53.2241 169.709 52.2194V37.6051H165.553V33.4492V33.5405ZM183.958 33.5405H189.118V36.9201H189.21C189.986 35.4586 191.036 34.4539 192.406 33.8145C193.777 33.1752 195.238 32.8555 196.882 32.8555C198.846 32.8555 200.536 33.1752 201.997 33.9059C203.458 34.5909 204.646 35.5043 205.605 36.7374C206.564 37.9248 207.295 39.3406 207.751 40.939C208.208 42.5374 208.482 44.2729 208.482 46.054C208.482 47.7438 208.254 49.3422 207.843 50.895C207.386 52.4478 206.747 53.8635 205.879 55.0509C205.011 56.2383 203.915 57.1974 202.545 57.9281C201.175 58.6588 199.622 59.0242 197.795 59.0242C197.019 59.0242 196.197 58.9329 195.421 58.7958C194.644 58.6588 193.868 58.4305 193.137 58.1108C192.406 57.7911 191.721 57.3801 191.128 56.8777C190.488 56.3754 189.986 55.7817 189.575 55.1423H189.484V67.5187H184.003V33.5405H183.958ZM203.093 45.9627C203.093 44.8666 202.956 43.7705 202.636 42.7201C202.362 41.6697 201.906 40.7563 201.312 39.9343C200.718 39.1122 199.988 38.4729 199.166 37.9705C198.298 37.4681 197.293 37.2398 196.197 37.2398C193.914 37.2398 192.178 38.0162 190.991 39.6146C189.849 41.213 189.255 43.3595 189.255 46.0083C189.255 47.2871 189.392 48.4288 189.712 49.4792C190.032 50.5296 190.443 51.443 191.082 52.2194C191.676 52.9958 192.406 53.5895 193.274 54.0462C194.142 54.5029 195.101 54.7312 196.243 54.7312C197.521 54.7312 198.526 54.4572 199.394 53.9549C200.262 53.4525 200.947 52.7674 201.54 51.9911C202.088 51.169 202.499 50.2556 202.728 49.2052C202.956 48.1091 203.093 47.0587 203.093 45.9627ZM212.729 24.0869H218.21V29.2476H212.729V24.0869ZM212.729 33.5405H218.21V58.3391H212.729V33.5405ZM223.096 24.0869H228.577V58.3391H223.096V24.0869ZM245.292 59.0242C243.328 59.0242 241.547 58.7045 239.994 58.0195C238.441 57.3344 237.163 56.4667 236.067 55.325C235.016 54.1832 234.194 52.7674 233.646 51.169C233.098 49.5706 232.778 47.7895 232.778 45.917C232.778 44.0445 233.052 42.3091 233.646 40.7107C234.194 39.1122 235.016 37.7421 236.067 36.5547C237.117 35.413 238.441 34.4996 239.994 33.8602C241.547 33.2208 243.328 32.8555 245.292 32.8555C247.256 32.8555 249.037 33.1752 250.59 33.8602C252.142 34.4996 253.421 35.413 254.517 36.5547C255.568 37.6965 256.39 39.1122 256.938 40.7107C257.486 42.3091 257.805 44.0445 257.805 45.917C257.805 47.8351 257.531 49.5706 256.938 51.169C256.344 52.7674 255.568 54.1375 254.517 55.325C253.467 56.4667 252.142 57.3801 250.59 58.0195C249.037 58.6588 247.301 59.0242 245.292 59.0242ZM245.292 54.6856C246.479 54.6856 247.575 54.4116 248.443 53.9092C249.356 53.4068 250.042 52.7218 250.635 51.8997C251.229 51.0777 251.64 50.1186 251.914 49.1139C252.188 48.0635 252.325 47.0131 252.325 45.917C252.325 44.8666 252.188 43.8162 251.914 42.7658C251.64 41.7154 251.229 40.802 250.635 39.9799C250.042 39.1579 249.311 38.5185 248.443 38.0162C247.53 37.5138 246.479 37.2398 245.292 37.2398C244.104 37.2398 243.008 37.5138 242.141 38.0162C241.227 38.5185 240.542 39.2036 239.949 39.9799C239.355 40.802 238.944 41.7154 238.67 42.7658C238.396 43.8162 238.259 44.8666 238.259 45.917C238.259 47.0131 238.396 48.0635 238.67 49.1139C238.944 50.1643 239.355 51.0777 239.949 51.8997C240.542 52.7218 241.273 53.4068 242.141 53.9092C243.054 54.4572 244.104 54.6856 245.292 54.6856ZM259.449 33.5405H263.605V26.0507H269.086V33.4949H274.018V37.5595H269.086V50.8037C269.086 51.3974 269.131 51.8541 269.177 52.3108C269.223 52.7218 269.36 53.0871 269.497 53.3611C269.679 53.6352 269.953 53.8635 270.273 54.0005C270.639 54.1375 271.095 54.2289 271.735 54.2289C272.1 54.2289 272.511 54.2289 272.876 54.1832C273.242 54.1375 273.653 54.0919 274.018 54.0005V58.2478C273.424 58.3391 272.831 58.3848 272.237 58.4305C271.643 58.5218 271.095 58.5218 270.456 58.5218C268.994 58.5218 267.853 58.3848 266.985 58.1108C266.117 57.8368 265.432 57.4258 264.93 56.9234C264.427 56.3754 264.108 55.736 263.925 54.9596C263.742 54.1832 263.651 53.2241 263.605 52.2194V37.6051H259.449V33.4492V33.5405Z" fill="white"/>
<path d="M65.6273 24.0866H40.5546L32.8365 0.24707L25.0726 24.0866L0 24.041L20.2773 38.7923L12.5135 62.6318L32.7908 47.8805L53.0681 62.6318L45.35 38.7923L65.6273 24.0866Z" fill="white"/>
<path d="M47.0854 44.1815L45.3499 38.7925L32.8364 47.8807L47.0854 44.1815Z" fill="#F1F1F1"/>
</svg>
