<svg xmlns="http://www.w3.org/2000/svg" width="233" height="114" viewBox="0 0 233 114" fill="none">
  <path d="M141.151 46.5024H133.657L137.331 39.8809L141.151 46.5024Z" fill="#FFCC00"/>
  <path d="M145.392 53.8431H129.441L131.068 51.1729L131.751 49.9443H143.14L145.392 53.8431Z" fill="#FFCC00"/>
  <path d="M149.628 61.1818H125.159L127.192 57.5459L127.35 57.2803H147.376L149.628 61.1818Z" fill="#FFCC00"/>
  <path d="M153.921 68.6156H121.008L123.241 64.6172H151.611L153.921 68.6156Z" fill="#FFCC00"/>
  <path d="M148.728 10.6615L148.615 4.20869L148.54 0L145.43 1.86776L139.4 5.48984L132.221 9.80368L130.257 10.9797L135.136 13.6831L119.642 41.3675L115.036 49.6327L115.044 49.6382L110.631 57.5437H102.65H97.6983L100.362 52.8342L100.409 52.8591L116.225 25.4569L119.971 31.9457L126.259 20.6976L121.899 13.1435C119.379 8.7771 113.074 8.77434 110.554 13.1435L97.3774 35.969L78.5352 68.6147H87.6229H91.4378H96.3898H102.65H116.065L144.036 18.6195L144.952 19.1287L148.905 21.3257L148.728 10.6615Z" fill="#D81E29"/>
  <path d="M9.26914 95.4799L13.5847 90.7212H18.2047C19.3378 90.7212 20.6113 90.7212 21.4983 90.7768C21.1117 90.1121 20.5293 88.9787 20.0871 88.0916L17.6249 83.1925L6.78043 95.4799H0L14.829 78.7383C15.798 77.6578 17.098 76.6621 18.8957 76.6621C20.6113 76.6621 21.5803 77.5757 22.1893 78.7383L30.7939 95.4799H9.26914Z" fill="#D81E29"/>
  <path d="M53.3409 90.7213L48.8321 95.4801H39.5364C33.7541 95.4801 29.9072 91.9924 29.9072 87.3158C29.9072 81.2277 35.716 76.9668 42.8009 76.9668H55.7766L51.2387 81.7812H41.9431C38.541 81.7812 35.663 83.9685 35.663 86.9001C35.663 89.196 37.5719 90.7187 40.3678 90.7187H53.3409V90.7213Z" fill="#D81E29"/>
  <path d="M80.2353 76.9668L75.6418 81.7812H69.0572L66.6215 95.4801H60.8948L63.3014 81.7812H54.6147L59.2083 76.9668H80.2353Z" fill="#D81E29"/>
  <path d="M84.4952 95.4801H78.7686L82.0621 76.9668H87.7623L84.4952 95.4801Z" fill="#D81E29"/>
  <path d="M96.9174 76.9668L103.086 89.2543L113.931 76.9668H120.708L105.879 93.7085C104.91 94.7889 103.61 95.7846 101.813 95.7846C100.097 95.7846 99.1281 94.871 98.5192 93.7085L89.9146 76.9668H96.9174Z" fill="#D81E29"/>
  <path d="M141.82 90.7213L137.282 95.4801H119.464L122.757 76.9668H144.171L139.607 81.7812H127.626L127.24 83.995H141.876L137.891 88.2003H126.493L126.051 90.7187H141.82V90.7213Z" fill="#D81E29"/>
  <path d="M169.792 84.3578C173.803 84.3578 175.934 85.7958 175.934 88.5631C175.934 92.575 173.416 95.4801 166.832 95.4801H149.596L154.105 90.7213H168.132C169.681 90.7213 170.345 90.2235 170.345 89.143C170.345 88.3963 169.765 88.0361 168.603 88.0361H158.505C154.301 88.0361 152.418 86.2645 152.418 83.5819C152.418 79.8189 154.992 76.9668 161.465 76.9668H177.539L173.001 81.7812H160.163C158.614 81.7812 157.949 82.1969 157.949 83.3038C157.949 84.0506 158.529 84.3552 159.72 84.3552H169.792V84.3578Z" fill="#D81E29"/>
  <path d="M205.621 84.4966C205.621 92.1074 200.586 95.7884 190.21 95.7884C182.214 95.7884 178.174 93.2991 178.174 87.9286C178.174 80.3178 183.21 76.666 193.585 76.666C201.581 76.666 205.621 79.1288 205.621 84.4966ZM199.865 85.0766C199.865 82.0868 197.763 81.4804 192.728 81.4804C185.285 81.4804 183.93 82.6138 183.93 87.3752C183.93 90.365 186.061 90.9714 191.041 90.9714C198.481 90.9714 199.865 89.8088 199.865 85.0766Z" fill="#D81E29"/>
  <path d="M224.71 84.3578C228.721 84.3578 230.852 85.7958 230.852 88.5631C230.852 92.575 228.334 95.4801 221.75 95.4801H204.514L209.023 90.7213H223.05C224.599 90.7213 225.263 90.2235 225.263 89.143C225.263 88.3963 224.683 88.0361 223.521 88.0361H213.421C209.216 88.0361 207.334 86.2645 207.334 83.5819C207.334 79.8189 209.907 76.9668 216.381 76.9668H232.457L227.919 81.7812H215.081C213.532 81.7812 212.867 82.1969 212.867 83.3038C212.867 84.0506 213.447 84.3552 214.638 84.3552H224.71V84.3578Z" fill="#D81E29"/>
  <path d="M0.790527 109.645C0.790527 106.271 2.85034 103.832 6.26306 103.832C8.30963 103.832 10.2 104.907 10.2 107.06C10.2 107.193 10.1868 107.322 10.1735 107.455H8.19314C8.19314 106.366 7.40681 105.551 6.12009 105.551C4.04704 105.551 2.90594 107.362 2.90594 109.488C2.90594 110.879 3.77169 111.718 5.07165 111.718C6.44839 111.718 7.42004 110.932 7.76158 109.737H9.78168C9.46662 112.113 7.57625 113.437 4.92603 113.437C2.35259 113.437 0.790527 111.93 0.790527 109.645Z" fill="#FFCC00"/>
  <path d="M18.4866 108.937C19.3259 109.12 19.7204 109.66 19.7204 110.434C19.7204 110.579 19.7072 110.735 19.6807 110.905L19.4318 112.361C19.3921 112.584 19.3789 112.806 19.3789 112.978C19.3789 113.111 19.3788 113.214 19.4053 113.307H17.372C17.319 113.151 17.2793 112.965 17.2793 112.743C17.2793 112.624 17.2926 112.507 17.319 112.361L17.5679 110.984C17.5944 110.828 17.6076 110.669 17.6076 110.54C17.6076 109.883 17.1999 109.66 16.4136 109.66H14.51L13.8798 113.31H11.7671L13.4059 103.967H17.6182C19.5324 103.967 20.5703 104.912 20.5703 106.183C20.5729 107.82 19.8792 108.53 18.4866 108.937ZM16.8875 105.537H15.2486L14.788 108.082H16.7683C17.9492 108.082 18.4469 107.558 18.4469 106.506C18.4496 105.786 17.9492 105.537 16.8875 105.537Z" fill="#FFCC00"/>
  <path d="M22.1191 113.308L23.758 103.965H25.8707L24.2319 113.308H22.1191Z" fill="#FFCC00"/>
  <path d="M27.3003 110.697C27.3003 110.551 27.3135 110.408 27.3268 110.265H29.3601C29.3601 111.38 30.0035 111.867 31.1578 111.867C32.3651 111.867 33.1514 111.33 33.1514 110.504C33.1514 109.926 32.7702 109.638 31.6026 109.468L30.5409 109.312C28.9656 109.089 28.1793 108.367 28.1793 107.029C28.1793 105.009 29.7414 103.841 32.2592 103.841C34.4514 103.841 35.656 104.903 35.656 106.545C35.656 106.651 35.656 106.767 35.6428 106.886H33.6756C33.6756 105.981 33.1249 105.416 32.0236 105.416C31.0122 105.416 30.292 105.888 30.292 106.717C30.292 107.281 30.5674 107.516 31.592 107.662L32.6669 107.808C34.2555 108.043 35.2642 108.819 35.2642 110.236C35.2642 112.23 33.7815 113.451 30.9222 113.451C28.5473 113.438 27.3003 112.482 27.3003 110.697Z" fill="#FFCC00"/>
  <path d="M37.3374 113.308L38.9762 103.965H41.089L39.4502 113.308H37.3374Z" fill="#FFCC00"/>
  <path d="M42.5186 110.697C42.5186 110.551 42.5318 110.408 42.545 110.265H44.5784C44.5784 111.38 45.2217 111.867 46.3761 111.867C47.5834 111.867 48.3697 111.33 48.3697 110.504C48.3697 109.926 47.9884 109.638 46.8209 109.468L45.7592 109.312C44.1839 109.089 43.3975 108.367 43.3975 107.029C43.3975 105.009 44.9596 103.841 47.4775 103.841C49.6696 103.841 50.8743 104.903 50.8743 106.545C50.8743 106.651 50.8743 106.767 50.8611 106.886H48.8939C48.8939 105.981 48.3432 105.416 47.2418 105.416C46.2305 105.416 45.5103 105.888 45.5103 106.717C45.5103 107.281 45.7857 107.516 46.8103 107.662L47.8852 107.808C49.4737 108.043 50.4825 108.819 50.4825 110.236C50.4825 112.23 48.9998 113.451 46.1404 113.451C43.7656 113.438 42.5186 112.482 42.5186 110.697Z" fill="#FFCC00"/>
  <path d="M64.1245 108.937C64.9638 109.12 65.3583 109.66 65.3583 110.434C65.3583 110.579 65.3451 110.735 65.3186 110.905L65.0697 112.361C65.03 112.584 65.0168 112.806 65.0168 112.978C65.0168 113.111 65.0168 113.214 65.0432 113.307H63.0073C62.9543 113.151 62.9146 112.965 62.9146 112.743C62.9146 112.624 62.9278 112.507 62.9543 112.361L63.2032 110.984C63.2296 110.828 63.2429 110.669 63.2429 110.54C63.2429 109.883 62.8352 109.66 62.0488 109.66H60.1452L59.5151 113.31H57.4023L59.0412 103.967H63.2535C65.1703 103.967 66.2055 104.912 66.2055 106.183C66.2108 107.82 65.5145 108.53 64.1245 108.937ZM62.5228 105.537H60.8839L60.4232 108.082H62.4036C63.5844 108.082 64.0822 107.558 64.0822 106.506C64.0848 105.786 63.5871 105.537 62.5228 105.537Z" fill="#FFCC00"/>
  <path d="M67.7578 113.308L69.3967 103.965H76.4021L76.1003 105.683H71.1944L70.8396 107.731H75.3272L75.0254 109.356H70.551L70.1565 111.589H75.0492L74.7606 113.308H67.7578Z" fill="#FFCC00"/>
  <path d="M77.5029 110.697C77.5029 110.551 77.5162 110.408 77.5294 110.265H79.5627C79.5627 111.38 80.2061 111.867 81.3604 111.867C82.5677 111.867 83.3541 111.33 83.3541 110.504C83.3541 109.926 82.9728 109.638 81.8052 109.468L80.7436 109.312C79.1682 109.089 78.3819 108.367 78.3819 107.029C78.3819 105.009 79.944 103.841 82.4618 103.841C84.654 103.841 85.8587 104.903 85.8587 106.545C85.8587 106.651 85.8587 106.767 85.8454 106.886H83.8783C83.8783 105.981 83.3276 105.416 82.2262 105.416C81.2148 105.416 80.4947 105.888 80.4947 106.717C80.4947 107.281 80.77 107.516 81.7946 107.662L82.8696 107.808C84.4581 108.043 85.4668 108.819 85.4668 110.236C85.4668 112.23 83.9842 113.451 81.1248 113.451C78.7499 113.438 77.5029 112.482 77.5029 110.697Z" fill="#FFCC00"/>
  <path d="M92.4597 110.053H90.2172L89.6533 113.308H87.5405L89.1794 103.965H93.1798C95.0967 103.965 96.3013 104.95 96.3013 106.536C96.304 108.779 94.9114 110.053 92.4597 110.053ZM92.5894 105.538H91.0141L90.4899 108.477H92.4068C93.5876 108.477 94.1912 107.86 94.1912 106.706C94.1912 105.879 93.6538 105.538 92.5894 105.538Z" fill="#FFCC00"/>
  <path d="M98.1255 109.645C98.1255 106.271 100.185 103.832 103.598 103.832C106.142 103.832 107.731 105.341 107.731 107.624C107.731 110.998 105.777 113.437 102.258 113.437C99.6876 113.437 98.1255 111.93 98.1255 109.645ZM105.618 107.783C105.618 106.393 104.752 105.553 103.452 105.553C101.379 105.553 100.238 107.365 100.238 109.491C100.238 110.881 101.104 111.721 102.404 111.721C104.474 111.718 105.618 109.907 105.618 107.783Z" fill="#FFCC00"/>
  <path d="M115.377 113.308L112.568 106.851L111.44 113.308H109.433L111.072 103.965H113.314L116.11 110.421L117.251 103.965H119.258L117.619 113.308H115.377Z" fill="#FFCC00"/>
  <path d="M120.701 110.697C120.701 110.551 120.714 110.408 120.728 110.265H122.761C122.761 111.38 123.404 111.867 124.559 111.867C125.766 111.867 126.552 111.33 126.552 110.504C126.552 109.926 126.171 109.638 125.003 109.468L123.942 109.312C122.367 109.089 121.58 108.367 121.58 107.029C121.58 105.009 123.142 103.841 125.66 103.841C127.852 103.841 129.057 104.903 129.057 106.545C129.057 106.651 129.057 106.767 129.044 106.886H127.077C127.077 105.981 126.526 105.416 125.424 105.416C124.413 105.416 123.693 105.888 123.693 106.717C123.693 107.281 123.968 107.516 124.993 107.662L126.068 107.808C127.656 108.043 128.665 108.819 128.665 110.236C128.665 112.23 127.182 113.451 124.323 113.451C121.948 113.438 120.701 112.482 120.701 110.697Z" fill="#FFCC00"/>
  <path d="M130.736 113.308L132.375 103.965H139.38L139.078 105.683H134.175L133.82 107.731H138.308L138.006 109.356H133.532L133.137 111.589H138.03L137.741 113.308H130.736Z" fill="#FFCC00"/>
  <path d="M145.337 110.697C145.337 110.551 145.35 110.408 145.363 110.265H147.397C147.397 111.38 148.04 111.867 149.194 111.867C150.402 111.867 151.188 111.33 151.188 110.504C151.188 109.926 150.807 109.638 149.639 109.468L148.578 109.312C147.002 109.089 146.216 108.367 146.216 107.029C146.216 105.009 147.778 103.841 150.296 103.841C152.488 103.841 153.693 104.903 153.693 106.545C153.693 106.651 153.693 106.767 153.679 106.886H151.712C151.712 105.981 151.162 105.416 150.06 105.416C149.049 105.416 148.329 105.888 148.329 106.717C148.329 107.281 148.604 107.516 149.629 107.662L150.704 107.808C152.292 108.043 153.301 108.819 153.301 110.236C153.301 112.23 151.818 113.451 148.959 113.451C146.584 113.438 145.337 112.482 145.337 110.697Z" fill="#FFCC00"/>
  <path d="M155.371 113.308L157.01 103.965H159.123L157.484 113.308H155.371Z" fill="#FFCC00"/>
  <path d="M168.95 113.308L170.264 105.853L166.578 113.308H164.807L163.745 105.853L162.445 113.308H160.438L162.077 103.965H165.318L166.184 110.093L169.202 103.965H172.601L170.963 113.308H168.95Z" fill="#FFCC00"/>
  <path d="M178.839 110.053H176.597L176.033 113.308H173.92L175.559 103.965H179.559C181.473 103.965 182.681 104.95 182.681 106.536C182.683 108.779 181.293 110.053 178.839 110.053ZM178.971 105.538H177.396L176.872 108.477H178.789C179.97 108.477 180.573 107.86 180.573 106.706C180.571 105.879 180.033 105.538 178.971 105.538Z" fill="#FFCC00"/>
  <path d="M184.139 113.308L185.778 103.965H187.891L186.541 111.589H190.883L190.594 113.308H184.139Z" fill="#FFCC00"/>
  <path d="M193.033 113.308L194.672 103.965H196.784L195.145 113.308H193.033Z" fill="#FFCC00"/>
  <path d="M198.098 113.308L199.737 103.965H206.742L206.44 105.683H201.534L201.179 107.731H205.667L205.365 109.356H200.891L200.208 113.308H198.098Z" fill="#FFCC00"/>
  <path d="M207.542 113.308L209.18 103.965H211.293L209.654 113.308H207.542Z" fill="#FFCC00"/>
  <path d="M212.604 113.308L214.242 103.965H221.248L220.946 105.683H216.04L215.685 107.731H220.173L219.871 109.356H215.397L215.002 111.589H219.895L219.606 113.308H212.604Z" fill="#FFCC00"/>
  <path d="M226.21 113.308H222.233L223.872 103.965H227.507C230.17 103.965 231.666 105.278 231.666 107.627C231.666 111.065 229.855 113.308 226.21 113.308ZM227.48 105.617H225.683L224.621 111.655H226.458C228.492 111.655 229.556 109.91 229.556 107.783C229.553 106.391 228.741 105.617 227.48 105.617Z" fill="#FFCC00"/>
</svg>