<svg width="443" height="225" viewBox="0 0 443 225" fill="none" xmlns="http://www.w3.org/2000/svg">
<path d="M171.961 157.077C171.571 161.171 170.674 165.214 169.153 169.035C156.568 200.578 133.083 219.338 98.3561 224.175C55.8883 230.084 15.5495 203.706 3.46122 162.763C-9.63023 118.435 15.5885 71.0743 59.3103 56.7935C61.9408 55.9335 64.6884 55.509 67.4527 55.5034H67.5698C40.105 75.4976 29.6274 101.853 36.5995 133.849C42.8359 162.467 62.1861 180.841 89.9239 187.856C123.257 196.284 150.906 185.058 171.961 157.077Z" fill="white"/>
<path d="M193.82 62.2667C186.97 59.0945 180.371 56.0451 172.965 52.6159C180.165 48.8237 186.591 45.4448 193.14 41.9989C194.867 34.8111 195.018 27.4557 196.283 19.6367C202.965 24.3951 207.44 31.0971 213.577 35.04C221.006 33.6438 227.744 32.3816 235.674 30.8904C232.046 38.2011 228.897 44.5401 225.559 51.2755C229.07 57.5865 232.665 64.0483 236.7 71.3088C228.502 70.1974 221.212 69.2033 213.738 68.1924C208.689 73.5428 203.673 78.8597 198.267 84.5898C195.887 77.1562 195.837 69.6668 193.82 62.2667Z" fill="white"/>
<path d="M69.0411 23.7584C65.8588 20.3628 62.7991 17.1012 59.3604 13.4318C64.3429 12.9348 68.7847 12.488 73.3157 12.0356C75.9574 8.33276 77.7353 4.17197 80.2544 0C82.9741 4.26133 83.9829 9.12024 86.58 12.7896C91.1388 13.7111 95.2742 14.5488 100.145 15.5318C96.3888 18.866 93.134 21.7534 89.6787 24.8252C90.2304 29.2373 90.7933 33.7555 91.4286 38.8322C87.0091 36.3023 83.0744 34.0515 79.045 31.7449C74.932 33.6326 70.8468 35.5036 66.4384 37.5254C66.7951 32.7335 68.4893 28.4498 69.0411 23.7584Z" fill="white"/>
<path d="M147.868 20.1339C147.005 18.8382 146.169 17.5928 145.232 16.1965C146.904 16.3026 148.392 16.3976 149.914 16.4981C150.984 15.4202 151.803 14.1413 152.856 12.907C153.52 14.4596 153.592 16.1183 154.25 17.4755C155.704 18.0284 157.025 18.531 158.58 19.1175C157.159 20.0111 155.927 20.7874 154.623 21.6139C154.567 23.0995 154.506 24.6242 154.439 26.3332C153.118 25.2553 151.942 24.3003 150.739 23.3174C149.279 23.7139 147.829 24.1104 146.263 24.5349C146.642 22.9767 147.434 21.653 147.868 20.1339Z" fill="white"/>
<path d="M104.147 69.4491C102.675 67.2431 101.254 65.1264 99.6602 62.7416C102.508 62.9259 105.05 63.0878 107.635 63.2554C109.464 61.4179 110.851 59.2454 112.651 57.1343C113.783 59.7815 113.905 62.6075 115.026 64.9141C117.506 65.858 119.752 66.7125 122.399 67.7178C119.98 69.2425 117.885 70.5661 115.655 71.9735C115.555 74.5035 115.455 77.1005 115.343 80.0103C113.092 78.1784 111.091 76.5476 109.034 74.8721C106.549 75.5479 104.074 76.2237 101.41 76.9497C102.051 74.2857 103.4 72.035 104.147 69.4491Z" fill="white"/>
<path d="M190.431 190.838C187.031 190.168 183.76 189.52 180.082 188.794C182.885 186.32 185.387 184.12 187.94 181.869C187.934 178.473 187.21 175.172 186.925 171.548C190.42 172.95 193.145 175.452 196.305 176.546C199.471 175.117 202.341 173.827 205.718 172.302C204.888 175.96 204.169 179.127 203.405 182.494C205.651 184.929 207.953 187.426 210.539 190.224C206.76 190.615 203.4 190.961 199.956 191.319C198.278 194.256 196.617 197.172 194.823 200.31C192.961 197.261 192.131 193.921 190.431 190.838Z" fill="white"/>
<path d="M267.67 129.359C267.742 129.18 267.687 129.119 267.503 129.119C267.001 129.124 266.511 129.124 266.015 129.119C265.803 129.113 265.775 129.202 265.848 129.376C265.942 129.61 266.026 129.845 266.121 130.079C266.193 130.258 266.221 130.481 266.349 130.61C266.5 130.766 266.494 130.911 266.477 131.023C266.137 131.191 265.859 131.319 265.58 131.459C264.978 131.777 264.337 131.917 263.657 131.855C262.944 131.788 262.336 131.487 261.801 131.029C261.356 130.643 260.876 130.364 260.269 130.303C259.271 130.191 258.257 130.828 258.051 131.766C257.778 132.989 257.521 134.218 257.259 135.441C257.883 136.826 258.719 138.088 259.728 139.177C260.319 139.194 260.904 139.2 261.495 139.222C262.203 139.244 262.565 139.546 262.671 140.238C262.749 140.735 262.821 141.221 262.888 141.718C263.719 142.199 264.605 142.59 265.535 142.88C265.474 142.277 265.407 141.674 265.324 141.076C265.19 140.155 264.984 139.239 264.778 138.328C264.638 137.708 264.22 137.312 263.607 137.15C263.267 137.055 262.927 136.988 262.587 136.932C262.208 136.871 261.824 136.832 261.411 136.781C261.651 135.664 261.879 134.57 262.114 133.497C262.465 133.587 262.799 133.715 263.139 133.749C264.532 133.894 265.797 133.481 266.979 132.766C267.447 132.481 267.492 131.844 267.141 131.42C267.068 131.336 267.029 131.213 267.007 131.107C266.957 130.889 267.085 130.738 267.185 130.554C267.391 130.174 267.514 129.755 267.67 129.359ZM274.742 134.408C274.62 134.38 274.486 134.38 274.352 134.38C270.83 134.374 267.308 134.374 263.785 134.374C263.713 134.374 263.641 134.38 263.568 134.385C263.133 134.419 262.816 134.748 262.793 135.178C262.777 135.62 263.067 135.988 263.501 136.061C263.618 136.078 263.741 136.078 263.864 136.078H268.523V143.433C268.807 143.455 269.097 143.466 269.387 143.466C269.465 143.466 269.548 143.466 269.626 143.461V136.078H274.302C274.419 136.078 274.542 136.072 274.664 136.055C275.055 135.994 275.344 135.659 275.367 135.262C275.389 134.882 275.116 134.503 274.742 134.408ZM280.812 128.164C280.728 127.912 280.667 127.65 280.583 127.393C280.461 127.024 280.355 126.645 280.182 126.304C279.831 125.622 279.229 125.494 278.627 125.963C278.432 126.114 278.315 126.092 278.125 125.986C277.301 125.533 276.47 125.589 275.707 126.108C274.954 126.611 274.597 127.354 274.681 128.259C274.787 129.448 275.623 130.264 276.827 130.414C278.053 130.565 279.296 129.532 279.368 128.298C279.385 128.018 279.368 127.734 279.368 127.449C279.457 127.594 279.558 127.762 279.664 127.918C279.992 128.398 280.332 128.867 280.839 129.169C281.051 129.297 281.263 129.398 281.558 129.314C281.152 129.007 280.962 128.594 280.812 128.164ZM261.595 125.695C260.302 125.695 259.243 126.762 259.243 128.058C259.238 129.359 260.319 130.437 261.612 130.431C262.888 130.426 263.969 129.348 263.975 128.063C263.975 126.767 262.894 125.689 261.595 125.695ZM277.323 139.507C277.239 139.507 277.144 139.507 277.055 139.518C276.621 139.568 276.286 139.886 276.297 140.266C276.303 140.618 276.609 140.925 277.022 140.976C277.629 140.54 278.203 140.048 278.733 139.507H277.323Z" fill="white"/>
<path d="M281.43 135.614C280.812 136.938 280.004 138.144 279.028 139.189C278.499 139.2 277.958 139.205 277.423 139.211C277.267 139.217 277.117 139.205 276.955 139.222C276.387 139.272 276.035 139.568 275.963 140.144C275.885 140.697 275.812 141.249 275.74 141.802C274.898 142.272 274.007 142.657 273.07 142.931C273.087 142.808 273.098 142.685 273.115 142.562C273.249 141.506 273.416 140.451 273.566 139.401C273.572 139.351 273.572 139.3 273.578 139.217H272.43C272.513 138.524 272.708 137.915 273.132 137.396C273.762 136.614 274.637 136.368 275.578 136.251C275.952 136.201 276.336 136.162 276.71 136.1C276.877 136.078 277.033 135.994 276.988 135.776C276.832 135.017 276.671 134.252 276.509 133.481C276.236 133.559 275.996 133.648 275.751 133.71C274.96 133.911 274.18 133.777 273.427 133.537C272.864 133.364 272.312 133.135 271.794 132.861C271.164 132.543 271.081 131.906 271.538 131.375C271.666 131.219 271.649 130.811 271.499 130.683C271.471 130.66 271.443 130.627 271.426 130.588C271.265 130.163 271.098 129.739 270.936 129.314C270.886 129.192 270.941 129.125 271.07 129.125H272.658C272.809 129.125 272.836 129.214 272.792 129.337C272.63 129.756 272.496 130.186 272.296 130.582C272.207 130.761 272.084 130.895 272.151 131.051C272.424 131.174 272.675 131.264 272.909 131.392C274.285 132.152 275.662 132.04 276.86 131.012C277.635 130.348 278.471 130.102 279.446 130.482C280.065 130.722 280.461 131.157 280.605 131.822C280.873 133.062 281.14 134.296 281.425 135.536C281.419 135.564 281.425 135.586 281.43 135.614Z" fill="white"/>
<path d="M267.191 130.554C267.096 130.733 266.962 130.889 267.012 131.107C267.035 131.219 267.074 131.336 267.146 131.42C267.497 131.85 267.453 132.481 266.985 132.766C265.809 133.481 264.538 133.888 263.145 133.749C262.805 133.715 262.47 133.587 262.119 133.497C261.885 134.575 261.651 135.664 261.417 136.781C261.824 136.832 262.208 136.871 262.593 136.932C262.933 136.988 263.278 137.055 263.613 137.15C264.226 137.317 264.644 137.714 264.783 138.328C264.995 139.239 265.196 140.155 265.329 141.076C265.413 141.674 265.48 142.277 265.541 142.88C264.61 142.59 263.724 142.199 262.894 141.718C262.827 141.221 262.749 140.735 262.676 140.238C262.565 139.546 262.208 139.244 261.5 139.222C260.91 139.205 260.325 139.194 259.734 139.177C258.719 138.088 257.883 136.826 257.265 135.441C257.527 134.218 257.783 132.989 258.056 131.766C258.268 130.828 259.277 130.197 260.274 130.303C260.876 130.364 261.356 130.643 261.807 131.029C262.342 131.492 262.95 131.788 263.663 131.855C264.343 131.917 264.984 131.777 265.586 131.459C265.864 131.314 266.149 131.185 266.483 131.023C266.5 130.912 266.505 130.766 266.355 130.61C266.227 130.481 266.199 130.258 266.126 130.079C266.037 129.845 265.948 129.61 265.853 129.376C265.781 129.202 265.809 129.113 266.02 129.119C266.516 129.124 267.007 129.124 267.508 129.119C267.687 129.113 267.748 129.18 267.676 129.359C267.514 129.755 267.391 130.174 267.191 130.554Z" fill="white"/>
<path d="M275.367 135.268C275.344 135.664 275.055 135.994 274.664 136.061C274.547 136.078 274.425 136.083 274.302 136.083H269.626V143.467C269.548 143.472 269.465 143.472 269.387 143.472C269.097 143.472 268.807 143.461 268.523 143.439V136.083H263.864C263.747 136.083 263.624 136.078 263.501 136.067C263.067 135.994 262.777 135.631 262.794 135.184C262.816 134.748 263.133 134.425 263.568 134.391C263.646 134.385 263.713 134.38 263.786 134.38C267.313 134.38 270.83 134.38 274.352 134.385C274.486 134.385 274.62 134.385 274.742 134.413C275.116 134.503 275.389 134.883 275.367 135.268Z" fill="white"/>
<path d="M281.553 129.32C281.257 129.398 281.046 129.303 280.834 129.175C280.332 128.867 279.987 128.404 279.658 127.924C279.552 127.767 279.452 127.6 279.363 127.454C279.363 127.734 279.379 128.018 279.363 128.303C279.29 129.543 278.047 130.576 276.821 130.42C275.612 130.269 274.776 129.454 274.676 128.264C274.597 127.359 274.949 126.617 275.701 126.114C276.465 125.595 277.295 125.539 278.12 125.991C278.309 126.097 278.426 126.12 278.621 125.969C279.223 125.5 279.825 125.628 280.176 126.309C280.355 126.65 280.455 127.036 280.578 127.399C280.661 127.655 280.722 127.918 280.806 128.169C280.962 128.594 281.152 129.007 281.553 129.32Z" fill="white"/>
<path d="M263.969 128.069C263.964 129.348 262.888 130.431 261.606 130.437C260.313 130.442 259.238 129.359 259.238 128.063C259.238 126.767 260.297 125.701 261.59 125.701C262.894 125.69 263.975 126.767 263.969 128.069Z" fill="white"/>
<path d="M277.323 139.507H278.727C278.198 140.043 277.624 140.534 277.016 140.976C276.609 140.925 276.297 140.618 276.292 140.266C276.281 139.892 276.615 139.568 277.05 139.518C277.15 139.507 277.239 139.507 277.323 139.507Z" fill="white"/>
<path d="M279.179 140.998V141.055C279.196 141.038 279.224 141.015 279.241 140.998H279.179ZM279.179 140.998V141.055C279.196 141.038 279.224 141.015 279.241 140.998H279.179ZM279.179 140.998V141.055C279.196 141.038 279.224 141.015 279.241 140.998H279.179Z" fill="white"/>
<path d="M269.381 149.873C258.485 149.873 249.618 140.775 249.618 129.599C249.618 118.424 258.485 109.326 269.381 109.326C280.277 109.326 289.144 118.424 289.144 129.599C289.144 140.775 280.277 149.873 269.381 149.873ZM269.381 115.011C261.612 115.011 255.298 121.557 255.298 129.599C255.298 137.641 261.618 144.187 269.381 144.187C277.144 144.187 283.464 137.641 283.464 129.599C283.464 121.557 277.15 115.011 269.381 115.011Z" fill="white"/>
<path d="M269.381 151.096C257.811 151.096 248.398 141.45 248.398 129.599C248.398 117.748 257.811 108.103 269.381 108.103C280.951 108.103 290.364 117.748 290.364 129.599C290.364 141.45 280.951 151.096 269.381 151.096ZM269.381 110.543C259.16 110.543 250.839 119.088 250.839 129.593C250.839 140.099 259.154 148.644 269.381 148.644C279.602 148.644 287.923 140.099 287.923 129.593C287.923 119.088 279.608 110.543 269.381 110.543Z" fill="white"/>
<path d="M95.8593 145.377C95.8593 149.191 93.97 151.096 90.1914 151.096H71.393C67.6422 151.096 65.764 149.191 65.764 145.377V130.459H75.1047V143.215H86.5186V130.939L67.8038 113.185C66.4495 111.878 65.7696 110.214 65.7696 108.186V94.2686C65.7696 90.4317 67.6478 88.5105 71.3985 88.5105H90.197C93.9756 88.5105 95.8649 90.4038 95.8649 94.1904V108.186H86.5242V96.3909H75.1103V107.706L93.8251 125.382C95.1794 126.661 95.8593 128.354 95.8593 130.459V145.377Z" fill="white"/>
<path d="M134.688 88.8679L126.428 115.022C125.42 117.608 124.049 121.97 122.321 128.097V151.09H112.941V128.097C112.518 126.019 111.905 123.819 111.108 121.501C109.698 117.53 108.94 115.369 108.834 115.022L100.613 88.8679C100.585 88.84 100.585 88.7227 100.613 88.5105H110.233L117.695 115.704L125.119 88.5105H134.693C134.688 88.6948 134.688 88.8177 134.688 88.8679Z" fill="white"/>
<path d="M171.12 151.096H162.938L147.974 111.705C148.376 113.626 148.571 115.128 148.571 116.223V151.096H139.47V88.5105H147.651L162.615 127.103C162.214 125.181 162.019 123.679 162.019 122.584V88.5105H171.12V151.096Z" fill="white"/>
<path d="M209.352 145.377C209.352 149.191 207.452 151.096 203.645 151.096H184.172C180.472 151.096 178.627 149.191 178.627 145.377V94.2686C178.627 90.4317 180.477 88.5105 184.172 88.5105H203.645C207.452 88.5105 209.352 90.4317 209.352 94.2686V108.907H200.056V96.5473H187.962V143.053H200.056V129.895H209.352V145.377Z" fill="white"/>
<path d="M241.638 127.583H232.581V118.345L225.358 118.507V151.101H216.218V110.711H225.358V112.191C227.248 111.845 229.12 111.498 230.987 111.152C233.25 110.75 235.139 110.549 236.655 110.549C239.982 110.549 241.643 112.191 241.643 115.469V127.583H241.638Z" fill="white"/>
<path d="M324.127 151.096H314.948V118.345L306.37 118.507V151.101H297.23V110.711H306.37V112.191C308.499 111.845 310.612 111.509 312.713 111.191C315.321 110.767 317.461 110.549 319.139 110.549C322.466 110.549 324.127 112.191 324.127 115.469V151.096Z" fill="white"/>
<path d="M339.966 104.908H330.826V95.4692H339.966V104.908ZM339.888 151.095H330.909V110.705H339.888V151.095Z" fill="white"/>
<path d="M386.301 104.908H377.161V95.4692H386.301V104.908ZM386.223 151.095H377.245V110.705H386.223V151.095Z" fill="white"/>
<path d="M372.73 146.097C372.73 149.431 371.042 151.096 367.664 151.096H351.82C348.387 151.096 346.67 149.431 346.67 146.097V115.704C346.67 112.369 348.387 110.705 351.82 110.705H367.664C371.042 110.705 372.73 112.369 372.73 115.704V125.304H363.83V118.345H355.649V143.5H363.83V135.782H372.73V146.097Z" fill="white"/>
<path d="M410.617 151.096H400.479C397.102 151.096 395.413 149.431 395.413 146.097V118.502H391.105V110.705H395.413V99.7476H404.514V110.705H410.383V118.502H404.514V143.299H410.617V151.096Z" fill="white"/>
<path d="M442.981 110.705L432.882 150.576L429.014 165.851H419.674L423.865 150.777L413.649 110.705H423.029L428.334 137.256L433.64 110.705H442.981Z" fill="white"/>
</svg>
