<svg xmlns="http://www.w3.org/2000/svg" width="503" height="546" viewBox="0 0 503 546" fill="none">
  <path d="M499.788 369.103C489.185 317.599 460.403 282.061 408.444 267.61C406.354 267.034 404.354 266.095 400.204 264.58C404.385 262.641 406.414 261.55 408.565 260.732C426.592 254.673 443.073 246.099 456.222 232.163C488.064 198.473 497.849 158.057 489.548 113.4C481.701 71.6817 457.919 40.9004 420.623 20.4199C394.023 5.84724 365.302 0.181779 335.46 0.121186C227.604 -0.151483 119.718 0.121186 11.832 0.121186H0.0162354V545.702H13.165C124.252 545.702 235.461 545.702 346.791 545.702C365.066 545.801 383.253 543.167 400.749 537.885C446.345 524.04 478.369 495.47 494.365 450.025C503.59 424.065 505.466 396.062 499.788 369.103ZM124.808 165.268C136.926 132.305 159.255 108.825 192.097 95.5857C195.55 94.192 199.034 92.8893 203.124 91.2835C204.276 88.5569 205.609 85.5878 206.76 82.5278C211.91 69.1064 223.181 60.8355 235.936 61.3202C249.206 61.7141 260.445 71.3181 264.172 85.3757C264.475 86.5573 264.839 87.7388 265.475 90.0717C268.989 91.6471 273.019 93.6164 277.2 95.313C319.615 112.249 343.701 144 351.244 188.263C354.516 207.41 355.062 227.012 356.879 246.917C344.215 250.31 124.717 250.28 113.689 247.129C116.416 219.832 114.961 191.808 124.808 165.268ZM403.536 450.055C368.958 450.055 334.379 450.055 299.801 450.055H285.107C283.713 465.87 277.381 479.019 264.626 488.35C256.955 494.155 247.672 497.437 238.056 497.742C231.407 498.191 224.735 497.305 218.434 495.135C212.133 492.966 206.33 489.556 201.367 485.108C191.157 476.02 187.279 463.901 184.371 450.055H66.8808C50.6721 450.055 44.219 442.663 45.8247 426.848C47.495 405.46 56.8337 385.395 72.1221 370.345C90.9666 352.016 99.1163 328.869 104.57 304.208C105.994 297.785 107.205 291.332 108.448 285.272C118.385 282.818 342.973 282.243 361.394 284.515C362.999 291.423 364.908 298.876 366.423 306.419C369.725 322.84 374.573 338.716 384.146 352.652C388.527 358.697 393.315 364.436 398.477 369.83C413.898 386.675 423.683 405.944 424.017 429.151C424.289 445.723 419.896 450.086 403.627 450.116L403.536 450.055Z" fill="white"/>
</svg>