<svg xmlns="http://www.w3.org/2000/svg" width="504" height="546" viewBox="0 0 504 546" fill="none">
  <path d="M3.40216 369.103C14.006 317.599 42.7877 282.061 94.7463 267.61C96.8367 267.034 98.8363 266.095 102.987 264.58C98.806 262.641 96.7762 261.55 94.6252 260.732C76.5987 254.673 60.1173 246.099 46.9686 232.163C15.127 198.473 5.34116 158.057 13.6424 113.4C21.4892 71.6817 45.272 40.9004 82.5671 20.4199C109.167 5.84724 137.889 0.181779 167.731 0.121186C275.587 -0.151483 383.473 0.121186 491.359 0.121186H503.174V545.702H490.026C378.938 545.702 267.73 545.702 156.4 545.702C138.125 545.801 119.937 543.167 102.442 537.885C56.8453 524.04 24.8219 495.47 8.82529 450.025C-0.398987 424.065 -2.2757 396.062 3.40216 369.103ZM378.383 165.268C366.264 132.305 343.936 108.825 311.094 95.5857C307.64 94.192 304.156 92.8893 300.066 91.2835C298.915 88.5569 297.582 85.5878 296.431 82.5278C291.28 69.1064 280.01 60.8355 267.255 61.3202C253.985 61.7141 242.745 71.3181 239.019 85.3757C238.716 86.5573 238.352 87.7388 237.716 90.0717C234.201 91.6471 230.172 93.6164 225.991 95.313C183.576 112.249 159.49 144 151.946 188.263C148.674 207.41 148.129 227.012 146.311 246.917C158.975 250.31 378.474 250.28 389.502 247.129C386.775 219.832 388.229 191.808 378.383 165.268ZM99.6544 450.055C134.233 450.055 168.811 450.055 203.39 450.055H218.084C219.477 465.87 225.809 479.019 238.564 488.35C246.235 494.155 255.519 497.437 265.134 497.742C271.783 498.191 278.455 497.305 284.756 495.135C291.057 492.966 296.86 489.556 301.823 485.108C312.033 476.02 315.911 463.901 318.82 450.055H436.31C452.518 450.055 458.972 442.663 457.366 426.848C455.696 405.46 446.357 385.395 431.068 370.345C412.224 352.016 404.074 328.869 398.621 304.208C397.197 297.785 395.985 291.332 394.743 285.272C384.806 282.818 160.217 282.243 141.797 284.515C140.191 291.423 138.283 298.876 136.768 306.419C133.465 322.84 128.618 338.716 119.044 352.652C114.663 358.697 109.875 364.436 104.714 369.83C89.2929 386.675 79.5072 405.944 79.1739 429.151C78.9012 445.723 83.2943 450.086 99.5635 450.116L99.6544 450.055Z" fill="white"/>
</svg>