<svg width="248" height="184" viewBox="0 0 248 184" fill="none" xmlns="http://www.w3.org/2000/svg">
<path d="M0.541195 139.638C0.480131 134.651 1.49446 124.813 8.47262 124.969C15.003 125.112 16.4922 133.148 16.3769 138.342C16.3611 147.562 16.3418 156.782 16.3192 166C16.3633 171.859 14.5755 179.648 8.40816 181.917C1.38251 184.502 0.765093 174.091 0.541195 169.959V139.638ZM5.73156 169.169C5.73156 173.209 6.74928 174.437 8.41834 173.962C10.0874 173.487 11.1119 171.71 11.1323 167.798C11.1458 157.933 11.1605 148.067 11.1764 138.199C11.1764 134.285 10.1383 132.846 8.4794 132.921C6.82052 132.996 5.76548 134.583 5.76548 138.627C5.75418 148.809 5.744 158.989 5.73495 169.169H5.73156Z" fill="black"/>
<path d="M24.7697 125.549C24.7289 138.601 24.6894 151.654 24.6509 164.708C24.6509 168.331 25.6686 169.379 27.3343 168.982C29 168.585 30.0482 167.075 30.0482 163.554L30.1839 125.519H35.1232L34.9808 162.082C35.0452 167.781 33.0946 174.315 27.1783 176.238C20.7327 178.328 19.2265 169.769 19.4538 165.355C19.4877 152.091 19.5205 138.828 19.5522 125.566L24.7697 125.549Z" fill="black"/>
<path d="M37.1791 125.519L53.3303 125.478C53.3303 127.988 53.3303 129.244 53.2997 131.754C51.115 131.822 50.0227 131.856 47.838 131.93C47.7814 144.808 47.7226 157.684 47.6616 170.56C45.5718 171.014 44.5304 171.238 42.4407 171.73L42.6069 132.1L37.1451 132.3C37.1485 129.59 37.1553 128.233 37.1791 125.519Z" fill="black"/>
<path d="M55.5963 125.464H63.8636C69.3186 125.525 72.0054 130.495 71.6051 135.529C71.5734 142.402 71.5417 149.275 71.5101 156.148C71.5949 161.454 69.2338 166.461 63.6635 167.469C60.3525 168.035 58.697 168.337 55.3894 168.982C55.4618 154.469 55.5308 139.963 55.5963 125.464ZM60.7935 131.529C60.7415 141.655 60.6928 151.781 60.6476 161.908C61.8248 161.729 62.4151 161.64 63.5956 161.467C65.2613 161.223 66.262 160.015 66.279 157.057L66.3808 135.438C66.3808 132.466 65.4004 131.421 63.7381 131.465L60.7935 131.529Z" fill="black"/>
<path d="M74.4954 135.116C74.5191 130.482 76.9583 124.701 82.4743 124.969C87.5391 125.214 90.7483 129.651 90.3752 134.651L90.3039 154.666C90.616 159.806 87.4984 164.504 82.3115 165.207C76.6869 165.96 74.3563 161.048 74.4004 156.095C74.4411 149.104 74.4728 142.111 74.4954 135.116ZM79.6349 155.969C79.6349 158.802 80.6526 159.762 82.3318 159.592C84.0111 159.423 85.0457 158.262 85.0627 155.474L85.1441 134.394C85.1441 131.605 84.1264 130.56 82.4505 130.591C80.7747 130.621 79.7366 131.714 79.7366 134.546L79.6349 155.969Z" fill="black"/>
<path d="M93.33 134.583C93.3537 129.973 95.9795 124.718 101.295 124.969C106.235 125.2 109.583 129.355 109.213 134.329C109.213 140.781 109.202 147.233 109.179 153.686C109.519 158.734 106.096 162.899 101.197 163.476C95.9184 164.097 93.2418 159.032 93.2655 154.469C93.2882 147.834 93.3096 141.205 93.33 134.583ZM98.5068 154.53C98.5068 157.244 99.5449 158.191 101.221 158.096C102.897 158.001 103.935 156.936 103.935 154.259C103.948 147.51 103.963 140.763 103.979 134.017C103.979 131.34 102.941 130.332 101.265 130.346C99.589 130.36 98.5509 131.401 98.5509 134.101C98.5418 140.911 98.5271 147.721 98.5068 154.53Z" fill="black"/>
<path d="M123.526 162.309C123.237 161.363 123.047 160.783 123.047 157.777V151.98C123.047 148.553 122.002 147.284 119.621 147.301L117.809 147.318V162.37C115.71 162.408 114.661 162.435 112.561 162.503L112.612 125.4H120.496C125.442 125.37 128.662 128.918 128.245 133.898V136.802C128.245 140.601 127.156 143.071 124.822 144.265C127.441 145.483 128.299 148.292 128.302 152.142V157.845C128.302 159.64 128.35 160.956 128.875 162.337C126.738 162.316 125.663 162.309 123.526 162.309ZM117.823 130.672V142.03H119.859C121.809 142.03 123 141.07 123 138.115V134.461C123 131.825 122.192 130.665 120.337 130.668L117.823 130.672Z" fill="black"/>
<path d="M137.54 125.393H153.691C153.691 127.574 153.691 128.663 153.711 130.845L148.243 130.78C148.274 141.563 148.304 152.348 148.331 163.133C146.231 162.988 145.183 162.923 143.083 162.794C143.062 152.101 143.04 141.409 143.015 130.716C140.827 130.716 139.735 130.689 137.55 130.678C137.546 128.572 137.543 127.517 137.54 125.393Z" fill="black"/>
<path d="M167.064 164.921C166.772 163.873 166.579 163.225 166.565 160.019C166.565 157.54 166.565 156.288 166.541 153.818C166.524 150.158 165.473 148.73 163.095 148.57L161.286 148.451C161.302 153.725 161.322 158.999 161.344 164.273C159.248 164.053 158.199 163.951 156.103 163.761L155.971 125.407H163.858C169.133 125.386 172.023 129.566 171.64 134.641C171.64 135.899 171.64 136.53 171.64 137.789C171.66 141.914 170.578 144.543 168.248 145.693C170.867 147.166 171.738 150.283 171.755 154.466C171.755 156.939 171.772 158.177 171.783 160.654C171.783 162.601 171.847 164.046 172.376 165.6C170.263 165.318 169.198 165.183 167.064 164.921ZM161.219 130.964C161.232 134.942 161.247 138.921 161.263 142.901L163.298 143C165.249 143.102 166.433 142.152 166.423 138.997L166.429 135.109C166.429 132.293 165.605 131.038 163.749 131.008L161.219 130.964Z" fill="black"/>
<path d="M192.188 168.87C190.078 168.463 189.023 168.269 186.909 167.893C186.533 164.748 186.346 163.181 185.97 160.063C183.401 159.693 182.119 159.517 179.548 159.185C179.208 162.133 179.029 163.595 178.679 166.526C176.756 166.227 175.796 166.085 173.872 165.813C175.616 152.359 177.329 138.903 179.012 125.444H186.658C188.538 139.92 190.381 154.396 192.188 168.87ZM180.189 153.675C182.204 153.896 183.215 154.015 185.23 154.252C184.366 147.117 183.492 139.984 182.608 132.853C181.807 139.785 181.001 146.725 180.189 153.675Z" fill="black"/>
<path d="M194.403 125.471L202.667 125.492C208.895 125.542 210.598 132.059 210.507 137.229C210.538 145.222 210.57 153.214 210.602 161.207C210.761 166.068 209.062 172.605 202.87 171.099C199.57 170.359 197.918 170.01 194.61 169.348C194.542 154.72 194.473 140.095 194.403 125.471ZM199.658 131.917C199.705 142.619 199.754 153.321 199.804 164.022C200.981 164.239 201.571 164.362 202.748 164.579C204.411 164.898 205.401 163.9 205.388 160.61C205.349 152.604 205.314 144.599 205.282 136.595C205.282 133.294 204.265 132.073 202.602 132.015L199.658 131.917Z" fill="black"/>
<path d="M219.079 146.436C221.946 146.775 223.377 146.938 226.241 147.294C226.241 150.242 226.241 151.704 226.261 154.663C223.398 154.191 221.966 153.96 219.103 153.519L219.154 168.042C222.753 168.88 224.551 169.318 228.147 170.234L228.164 177.68C223.458 176.282 218.725 174.974 213.967 173.755L213.784 125.519L228.032 125.563L228.052 133.009C224.443 132.846 222.641 132.768 219.032 132.619C219.05 137.226 219.066 141.831 219.079 146.436Z" fill="black"/>
<path d="M242.232 182.148C241.947 180.598 241.757 179.654 241.754 175.065C241.754 171.519 241.754 169.749 241.754 166.204C241.754 160.969 240.709 158.825 238.341 158.364L236.543 158.025C236.557 165.447 236.568 172.87 236.577 180.292C234.501 179.614 233.463 179.295 231.383 178.66C231.347 160.97 231.309 143.279 231.268 125.586L239.155 125.614C246.113 125.437 246.978 133.894 246.897 139.014V143.58C246.71 147.311 246.914 152.244 243.505 154.775C246.687 158.001 247.07 163.486 246.958 167.767V176.74C246.958 179.563 247.005 181.649 247.525 184C245.397 183.227 244.342 182.85 242.232 182.148ZM236.499 133.406C236.499 139.003 236.508 144.602 236.526 150.202L238.562 150.504C240.502 150.792 241.686 149.527 241.683 145.018C241.683 142.796 241.683 141.683 241.683 139.461C241.683 135.435 240.872 133.623 239.023 133.531L236.499 133.406Z" fill="black"/>
<path fill-rule="evenodd" clip-rule="evenodd" d="M179.816 33.8698C180.442 34.0423 181.022 34.353 181.512 34.779L181.488 34.7518C183.463 34.4228 185.576 35.5694 186.753 36.638C187.357 36.7466 188.012 36.8585 188.714 36.9773C191.601 37.4658 195.126 38.0866 197.069 40.2204L196.93 40.3561C196.794 40.4935 196.69 40.6601 196.627 40.8435C196.564 41.0269 196.544 41.2221 196.567 41.4145C196.69 41.5299 196.801 41.6384 196.907 41.7538L197.049 41.903L196.91 42.0421C196.778 42.1749 196.677 42.3345 196.612 42.5102C196.548 42.6858 196.522 42.8733 196.537 43.0598C196.683 43.1921 196.825 43.3312 196.961 43.4771L197.1 43.6264L196.961 43.7654C196.706 44.0434 196.563 44.4061 196.561 44.7832C196.614 44.8396 196.665 44.8937 196.716 44.947C196.772 45.0058 196.828 45.0636 196.883 45.1224L197.025 45.2717L196.883 45.4108C196.639 45.6516 196.391 46.1944 196.544 46.5336C196.632 46.6151 196.717 46.7033 196.801 46.7915L196.944 46.9441L196.801 47.0832C196.544 47.3241 196.286 47.894 196.462 48.2332C196.554 48.3179 196.642 48.4094 196.73 48.5009L196.73 48.5012L196.869 48.6505L196.73 48.7896C196.574 48.9422 196.262 49.675 196.337 49.8718C196.387 49.9226 196.419 49.9588 196.453 49.9986L196.453 49.9987L196.453 49.9987L196.453 49.9987L196.453 49.9988C196.476 50.0254 196.501 50.0536 196.533 50.0889L196.676 50.2381L196.533 50.3772C196.375 50.5209 196.25 50.6972 196.167 50.8941C196.084 51.0909 196.044 51.3035 196.052 51.5171V51.534C195.403 52.0228 194.819 52.5929 194.315 53.2302L194.02 53.7594C191.903 57.7625 187.985 58.8039 184.385 57.4232C183.261 57.0065 182.201 56.4356 181.234 55.727C180.609 55.2476 180.559 55.2476 179.669 55.2486L179.538 55.2487C179.253 55.2446 178.976 55.247 178.705 55.2494H178.705H178.705H178.705H178.704H178.704H178.704H178.704H178.704H178.704H178.704C177.201 55.2625 175.903 55.2738 174.676 54.153C176.308 53.8137 177.668 53.3083 178.781 52.009C179.201 51.8751 179.609 51.7083 180.002 51.5103C181.12 50.9294 181.656 49.9508 182.141 49.066C182.443 48.5144 182.726 47.9991 183.117 47.6396C183.117 47.6396 183.639 47.8804 183.853 48.7998C184.022 49.5209 183.852 50.2389 183.683 50.9527C183.456 51.9079 183.231 52.8556 183.826 53.7934C185.4 56.2766 188.504 55.3233 188.826 52.3889C189.036 50.4654 187.645 47.626 183.147 44.8714C182.516 45.3836 181.281 45.8993 180.803 45.7229C180.93 45.5452 181.026 45.4164 181.094 45.3256C181.187 45.202 181.226 45.149 181.217 45.1391C181.211 45.1316 181.177 45.1485 181.117 45.178C180.897 45.2874 180.327 45.5707 179.5 45.4345C180.153 44.8699 179.973 44.9793 179.625 45.1913L179.625 45.1913C179.41 45.322 179.131 45.4918 178.944 45.5668C179.11 43.7281 179.982 43.3312 181.146 43.2803C180.294 43.2125 178.744 42.3135 177.828 40.5664C177.126 40.5087 174.045 38.5751 176.345 37.4556C176.512 37.3805 176.702 37.3397 176.89 37.2993L176.89 37.2993C177.305 37.2103 177.709 37.1235 177.835 36.6753C177.897 36.4572 177.948 36.2047 178 35.942L178 35.942L178 35.942C178.223 34.8319 178.483 33.5379 179.816 33.8698ZM179.195 38.2286C179.195 38.2286 178.235 37.8894 177.78 38.2286V38.232C177.78 38.232 178.56 38.1133 178.9 38.3576C179.375 38.6968 179.249 38.9885 178.761 39.036C177.963 39.1175 176.291 38.5272 177.224 37.8894C177.597 37.6282 178.343 37.7842 179.195 38.2286ZM178.876 35.9015C179.32 35.9082 179.551 36.3968 179.66 36.9768C179.548 36.4782 179.32 36.1118 178.934 36.1152C178.649 36.1118 178.462 36.3391 178.347 36.6783C178.385 36.5697 178.454 36.4747 178.546 36.4053C178.637 36.3359 178.748 36.2951 178.862 36.2882C179.673 36.3018 179.67 37.886 179.619 38.5374C179.839 37.6384 179.982 34.9244 178.94 34.9244C178.655 34.9177 178.466 35.1483 178.35 35.4876C178.388 35.379 178.457 35.284 178.549 35.2146C178.641 35.1452 178.751 35.1044 178.866 35.0975C179.453 35.0975 179.68 35.9931 179.714 36.7937C179.639 36.0236 179.398 35.301 178.839 35.3214C178.557 35.3315 178.381 35.5724 178.282 35.9116C178.316 35.8025 178.38 35.7053 178.467 35.6319C178.554 35.5584 178.661 35.5118 178.774 35.4978C178.914 35.5047 179.049 35.5528 179.162 35.6361C179.275 35.7194 179.361 35.8341 179.409 35.9659C179.356 35.8931 179.287 35.8334 179.208 35.7916C179.128 35.7498 179.04 35.727 178.951 35.7251C178.666 35.7217 178.479 35.949 178.364 36.2882C178.402 36.1805 178.47 36.0863 178.562 36.0175C178.653 35.9487 178.762 35.9084 178.876 35.9015ZM191.767 43.762C191.903 43.9553 191.93 44.1656 191.832 44.2369C191.733 44.3081 191.54 44.2064 191.407 44.0164C191.275 43.8264 191.245 43.6127 191.346 43.5448C191.448 43.477 191.635 43.572 191.767 43.762ZM183.686 53.9188C183.063 52.9356 183.257 51.9173 183.439 50.9587C183.628 49.9657 183.805 49.0367 183.049 48.2772C183.547 49.0439 183.408 49.8988 183.198 50.7503C183.266 50.0277 183.198 49.3424 182.645 48.8438C183.157 49.5596 183.083 50.3839 182.923 51.2184C182.923 50.54 182.787 49.8615 182.245 49.4306C182.777 50.0718 182.794 50.8487 182.706 51.6391C182.689 50.9606 182.526 50.3161 181.963 49.8954C182.519 50.5264 182.557 51.3134 182.492 52.114C182.448 51.3914 182.265 50.7299 181.658 50.3195C182.367 51.0488 182.336 52.036 182.268 53.0062C182.211 52.1174 182.041 51.2591 181.274 50.8147C182.036 51.4812 182.035 52.5131 182.034 53.5014L182.034 53.5999C181.899 52.667 181.668 51.7544 180.82 51.3643C181.597 51.941 181.739 52.8604 181.838 53.7797C181.53 52.9217 180.939 52.1942 180.162 51.7171C180.864 52.3062 181.393 53.0739 181.695 53.9391C180.994 53.3934 180.424 52.698 180.026 51.9037C180.323 52.7699 180.845 53.5415 181.539 54.1393C180.643 53.7526 179.816 53.2742 179.473 52.3142C179.602 53.2674 180.341 53.8238 181.203 54.258H181.156C180.219 53.9832 179.337 53.6101 178.879 52.7009C178.972 53.0137 179.133 53.3023 179.349 53.5467C179.565 53.7911 179.832 53.9852 180.131 54.1155C179.748 54.0689 179.378 53.9472 179.042 53.7575C178.706 53.5677 178.411 53.3136 178.174 53.0096C178.513 53.8204 179.29 54.163 180.148 54.3666C179.171 54.3462 178.225 54.2139 177.543 53.4642C178.021 54.2886 178.9 54.5192 179.87 54.6007C178.689 54.6956 177.475 54.7805 176.586 53.9391C177.261 54.8695 178.245 54.8363 179.248 54.8024C179.522 54.7931 179.796 54.7839 180.067 54.794C180.983 54.8313 181.135 54.9467 181.783 55.537C182.577 56.3641 183.553 56.9948 184.633 57.379C186.352 58.0485 188.262 58.0382 189.974 57.3501C191.686 56.6619 193.072 55.3477 193.85 53.6745C196.601 48.5859 193.575 40.8648 188.324 38.2629C188.554 38.4427 189.172 39.82 188.89 41.1362C189.123 40.6945 189.189 40.1842 189.077 39.6979C189.671 40.2407 190.237 40.8136 190.773 41.4144C190.733 41.4202 190.695 41.4341 190.661 41.4551C190.03 41.8995 191.54 43.4499 191.74 42.5882C192.356 43.3768 192.897 44.2219 193.355 45.1121C193.516 45.4305 193.657 45.7592 193.775 46.0959C193.709 46.0709 193.635 46.0709 193.568 46.0959C193.341 46.1773 193.277 46.598 193.429 47.0322C193.582 47.4664 193.891 47.7616 194.108 47.6836L194.162 47.6564C195.041 52.8841 192.079 58.4205 186.251 57.5215C185.041 57.3584 183.885 56.9159 182.876 56.229C182.682 56.0885 182.502 55.9294 182.34 55.7541C182.075 55.5119 181.847 55.2331 181.661 54.9263C181.38 54.3394 181.858 54.3225 182.204 54.4853C182.204 54.218 182.204 54.084 182.267 54.0403C182.33 53.9964 182.457 54.0438 182.71 54.1389L182.73 54.1461C182.536 53.4371 182.591 53.3014 183.269 53.8577C183.136 53.5923 183.08 53.2951 183.106 52.9994C183.305 53.737 183.78 54.3699 184.433 54.7669C184.144 54.5155 183.893 54.2242 183.686 53.9018V53.9188ZM195.777 51.0521C195.62 50.8702 195.449 50.7011 195.265 50.5466L195.258 50.5331C195.263 50.4971 195.268 50.4614 195.274 50.4258C195.288 50.3339 195.302 50.2427 195.302 50.1497L195.804 50.5195C195.678 50.3007 195.514 50.1064 195.319 49.9462C195.346 49.8444 195.346 49.7257 195.346 49.6069C195.625 49.7912 195.883 50.005 196.116 50.2447C195.924 50.4735 195.806 50.755 195.777 51.0521ZM196.112 47.9036L196.113 47.9074L196.133 47.9209L196.112 47.9036ZM196.136 47.3869C196.092 47.5557 196.084 47.7316 196.112 47.9036C195.85 47.6883 195.571 47.4945 195.278 47.3239C195.258 47.1497 195.234 46.9767 195.207 46.8048C195.427 46.9202 195.648 47.0423 195.865 47.1644C195.671 46.9222 195.434 46.7176 195.166 46.5606C195.129 46.3401 195.081 46.1196 195.034 45.9025C195.522 46.1804 195.97 46.5227 196.367 46.9202C196.258 47.058 196.18 47.2169 196.136 47.3869ZM196.214 45.6969C196.173 45.8656 196.171 46.0415 196.208 46.2112L196.228 46.2349C195.826 45.8835 195.382 45.5838 194.905 45.3427C194.851 45.1392 194.79 44.939 194.725 44.7355L194.92 44.8451C195.252 45.0318 195.583 45.2181 195.909 45.4139C195.542 44.9953 195.099 44.65 194.603 44.3962C194.542 44.2198 194.478 44.0502 194.41 43.8806C195.175 44.187 195.868 44.6491 196.445 45.2375C196.334 45.3711 196.255 45.5282 196.214 45.6969ZM196.306 44.0486C196.264 44.2062 196.255 44.3707 196.279 44.5319L196.299 44.5557C195.681 44.0145 194.961 43.6007 194.182 43.3378C194.087 43.1309 193.989 42.9239 193.884 42.7204C194.539 43.0053 195.19 43.3039 195.824 43.6431C195.59 43.3039 194.623 42.7611 193.653 42.2862C193.63 42.2454 193.606 42.2047 193.583 42.164L193.583 42.1639L193.583 42.1638L193.583 42.1637L193.583 42.1636L193.582 42.1636L193.582 42.1635L193.582 42.1634L193.582 42.1633C193.536 42.0821 193.489 42.0009 193.44 41.9198C194.615 42.1617 195.69 42.7529 196.523 43.616C196.422 43.7438 196.348 43.891 196.306 44.0486ZM196.282 41.1768C194.925 40.037 193.592 39.7724 191.872 39.5451L191.665 39.5112C191.448 39.2839 191.221 39.0566 190.987 38.8327C191.247 38.8842 191.506 38.9329 191.765 38.9815C192.836 39.1826 193.9 39.3824 194.993 39.7758C194.458 39.2078 191.581 38.5921 190.551 38.3716L190.454 38.351C190.217 38.144 189.966 37.9473 189.711 37.7539C189.83 37.7725 189.952 37.7911 190.077 37.8102L190.078 37.8103L190.078 37.8103C192.117 38.1221 194.829 38.5371 196.53 40.2473C196.428 40.3775 196.354 40.527 196.311 40.6868C196.269 40.8465 196.259 41.0132 196.282 41.1768ZM196.293 42.3666C196.257 42.5263 196.254 42.6916 196.282 42.8527C195.395 42.1177 194.331 41.6287 193.195 41.4347C193.12 41.3166 193.037 41.2132 192.955 41.1098L192.955 41.1097L192.955 41.1097L192.955 41.1097L192.955 41.1097L192.955 41.1097L192.955 41.1097L192.955 41.1097L192.955 41.1096C192.9 41.0408 192.844 40.9719 192.792 40.8987L192.861 40.9164C193.798 41.1547 194.731 41.392 195.651 41.723C195.285 41.3193 193.701 40.7969 192.463 40.4577C192.34 40.2982 192.215 40.1422 192.083 39.9895C193.843 40.227 195.159 40.5662 196.493 41.9232C196.397 42.0562 196.33 42.207 196.293 42.3666ZM196.333 48.6401C196.133 48.9319 196.047 49.2864 196.089 49.6375V49.6511C195.868 49.4578 195.634 49.2788 195.39 49.1151V48.6537L195.869 48.9217C195.736 48.7405 195.572 48.5853 195.383 48.4637C195.38 48.3716 195.374 48.2796 195.367 48.1878C195.358 48.0665 195.349 47.9457 195.349 47.8259C195.703 48.0642 196.033 48.3369 196.333 48.6401ZM195.214 50.9571C195.372 51.0991 195.517 51.2546 195.648 51.4219V51.4354C195.342 51.6754 195.09 51.9756 194.905 52.3175C194.993 52.0088 195.068 51.7001 195.132 51.388L195.38 51.5745C195.324 51.459 195.25 51.3536 195.159 51.2624C195.168 51.2116 195.177 51.1607 195.187 51.1098L195.187 51.1097C195.196 51.0588 195.205 51.008 195.214 50.9571ZM177.933 39.5351C178.568 39.8858 179.139 39.8512 179.686 39.8183C180.307 39.7807 180.896 39.7451 181.508 40.2814C180.845 39.9504 180.359 40.0001 179.886 40.0485C179.312 40.1071 178.759 40.1638 177.933 39.5351ZM180.786 43.9728L180.786 43.9728L180.785 43.9728L180.785 43.9728L180.785 43.9729L180.785 43.9729L180.785 43.9729C180.709 43.9802 180.642 43.9868 180.586 43.9927C180.896 44.0233 181.208 44.0301 181.519 44.0131L181.458 43.9011C181.201 43.9323 180.968 43.955 180.786 43.9728ZM181.797 44.3489L181.784 44.3523L181.78 44.3489H181.797ZM181.784 44.3523C181.834 44.3983 181.887 44.4413 181.943 44.4812C181.532 44.5524 181.115 44.5819 180.698 44.5694C181.063 44.5152 181.425 44.4427 181.784 44.3523ZM182.258 44.6881C181.919 44.8035 181.58 44.8985 181.288 44.9731C181.67 44.9316 182.047 44.8601 182.418 44.7594C182.357 44.7347 182.298 44.7063 182.241 44.6746L182.258 44.6881ZM182.74 44.8679C182.267 45.1049 181.772 45.2936 181.261 45.4311C181.828 45.356 182.375 45.1753 182.876 44.8985L182.74 44.8679ZM182.502 44.4605C181.819 44.1302 181.397 43.501 181.15 42.9412C181.153 43.031 181.169 43.1199 181.196 43.2057L181.179 43.1921C180.162 42.6832 178.174 41.4077 178.228 40.2916C177.258 40.2984 174.822 38.1408 176.827 37.7778C175.769 38.0865 176.986 39.5283 178.73 39.4062C178.875 39.3959 179.018 39.3795 179.16 39.3631C179.582 39.3144 179.997 39.2665 180.443 39.3858C180.183 39.0709 180.017 38.6886 179.965 38.2833C179.939 37.9098 179.976 37.5559 180.013 37.206C180.067 36.6851 180.121 36.1728 179.965 35.6169C179.768 34.9113 179.303 34.0666 178.571 34.7857C179.276 33.7918 179.968 34.2769 180.267 35.1487C180.336 35.3488 180.342 35.5131 180.348 35.6823C180.356 35.9034 180.365 36.133 180.515 36.4616C181.036 37.4361 181.904 38.1795 182.947 38.5445C182.017 38.056 180.654 36.7601 180.911 35.5728C181.246 35.7703 181.498 36.0825 181.62 36.4514C181.754 36.7901 182.003 37.0711 182.323 37.2452C182.886 37.5709 183.483 37.537 183.656 37.1638C183.829 36.7907 183.517 36.2445 182.957 35.9052L182.927 35.8849C182.992 35.9295 183.042 35.993 183.071 36.067C183.099 36.1409 183.105 36.2217 183.086 36.2988C183.063 36.3476 183.022 36.382 182.97 36.4015C182.813 36.4726 182.559 36.357 182.441 36.2582C182.292 36.1326 182.187 35.9427 182.302 35.7866L182.304 35.8021C182.323 35.7801 182.345 35.7615 182.37 35.7472C182.406 35.7264 182.447 35.7154 182.489 35.7153C182.332 35.6816 182.17 35.6816 182.014 35.7153C182.421 35.4981 183.12 35.6033 183.646 36.007C184.918 36.9806 185.322 38.341 184.172 40.5291C184.905 39.814 185.329 38.8395 185.352 37.8152H185.379C185.522 37.8559 185.657 37.8287 185.678 37.7541C185.698 37.6795 185.6 37.5845 185.454 37.5472C185.418 37.5358 185.38 37.5289 185.342 37.5268C185.334 37.2763 185.261 37.0322 185.132 36.8178C185.375 36.9477 185.602 37.1047 185.81 37.2859C185.791 37.2863 185.772 37.2919 185.756 37.3021C185.74 37.3122 185.727 37.3266 185.718 37.3436C185.705 37.3979 185.776 37.4657 185.881 37.4929C185.933 37.508 185.989 37.508 186.041 37.4929C186.672 38.1137 187.194 38.9686 187.153 39.7319C187.075 41.021 185.213 41.1804 184.022 40.8412C184.484 41.0545 184.965 41.2259 185.457 41.3534C184.468 41.3312 183.492 41.1265 182.577 40.7496C182.577 40.7496 182.628 41.384 182.217 41.635C181.807 41.886 179.802 41.8758 178.686 40.2102C178.79 40.5259 179 40.8252 179.274 41.0935L179.269 41.0786C179.958 41.7324 180.835 42.1526 181.776 42.2795L181.776 42.2897C182.515 42.364 183.06 42.1128 182.947 41.3772C187.371 42.9377 189.094 40.3798 186.227 37.1706C188.727 39.3146 189.555 43.7654 184.657 42.5001C185.45 42.8291 186.882 43.2362 187.825 42.9173C187.836 42.9831 187.862 43.0457 187.9 43.1005C187.988 43.2226 188.107 43.2837 188.171 43.2396C188.236 43.1955 188.215 43.0598 188.13 42.9377C188.103 42.8971 188.068 42.8615 188.029 42.8325C188.219 42.7398 188.382 42.5982 188.5 42.422L188.561 42.4763C188.544 42.524 188.541 42.5755 188.551 42.6251C188.561 42.6747 188.585 42.7206 188.619 42.7579C188.704 42.897 188.826 42.9445 188.89 42.897C188.9 42.8891 188.908 42.8793 188.914 42.8682C188.92 42.8572 188.923 42.845 188.924 42.8325C188.986 42.9024 189.052 42.9712 189.117 43.0402C189.167 43.0917 189.216 43.1433 189.263 43.1955C189.268 43.2986 189.303 43.3981 189.365 43.4805C189.477 43.6263 189.616 43.7111 189.705 43.6806C189.85 43.8468 189.989 44.0165 190.125 44.1861C190.051 44.2302 190.064 44.3828 190.152 44.5253C190.241 44.6678 190.373 44.7458 190.447 44.7017C190.463 44.6925 190.475 44.6781 190.481 44.661C190.682 44.929 190.855 45.2038 191.021 45.482C191 45.4752 190.977 45.4752 190.956 45.482C190.858 45.5159 190.831 45.6957 190.892 45.8823C190.953 46.0689 191.112 46.1808 191.18 46.1604C191.248 46.1401 191.279 46.0519 191.279 45.9399C191.487 46.3309 191.666 46.7369 191.815 47.1544C192.235 48.3212 192.388 49.5674 192.262 50.8012C192.249 50.7873 192.231 50.7788 192.211 50.7775C192.137 50.7741 192.076 50.8793 192.066 51.0217C192.055 51.1642 192.11 51.283 192.184 51.283C191.994 52.5456 191.485 53.7389 190.705 54.75C191.089 54.4718 191.482 54.1292 191.923 53.7323C191.119 54.9794 189.912 55.9142 188.504 56.3817C188.615 56.3817 188.727 56.3871 188.843 56.3926H188.843H188.843H188.843H188.843H188.843H188.843H188.843C189.084 56.404 189.337 56.4161 189.616 56.3817C188.298 56.9144 186.388 56.8239 185.166 56.4221L185.152 56.4193H185.145C185.023 56.3786 184.908 56.3345 184.806 56.2904L184.836 56.2985L184.816 56.2901C185.905 56.5874 186.861 56.4973 187.632 56.1382C189.316 55.3463 190.109 53.2601 189.46 51.134C188.7 48.6473 186.02 46.3846 183.388 44.8275C183.434 44.8461 183.49 44.8697 183.554 44.8982C183.812 44.8644 184.057 44.7653 184.267 44.6101C183.541 44.7744 182.962 44.686 182.502 44.4605ZM183.564 36.7536C183.556 36.6469 183.519 36.5445 183.456 36.458C183.468 36.5498 183.449 36.6432 183.401 36.7226C183.235 36.9702 182.781 36.9567 182.384 36.6921C182.243 36.6168 182.124 36.5056 182.04 36.3697C181.956 36.2339 181.91 36.0783 181.905 35.9186C181.888 35.9351 181.872 35.9533 181.858 35.9729C181.665 36.2545 181.888 36.7226 182.343 37.0245C182.798 37.3265 183.313 37.34 183.5 37.0618C183.55 36.9671 183.572 36.8603 183.564 36.7536Z" fill="black"/>
<path d="M53.4931 46.8152C54.3174 46.6456 59.4908 46.4285 61.0208 46.6117C62.2692 46.7575 63.5176 46.9509 64.7524 47.1545L65.2647 47.2494C65.2116 46.84 65.2025 46.426 65.2376 46.0146L65.5768 45.9536C65.4479 45.9536 65.3156 45.9264 65.1867 45.9061C65.1697 45.3497 65.1595 44.7934 65.1663 44.237C65.5113 44.1786 65.8515 44.0947 66.184 43.986C65.8211 43.9554 65.0408 44.1149 64.9526 43.6467C64.8373 43.0531 64.9255 40.5936 65.1867 39.0873C65.3565 38.0739 65.6528 37.0858 66.0687 36.1461C66.1671 35.9629 65.6616 35.1284 65.6616 35.1284C66.0713 35.3891 66.4503 35.6952 66.7913 36.041C67.1305 36.4481 68.4875 37.9034 69.2576 39.5216C70.0276 41.1397 69.9089 42.914 69.8919 43.4941C69.9167 44.4057 70.0188 45.3136 70.1972 46.208C70.3058 46.5472 71.3032 47.3275 71.3032 47.3275C71.3032 47.3275 71.7238 47.7617 72.5957 47.3071C73.421 46.899 74.1382 46.3015 74.6888 45.5634C75.028 44.9867 75.7269 44.1759 76.5003 43.9012C77.1788 43.6671 77.9828 44.0877 78.1965 44.2065C78.3051 44.3829 78.4204 44.5728 78.434 44.6102C78.5302 44.8728 78.5513 45.1571 78.495 45.4311C78.2987 45.6373 78.0866 45.8279 77.8607 46.001C77.5214 46.2419 75.3673 47.1036 75.1468 47.2902C74.6856 47.8612 74.2542 48.4557 73.8542 49.0712C73.5523 49.4918 72.9824 49.5257 71.6933 51.3068C70.5122 52.8937 68.9354 54.143 67.1203 54.9298C65.7362 55.5303 61.7264 56.5989 61.1599 56.7482C61.4544 56.655 61.7285 56.5065 61.9673 56.3105C62.4049 55.9713 64.3216 54.2446 64.5014 54.0817C63.94 54.4447 63.4019 54.8424 62.89 55.2725C62.4795 55.6388 62.0792 56.0357 61.6348 56.3648C61.5344 56.4471 61.4182 56.5079 61.2933 56.5435C61.1684 56.5791 61.0376 56.5887 60.9089 56.5717C61.4209 56.1938 61.8776 55.7462 62.2658 55.2419C62.6559 54.6313 63.5074 53.3524 63.8297 52.908C64.3452 52.3328 64.8958 51.7901 65.4784 51.283C65.5135 51.5144 65.5327 51.7479 65.5361 51.9818C65.4885 52.2899 65.3246 52.5679 65.0781 52.7587C64.734 53.0543 64.3545 53.3061 63.9485 53.5084C63.9485 53.5084 64.2504 53.7968 64.4234 53.9562L64.1452 53.617C64.6786 53.2427 65.1822 52.8276 65.6514 52.3754C65.8787 52.0633 65.9127 51.0014 65.682 49.5563C65.5836 48.9389 65.4309 48.3147 65.3427 47.6837C65.2373 47.6724 65.1308 47.6781 65.0272 47.7006C64.8407 47.7413 65.3665 50.3772 65.4004 50.6351C65.4649 51.11 64.9085 51.4085 64.6168 51.7037C64.1718 52.152 63.7581 52.6303 63.3785 53.1353C63.5007 52.9724 63.2191 52.5077 63.2055 52.3347C63.2095 52.0899 63.2637 51.8485 63.365 51.6256L63.0698 51.931C63.1411 51.8597 61.9673 50.8386 61.8452 50.7572C61.3665 50.4501 60.842 50.2211 60.2915 50.0787C59.3789 49.8345 58.1576 49.4918 58.1576 49.4918C58.2272 49.2834 58.3193 49.0831 58.4324 48.8948C58.5716 48.6846 58.7331 48.49 58.9141 48.3147C58.578 48.4863 58.2748 48.716 58.0185 48.9931L57.8421 49.2815C56.7333 49.2933 55.6325 49.093 54.599 48.6912C52.8791 48.0127 50.9488 47.1986 50.9488 47.1986C50.9488 47.1986 52.6687 46.9848 53.4931 46.8152Z" fill="black"/>
<path d="M78.6239 44.6778C78.5781 44.5318 78.5225 44.389 78.4577 44.2503L78.6612 44.2741C79.1991 44.2641 79.7349 44.2062 80.2625 44.1011C80.7544 44.0434 80.3473 44.515 80.3473 44.515L78.7087 45.2409C78.7103 45.2354 78.7103 45.2295 78.7087 45.224C78.719 45.038 78.6901 44.8519 78.6239 44.6778Z" fill="black"/>
<path d="M140.26 93.63C140.165 92.8939 139.093 91.7405 138.605 91.4284C138.035 90.6685 136.854 90.4107 136.312 91.1434C136.047 91.116 135.779 91.1563 135.534 91.2608C135.289 91.3652 135.074 91.5303 134.911 91.7405C134.612 91.4962 134.083 91.9305 133.744 93.0025C133.472 91.8762 132.726 94.4578 132.047 94.8513C131.6 94.3221 131.41 94.2814 131.03 95.0413C130.161 94.3628 129.333 94.0236 129.238 94.6206C126.715 94.0236 125.276 95.2177 124.788 96.2897C124.679 95.1905 122.535 98.2844 121.857 98.7865C121.178 98.6915 119.862 99.465 119.699 99.967C119.536 100.469 119.143 99.4243 119.238 99.18C119.848 97.9452 119.631 97.0903 119.061 96.4661C118.491 95.8419 117.637 95.8283 116.849 96.0183C115.981 96.1269 115.384 97.6195 115.153 97.8773C114.923 98.1351 114.94 100.646 115.398 100.958C115.212 100.053 115.392 99.1108 115.9 98.3387C116.022 98.0537 116.741 99.0172 116.7 99.7771C116.65 100.455 116.864 101.126 117.297 101.65C117.294 101.863 117.333 102.075 117.412 102.273C117.492 102.471 117.609 102.651 117.759 102.803C117.881 102.979 118.003 103.536 118.437 103.59C118.871 103.644 118.573 105.083 118.491 105.463C117.813 105.422 118.057 105.843 118.627 105.951C119.197 106.06 118.79 106.915 119.265 107.417C119.74 107.919 119.998 107.892 120.201 107.702C120.405 107.512 120.744 108.597 120.88 108.842C121.015 109.086 121.124 108.882 121.287 108.529C121.45 108.177 121.517 109.316 121.721 109.208C121.924 109.099 122.142 109.33 122.698 109.479C123.254 109.629 123.566 109.479 123.638 109.14C123.709 108.801 124.096 109.724 124.462 109.873C124.828 110.022 124.923 109.737 124.923 109.737C124.923 109.737 125.9 110.239 125.941 109.846C126.367 110.183 126.891 110.373 127.434 110.388C127.434 110.388 127.162 111.135 127.322 111.433C127.021 112.034 126.763 112.655 126.552 113.292C126.526 113.402 126.478 113.506 126.411 113.596C126.343 113.686 126.257 113.761 126.159 113.816C126.06 113.871 125.951 113.904 125.839 113.915C125.727 113.925 125.614 113.912 125.507 113.876C125.1 113.767 124.761 114.134 125.168 114.215C125.575 114.297 123.471 114.663 123.648 114.785C123.824 114.907 124.896 114.948 125.222 114.866C125.548 114.785 126.199 114.676 126.199 114.676C126.001 114.872 125.88 115.132 125.86 115.409C125.88 115.318 126.182 114.965 126.457 115.002C126.732 115.039 126.877 114.256 127.135 114.202C127.23 114.195 127.318 114.151 127.382 114.08C127.445 114.009 127.478 113.917 127.474 113.822C127.474 113.672 128.831 113.686 129.035 113.74C129.238 113.794 128.696 113.835 128.967 114.202C129.483 114.202 129.958 113.102 130.039 112.845C130.121 112.587 130.514 113.13 130.758 113.116C131.003 113.102 130.324 112.573 130.107 112.22C129.89 111.868 130.026 110.307 130.026 110.307C130.731 110.48 132.061 109.812 132.967 109.612C133.873 109.411 133.147 108.309 132.95 107.915C133.238 107.715 135.175 108.512 135.175 108.255C135.609 108.309 135.735 107.946 135.592 107.603C135.647 107.149 134.649 106.443 133.744 105.907C134.324 105.799 133.51 105.439 133.672 104.842C134.721 105.456 135.772 104.767 136.169 104.679C136.572 104.564 136.924 104.315 137.167 103.973C137.362 104.137 137.601 104.241 137.854 104.273C138.107 104.305 138.364 104.263 138.595 104.153C138.883 103.953 138.903 103.519 138.378 103.268C137.852 103.017 137.36 101.955 137.655 101.629C137.95 101.304 138.754 101.141 138.13 100.584C138.808 100.856 138.808 99.7567 138.741 99.2275C139.148 99.4175 139.243 98.454 139.446 97.952C140.07 98.2233 140.057 96.1743 140.016 95.4144C140.708 95.1634 140.355 94.3764 140.26 93.63ZM129.065 112.872C128.94 112.973 127.61 112.719 127.763 113.353C127.519 113.425 127.156 113.479 127.335 113.062C127.584 112.462 127.781 111.842 127.926 111.209C128.142 110.963 128.288 110.663 128.35 110.341C128.658 110.241 128.977 110.177 129.3 110.151C129.3 110.151 129.198 112.787 129.072 112.885L129.065 112.872Z" fill="black"/>
<path d="M118.189 28.2993C118.427 28.3682 118.672 28.4069 118.919 28.4146H119.055C119.137 28.1883 119.18 27.9498 119.183 27.709C119.211 27.1662 119.248 26.6235 119.289 26.0942C118.26 26.501 117.262 26.9829 116.303 27.536C116.899 27.865 117.532 28.1213 118.189 28.2993Z" fill="black"/>
<path d="M128.692 8.25006C128.846 8.25064 128.998 8.27 129.147 8.30773C129.147 6.65224 129.147 4.99562 129.147 3.33787C129.147 2.42192 128.577 1.79433 127.79 1.78076C126.894 1.78076 126.318 2.34729 126.297 3.31073C126.297 4.19275 126.27 5.07138 126.27 5.95341V9.00656L128.034 8.3654C128.245 8.28716 128.468 8.24807 128.692 8.25006Z" fill="black"/>
<path d="M128.865 13.5254C128.033 14.1439 127.168 14.7169 126.274 15.242V20.2389C126.274 24.6558 126.274 29.0727 126.274 33.4896C126.426 33.4896 126.589 33.4896 126.786 33.4896H127.885C127.861 32.7128 127.844 31.9325 127.827 31.1726C127.8 29.8903 127.773 28.5639 127.712 27.2748C127.666 26.6642 127.584 26.057 127.464 25.4565C127.41 25.1376 127.352 24.8085 127.301 24.4727C127.241 24.0643 127.315 23.6473 127.511 23.2842C127.707 22.921 128.016 22.631 128.39 22.4576L128.818 22.2574C128.927 22.2098 129.041 22.1723 129.157 22.1455C129.157 21.2567 129.157 20.3679 129.157 19.4791C129.157 17.43 129.157 15.381 129.157 13.332L129.052 13.4067C128.977 13.4474 128.92 13.4847 128.865 13.5254Z" fill="black"/>
<path d="M171.959 46.0654C171.772 46.0654 171.586 46.0654 171.399 46.0654H157.168C154.637 46.0654 152.107 46.0892 149.576 46.0926H140.82C141.351 46.8092 141.65 47.6708 141.678 48.5622C141.678 48.6878 141.678 48.8133 141.678 48.9388C143.035 48.9388 144.4 48.9388 145.773 48.9388H169.231C170.13 48.9388 171.029 48.9388 171.928 48.9218C172.126 48.9323 172.324 48.9015 172.51 48.8314C172.695 48.7614 172.864 48.6535 173.006 48.5148C173.147 48.3761 173.258 48.2095 173.332 48.0255C173.406 47.8416 173.441 47.6443 173.435 47.4461C173.435 46.6761 172.834 46.1095 171.959 46.0654Z" fill="black"/>
<path d="M109.922 46.0892C106.642 46.0892 103.361 46.0688 100.084 46.0654C97.5908 46.0654 95.0974 46.0654 92.604 46.0824C89.5508 46.0824 86.4977 46.0824 83.4445 46.0824C83.1024 46.0642 82.766 46.1762 82.5029 46.3958C82.2399 46.6154 82.0697 46.9264 82.0265 47.2663C81.9877 47.4752 81.9968 47.6902 82.0531 47.895C82.1094 48.0999 82.2115 48.2893 82.3516 48.449C82.4917 48.6087 82.6662 48.7345 82.862 48.817C83.0578 48.8995 83.2697 48.9365 83.4818 48.9252C84.3605 48.9456 85.2425 48.9252 86.1245 48.9252H116.191C116.286 47.9686 116.388 47.0119 116.49 46.0688C114.292 46.0688 112.107 46.0892 109.922 46.0892Z" fill="black"/>
<path d="M107.375 13.661C107.713 12.8199 108.095 11.9967 108.518 11.1947C108.772 10.6926 109.01 10.2177 109.223 9.73935C109.223 9.68508 109.223 9.60366 109.24 9.5392C109.257 9.47475 109.24 9.34244 109.261 9.23389C95.7352 15.7642 86.4333 29.2151 85.4461 43.643H89.6628C90.6161 34.6124 94.2833 26.8642 100.675 20.4831C102.501 18.6493 104.506 17.0016 106.659 15.5641C106.828 15.0959 106.998 14.6414 107.171 14.2071L107.375 13.661Z" fill="black"/>
<path d="M118.318 9.08855C117.86 9.60759 117.389 10.1232 116.934 10.6219C116.934 10.6728 116.958 10.7271 116.968 10.7847C119.224 10.1427 121.532 9.69779 123.865 9.45493V5.22461C122.684 5.32638 121.521 5.47452 120.374 5.66901C120.067 6.87659 119.432 7.97562 118.539 8.8443L118.318 9.08855Z" fill="black"/>
<path d="M136.386 9.83786C136.386 9.47361 136.491 9.11699 136.687 8.80991C136.882 8.50283 137.162 8.25805 137.492 8.10434L137.831 7.95169C138.253 7.75443 138.732 7.71797 139.179 7.84915C139.626 7.98034 140.009 8.27014 140.257 8.66409C140.376 8.85067 140.518 9.05082 140.667 9.26115C141.039 9.75093 141.362 10.2759 141.631 10.8284C141.765 10.5839 141.95 10.371 142.174 10.2042L142.411 10.0278C142.741 9.78285 143.14 9.65078 143.551 9.65128C143.647 9.6513 143.744 9.6581 143.839 9.67163C144.342 9.74962 144.794 10.0242 145.095 10.4349C145.203 10.5808 145.335 10.7402 145.475 10.9099C145.973 11.4567 146.376 12.0827 146.669 12.7621C146.886 13.348 147.06 13.9489 147.191 14.5601C149.956 16.197 152.503 18.1781 154.77 20.4561C161.188 26.8677 164.737 34.6668 165.798 43.6295H170.052C168.848 32.5771 164.262 23.2751 156.059 15.8729C149.121 9.60378 140.929 6.06891 131.583 5.16992V9.42059C133.191 9.61325 134.788 9.89411 136.366 10.2619C136.366 10.1601 136.366 10.0719 136.366 9.99391C136.366 9.91588 136.386 9.88196 136.386 9.83786Z" fill="black"/>
<path d="M123.526 88.6232C122.918 88.2559 122.253 87.9923 121.558 87.8429C121.05 87.7365 120.577 87.5057 120.18 87.1712C119.783 86.8367 119.476 86.4089 119.285 85.9262C119.075 85.4727 118.83 85.036 118.552 84.6202C111.763 82.9836 105.565 79.4862 100.654 74.521C94.2425 68.1026 90.6839 60.3102 89.6221 51.3306H85.3511C86.6436 62.8036 91.4913 72.3634 100.223 79.864C107.008 85.6955 114.909 88.976 123.882 89.8444V88.959C123.773 88.8375 123.653 88.7252 123.526 88.6232Z" fill="black"/>
<path d="M136.434 86.9673C136.282 87.2104 136.078 87.4162 135.836 87.5695C135.594 87.7228 135.321 87.8196 135.036 87.8527C133.577 88.0223 132.468 88.9145 131.701 89.8135C142.845 88.5854 152.178 83.8904 159.604 75.5383C165.727 68.6517 169.14 60.5473 170.035 51.3403H165.781C165.595 52.5718 165.459 53.7625 165.228 54.9363C164.237 60.0079 162.217 64.8225 159.292 69.0826C156.38 73.3556 152.632 76.9933 148.273 79.7754C145.124 81.8043 141.686 83.3449 138.076 84.345C137.753 84.7826 137.448 85.2914 137.095 85.8783C136.892 86.2209 136.681 86.5771 136.434 86.9673Z" fill="black"/>
<path d="M142.9 70.1106C144.861 68.7746 146.644 67.1934 148.205 65.4054C151.754 61.365 153.854 56.6564 154.726 51.2964C153.406 51.2964 152.188 51.2964 150.974 51.2964C150.539 51.2964 150.376 51.4049 150.295 51.8561C149.099 57.6142 146.293 62.2007 141.879 65.6157C142.578 66.8569 142.935 68.2619 142.913 69.6866L142.9 70.1106Z" fill="black"/>
<path d="M114.329 66.1993C109.58 62.8657 106.439 57.9038 104.908 51.3135H100.756C101.804 59.6045 107.005 66.8914 113.986 71.0267C113.946 70.2804 113.902 69.5205 113.854 68.7741C113.801 67.89 113.964 67.0063 114.329 66.1993Z" fill="black"/>
<path d="M145.627 31.1117C145.267 31.3408 144.893 31.5481 144.508 31.7325C147.188 34.5753 149.074 38.1294 150.166 42.3948C150.271 42.8053 150.343 43.2259 150.427 43.6262H154.641C154.023 38.1984 151.496 33.1709 147.883 29.2153C147.221 29.9468 146.462 30.5848 145.627 31.1117Z" fill="black"/>
<path d="M119.933 21.3721C117.376 22.1358 114.948 23.2794 112.731 24.7645C113.805 25.8292 115.004 26.7589 116.303 27.5327C117.257 26.979 118.25 26.496 119.275 26.0875C119.38 24.7102 119.512 23.4007 119.638 22.2473C119.675 21.9382 119.775 21.6402 119.933 21.3721Z" fill="black"/>
<path d="M109.729 31.2102C109.736 31.2015 109.744 31.1935 109.753 31.1865C108.966 30.5884 108.24 29.9146 107.585 29.1748C103.879 33.17 101.499 38.2127 100.77 43.6128C100.819 43.6329 100.87 43.6476 100.922 43.6569C102.12 43.6569 103.321 43.6569 104.521 43.6739C104.932 43.6739 105.044 43.5416 105.122 43.1515C105.773 39.7463 107.185 36.5319 109.25 33.7478C109.21 33.4831 109.166 33.2151 109.122 32.9438C109.069 32.6271 109.097 32.3023 109.204 31.9994C109.31 31.6964 109.49 31.4251 109.729 31.2102Z" fill="black"/>
<path d="M122.281 21.5789C123.054 25.202 122.735 28.3637 122.532 31.5594C122.413 33.4489 124.197 35.3114 126.073 35.3962C126.955 35.4369 127.841 35.3724 128.723 35.4267C129.605 35.481 129.856 35.0637 129.822 34.2428C129.737 31.8884 129.734 29.5341 129.622 27.1832C129.53 26.1793 129.387 25.1807 129.194 24.1911L129.618 23.9943C129.937 24.4828 130.405 24.9306 130.545 25.4666C130.816 26.5149 130.884 27.614 131.07 28.6894C131.168 29.5844 131.336 30.4703 131.572 31.3389C131.654 31.5865 132.431 31.8681 132.706 31.7426C133.823 31.206 134.904 30.5975 135.942 29.9208C136.122 29.8123 136.159 29.4052 136.179 29.127C136.258 27.4669 135.976 25.8094 135.352 24.2691C135.044 23.3016 134.791 22.3173 134.595 21.3211C134.307 20.1338 133.995 18.9464 133.757 17.7455C133.684 17.1833 133.655 16.6162 133.669 16.0493L134.008 15.9713C134.571 17.3893 135.121 18.8141 135.704 20.2254C136.122 21.2431 136.556 22.2608 137.034 23.231C137.109 23.3871 137.451 23.4142 137.672 23.5024L138.052 23.3362C138.137 24.6219 138.181 25.911 138.323 27.19C138.371 27.6445 138.663 28.072 138.832 28.5096C139.269 28.3437 139.683 28.1225 140.064 27.8515C141.512 26.5251 141.546 24.873 141.122 23.1021C140.444 20.2254 139.826 17.3351 139.175 14.4481C138.893 13.1862 138.581 11.931 138.306 10.6656C138.277 10.3848 138.277 10.1017 138.306 9.8209L138.646 9.66824C139.114 10.4078 139.731 11.0897 140.003 11.8937C140.847 14.2683 141.492 16.6939 142.343 19.0516C143.006 20.8526 143.328 22.761 143.293 24.6796C143.293 25.0663 143.551 25.4598 143.693 25.8534L144.053 25.8907C144.209 25.3954 144.392 24.9069 144.514 24.4082C144.528 24.2253 144.528 24.0416 144.514 23.8586C144.825 21.4774 144.277 19.0633 142.968 17.0501C142.54 16.392 142.452 15.5133 142.208 14.7365L142.527 14.4617L144.073 15.4794C143.799 14.1496 143.548 12.9385 143.293 11.724L143.531 11.551C143.985 12.1752 144.592 12.7384 144.86 13.4338C145.214 14.4709 145.472 15.5383 145.631 16.6227C145.834 17.7489 146.058 18.7734 146.811 19.7742C147.456 20.6223 147.622 21.8877 147.829 23.0037C148.344 25.928 146.937 28.0143 144.603 29.5138C143.517 30.2126 142.228 30.6163 140.952 31.21C143.005 32.5058 141.631 34.2088 141.254 35.5624C140.84 37.0177 139.796 38.3679 138.785 39.562C138.106 40.3559 137.058 40.8715 136.105 41.3837C134.829 42.0622 134.605 43.0596 135.684 44.0637C136.763 45.0679 137.821 45.9194 138.903 46.8353C139.174 47.0707 139.392 47.3606 139.543 47.686C139.694 48.0114 139.774 48.365 139.779 48.7237C139.784 49.0823 139.713 49.438 139.571 49.7673C139.429 50.0967 139.219 50.3923 138.954 50.6348C138.524 51.0925 138.133 51.5862 137.787 52.1105C137.044 53.1282 136.02 53.5014 134.802 53.5116C132.858 53.5285 132.6 53.9153 133.17 55.8048C133.642 57.3823 134.052 58.9801 134.565 60.5542C135.114 62.23 136.342 63.4004 137.801 64.2858C139.894 65.5342 140.986 67.2474 140.997 69.7136C140.995 71.9652 140.752 74.2101 140.274 76.4102C139.714 79.0936 138.198 81.0849 136.631 83.1407C136.013 83.9481 135.531 84.8607 134.826 85.9937C132.79 86.2278 131.013 87.4423 129.642 89.4099C129.038 90.2716 127.461 90.3801 126.637 89.3522C126.016 88.5788 125.453 87.7035 124.672 87.1268C123.879 86.6081 122.997 86.2391 122.07 86.0378C121.839 86.004 121.621 85.9065 121.441 85.7562C121.261 85.6059 121.127 85.4086 121.053 85.1864C120.499 84.0555 119.822 82.9894 119.034 82.0077C117.677 80.1995 116.422 78.3473 116.239 76.0133C116.052 73.5776 115.95 71.1317 115.798 68.6925C115.72 67.4543 116.29 66.4977 116.989 65.5444C117.324 65.0937 117.514 64.5519 117.535 63.9907C117.511 62.42 117.195 60.8459 117.267 59.282C117.399 56.368 117.701 53.4607 117.969 50.5534C118.176 48.3144 118.434 46.0754 118.678 43.7686C116.451 43.2899 114.447 42.0831 112.982 40.3389C112.382 39.6163 112.107 38.5545 111.886 37.6012C111.527 36.0577 111.337 34.4802 111.032 32.6619C111.88 32.896 112.477 33.0317 113.067 33.225C115.608 34.0867 118.156 34.9687 120.127 36.9024C120.154 36.9261 120.171 36.9736 120.198 36.9838C120.761 37.1399 121.324 37.2891 121.894 37.4418C121.674 36.9746 121.408 36.5303 121.1 36.1154C119.526 34.3581 117.419 33.4014 115.384 32.3057C113.881 31.5017 112.297 30.7655 110.974 29.7139C109.05 28.1772 107.3 26.4063 107.581 23.5737C107.648 22.9138 107.648 22.249 107.581 21.5891C107.324 19.0007 108.318 16.6905 109.203 14.3735C109.715 13.0165 110.468 11.7681 111.052 10.4451C111.221 10.0618 111.157 9.57665 111.245 9.14921C111.354 8.63356 111.584 8.01954 112.212 8.33164C113.002 8.72516 113.474 8.31129 114.013 7.93812C115.184 7.12734 116.341 6.29281 117.514 5.48881C117.867 5.29376 118.232 5.12262 118.607 4.97656C118.396 6.36744 117.609 7.08324 116.911 7.84992C115.414 9.54612 113.857 11.1541 112.439 12.9148C111.73 13.807 111.316 14.9502 110.814 15.9679C110.774 16.1202 110.773 16.2804 110.812 16.4331C110.852 16.5858 110.929 16.7258 111.038 16.8398C112.137 14.9536 113.226 13.0606 114.346 11.188C114.475 10.9675 114.777 10.8488 114.997 10.6826C115.089 10.945 115.133 11.2221 115.126 11.5001C114.834 12.7892 114.495 14.0648 114.132 15.4998L128.719 10.1805C129.133 11.2627 128.285 11.6087 127.746 12.009C125.008 14.0444 121.897 15.4353 118.814 16.8601C117.608 17.3727 116.435 17.9596 115.303 18.6174C113.817 19.5519 112.383 20.5642 111.004 21.6502C109.729 22.6475 109.308 24.1707 110.706 25.4734C112.775 27.4206 114.817 29.3848 117.721 30.1617C119.821 30.7248 121.005 29.9955 121.114 27.821C121.209 26.0332 121.382 24.2522 121.575 22.4711C121.582 22.2065 121.928 21.9894 122.281 21.5789Z" fill="black"/>
<mask id="mask0_294_674" style="mask-type:luminance" maskUnits="userSpaceOnUse" x="66" y="74" width="35" height="38">
<path d="M100.233 79.8636C100.233 79.8636 95.2501 75.4196 95.284 74.9141C95.3179 74.4086 90.9519 77.2582 90.9519 77.2582L85.351 89.1723C85.351 89.1723 72.9688 99.397 72.4599 99.8584C71.9511 100.32 67.4324 107.098 67.4324 107.098L66.3129 109.856L68.4976 111.81H75.564L82.4573 103.536L91.1487 101.008C91.1487 101.008 97.2821 96.7001 97.4551 96.4694C97.6281 96.2387 99.6941 90.9533 99.8671 90.3224C100.04 89.6914 100.233 79.8636 100.233 79.8636Z" fill="white"/>
</mask>
<g mask="url(#mask0_294_674)">
<path d="M135.175 43.6255C134.836 43.6255 134.724 43.8426 134.795 44.1615C134.795 44.2056 134.795 44.2531 134.822 44.3345C132.268 46.3971 129.713 48.48 127.206 50.6376C126.972 50.166 126.711 50.0201 126.43 50.183C126.148 50.3458 126.148 50.6376 126.453 51.0514L117.294 59.2644C117.199 58.9252 117.1 58.586 116.663 58.6097C116.553 58.6036 116.445 58.6335 116.353 58.6947C116.262 58.7559 116.193 58.8452 116.157 58.9489C116.028 59.3051 116.208 59.5392 116.514 59.7529L105.96 69.7401C105.811 69.4179 105.705 69.0922 105.325 69.0617C105.225 69.0456 105.123 69.0499 105.024 69.0743C104.926 69.0988 104.833 69.143 104.752 69.2041C104.365 69.4959 104.413 69.9437 104.881 70.4627L104.067 71.2599L99.2599 76.0466C98.9681 76.3485 98.6798 76.6471 98.3846 76.9456C95.9285 79.4254 93.5199 81.9528 91.1283 84.4937C90.9233 84.7641 90.622 84.9451 90.287 84.9991C89.8416 85.0931 89.4452 85.3449 89.1709 85.7082C85.4155 89.7587 81.6635 93.8092 77.8165 97.7715C74.5598 101.12 71.2726 104.438 68.0023 107.769C67.7629 107.989 67.5882 108.27 67.4969 108.582C67.4056 108.894 67.4013 109.225 67.4844 109.539C67.5675 109.853 67.7349 110.139 67.9684 110.365C68.202 110.591 68.4929 110.749 68.8097 110.822C69.0946 110.908 69.3982 110.908 69.6836 110.825C69.9691 110.741 70.2241 110.576 70.4177 110.351C71.4083 109.333 72.3921 108.332 73.3759 107.321C76.5783 104.027 79.7604 100.716 82.8746 97.3543C83.8143 96.3365 84.7201 95.3018 85.6598 94.2536C86.4264 94.6844 87.0167 94.4096 87.5459 93.6701C87.524 94.5506 87.7739 95.4166 88.2617 96.1499C88.0889 96.4281 87.8724 96.6767 87.6206 96.8861C87.4188 97.0819 87.2755 97.33 87.2066 97.6026C87.1377 97.8751 87.146 98.1615 87.2304 98.4296C87.3555 98.9271 87.573 99.3966 87.8716 99.8137C88.2719 100.377 88.7943 100.519 89.2014 100.177C89.3204 100.082 89.4186 99.9641 89.4899 99.8299C89.5612 99.6957 89.6041 99.5482 89.6159 99.3967C89.6277 99.2451 89.6081 99.0928 89.5584 98.9492C89.5086 98.8056 89.4299 98.6738 89.3269 98.5619C89.0329 98.3092 88.7688 98.0235 88.5399 97.7104C88.4809 97.6381 88.4391 97.5534 88.4175 97.4626C88.396 97.3718 88.3953 97.2773 88.4156 97.1862C88.4358 97.0951 88.4765 97.0098 88.5344 96.9367C88.5924 96.8635 88.6662 96.8045 88.7502 96.764C89.184 97.1729 89.6992 97.4855 90.2622 97.6813C90.8252 97.8772 91.4232 97.9519 92.0171 97.9004C92.645 97.8415 93.2509 97.6384 93.7875 97.3069C94.3241 96.9755 94.777 96.5247 95.1109 95.9896C95.4447 95.4545 95.6506 94.8496 95.7124 94.2219C95.7742 93.5942 95.6903 92.9608 95.4672 92.3708C94.7887 90.5627 93.3707 89.7485 90.8298 89.7485C90.9298 89.5321 90.9785 89.2955 90.9721 89.0572C90.9656 88.8188 90.9041 88.5852 90.7924 88.3746C91.0163 88.1439 91.2572 87.903 91.4913 87.6554C91.7802 87.3465 91.9498 86.9448 91.9696 86.5223C91.9818 86.3385 92.0616 86.1657 92.1935 86.0372C95.1517 82.7737 107.765 69.6587 109.084 68.4443C111.842 65.8966 114.661 63.4099 117.297 60.7401C120.35 57.6564 123.719 54.9527 126.881 52.0115C127.844 51.1159 128.794 50.2033 129.808 49.3688C131.505 47.9576 133.245 46.5667 134.975 45.1792C135.314 44.9078 135.586 44.6466 135.542 44.1615C135.518 43.863 135.501 43.6289 135.175 43.6255ZM89.4219 91.594C89.7499 91.9529 90.0473 92.3387 90.3107 92.7474L89.9715 93.3173L88.5704 93.1714C88.6508 92.5588 88.9539 91.9973 89.4219 91.594ZM88.5094 93.8194L89.8426 93.9483C89.9883 94.1456 90.0721 94.3817 90.0834 94.6268L88.9843 95.5427C88.6248 95.0419 88.4519 94.4309 88.4958 93.816L88.5094 93.8194ZM90.9553 96.9166C90.3831 96.8162 89.8605 96.5286 89.4694 96.0991C89.791 95.7415 90.1543 95.4237 90.5516 95.1526L91.152 95.4918C91.125 95.971 91.0546 96.4467 90.9417 96.9132L90.9553 96.9166ZM93.8693 96.0584L92.9873 94.9287L93.3028 94.3486C93.7763 94.3587 94.2481 94.4064 94.7141 94.4911C94.6397 95.1033 94.3323 95.6634 93.8558 96.055L93.8693 96.0584ZM94.8531 93.8194C94.3451 93.8065 93.8395 93.744 93.3435 93.6328C93.2859 93.4089 93.235 93.2189 93.1807 93.0052L94.3205 92.0994C94.6638 92.6062 94.848 93.2039 94.8498 93.816L94.8531 93.8194ZM92.319 90.7187C92.9187 90.8493 93.4712 91.1414 93.9168 91.5634L92.7634 92.4997L92.1494 92.1605C92.1935 91.655 92.2478 91.2004 92.3055 90.7153L92.319 90.7187ZM92.4988 95.3901C92.7702 95.7293 93.0586 96.0685 93.3876 96.4824C92.8979 96.8391 92.2946 97.0044 91.6914 96.9472C91.6796 96.4782 91.7205 96.0093 91.8136 95.5495C92.0221 95.4547 92.2464 95.3995 92.4751 95.3867L92.4988 95.3901ZM91.6541 90.678C91.6032 91.1699 91.5523 91.6245 91.5049 92.0859L90.8264 92.2928L89.9104 91.153C90.4162 90.8019 91.0263 90.6332 91.6405 90.6746L91.6541 90.678ZM105.224 70.0489C105.03 70.0048 104.884 69.9233 104.905 69.6859C104.909 69.6318 104.931 69.5806 104.967 69.5401C105.003 69.4997 105.052 69.4722 105.105 69.462C105.148 69.4475 105.194 69.4429 105.239 69.4484C105.284 69.4539 105.327 69.4694 105.366 69.4938C105.404 69.5182 105.437 69.5508 105.461 69.5893C105.485 69.6278 105.5 69.6712 105.505 69.7164C105.499 69.7943 105.468 69.8682 105.416 69.9273C105.365 69.9864 105.297 70.0278 105.22 70.0455L105.224 70.0489ZM116.534 59.3289C116.371 59.2068 116.459 59.0575 116.612 58.9455C116.68 58.9348 116.75 58.9516 116.806 58.9923C116.862 59.0331 116.9 59.0943 116.91 59.1627C116.843 59.3662 116.704 59.4544 116.531 59.3255L116.534 59.3289ZM126.491 50.5731C126.728 50.4001 126.728 50.4001 126.796 50.702C126.65 50.7461 126.528 50.7665 126.487 50.5697L126.491 50.5731ZM135.267 44.036C135.267 44.1106 135.196 44.131 135.131 44.1208C135.102 44.1174 135.075 44.1027 135.057 44.0798C135.039 44.057 135.03 44.0278 135.033 43.9986C135.032 43.9829 135.035 43.9673 135.041 43.9527C135.047 43.938 135.055 43.9248 135.066 43.9136C135.078 43.9025 135.091 43.8938 135.105 43.888C135.12 43.8822 135.136 43.8794 135.151 43.8799C135.25 43.8765 135.274 43.9512 135.263 44.0326L135.267 44.036Z" fill="black"/>
</g>
<mask id="mask1_294_674" style="mask-type:luminance" maskUnits="userSpaceOnUse" x="155" y="0" width="24" height="22">
<path d="M161.222 21.3721C161.222 21.3721 157.49 16.5583 155.733 15.5711C153.976 14.5839 157.948 11.7207 157.948 11.7207C157.948 11.7207 163.576 5.00039 164.733 4.41011C165.89 3.81984 178.279 0 178.279 0L178.859 1.14663L171.335 12.4671L161.222 21.3721Z" fill="white"/>
</mask>
<g mask="url(#mask1_294_674)">
<path d="M177.906 0.895508C177.567 0.895508 177.455 1.11262 177.526 1.43151C177.526 1.47561 177.526 1.5231 177.553 1.60452C174.999 3.6671 172.444 5.75003 169.937 7.90759C169.703 7.43605 169.442 7.29017 169.16 7.45301C168.879 7.61584 168.879 7.90759 169.184 8.32146L160.025 16.5345C159.926 16.1952 159.831 15.856 159.394 15.8797C159.284 15.8737 159.175 15.9035 159.084 15.9647C158.993 16.0259 158.924 16.1152 158.888 16.219C158.759 16.5752 158.939 16.8092 159.244 17.023L148.691 27.0068C148.541 26.6675 148.436 26.3588 148.056 26.3283C147.956 26.3122 147.854 26.3165 147.755 26.341C147.656 26.3655 147.564 26.4096 147.483 26.4708C147.096 26.7625 147.144 27.2103 147.612 27.7294L146.798 28.496L142.004 33.3166C141.712 33.6186 141.424 33.9171 141.129 34.2156C138.673 36.6955 136.264 39.2228 133.873 41.7637C133.668 42.0341 133.366 42.2151 133.031 42.2692C132.586 42.3631 132.189 42.6149 131.915 42.9782C128.16 47.0287 124.408 51.0792 120.561 55.0415C117.304 58.3898 114.017 61.7076 110.747 65.0389C110.507 65.2588 110.332 65.54 110.241 65.852C110.15 66.164 110.146 66.495 110.229 66.8092C110.312 67.1235 110.479 67.4091 110.713 67.6352C110.946 67.8613 111.237 68.0193 111.554 68.0921C111.839 68.1775 112.143 68.1785 112.428 68.0948C112.713 68.0111 112.968 67.8463 113.162 67.6205C114.153 66.6028 115.136 65.6021 116.12 64.5911C119.323 61.2971 122.505 57.9895 125.619 54.6243C126.559 53.6066 127.464 52.5888 128.404 51.5236C129.171 51.9545 129.761 51.6797 130.29 50.9401C130.268 51.8217 130.518 52.6887 131.006 53.4234C130.832 53.6997 130.616 53.947 130.365 54.1561C130.163 54.352 130.02 54.6 129.951 54.8726C129.882 55.1451 129.89 55.4315 129.975 55.6997C130.1 56.1971 130.317 56.6667 130.616 57.0838C131.016 57.6469 131.539 57.7894 131.946 57.4467C132.065 57.3522 132.163 57.2341 132.234 57.0999C132.306 56.9657 132.348 56.8182 132.36 56.6667C132.372 56.5152 132.352 56.3629 132.303 56.2192C132.253 56.0756 132.174 55.9438 132.071 55.832C131.777 55.5792 131.513 55.2935 131.284 54.9805C131.225 54.9084 131.182 54.8237 131.16 54.7328C131.138 54.6418 131.138 54.5471 131.158 54.4558C131.178 54.3645 131.219 54.279 131.277 54.2059C131.336 54.1328 131.41 54.074 131.495 54.034C131.928 54.4428 132.444 54.7556 133.007 54.952C133.569 55.1484 134.167 55.224 134.761 55.1738C135.389 55.1137 135.995 54.9098 136.531 54.5778C137.067 54.2458 137.52 53.7948 137.853 53.2596C138.187 52.7245 138.393 52.1197 138.455 51.4921C138.517 50.8645 138.434 50.231 138.211 49.6408C137.533 47.8327 136.115 47.0185 133.574 47.0185C133.673 46.8019 133.722 46.5654 133.715 46.3272C133.709 46.089 133.648 45.8555 133.537 45.6446C133.761 45.4139 134.002 45.1731 134.236 44.9254C134.525 44.6165 134.694 44.2149 134.714 43.7924C134.726 43.6086 134.806 43.4358 134.938 43.3072C137.896 40.0438 150.509 26.9288 151.829 25.7143C154.587 23.1666 157.406 20.68 160.042 18.0101C163.095 14.9265 166.463 12.2431 169.625 9.28151C170.578 8.38253 171.518 7.46319 172.536 6.63544C174.232 5.22421 175.972 3.83332 177.702 2.44583C178.042 2.17444 178.313 1.91323 178.269 1.42811C178.249 1.13298 178.232 0.8989 177.906 0.895508ZM132.139 48.8504C132.467 49.2093 132.764 49.5952 133.028 50.0038L132.689 50.5738L131.288 50.4279C131.368 49.8153 131.671 49.2537 132.139 48.8504ZM131.227 51.0758L132.56 51.2047C132.705 51.4021 132.789 51.6382 132.801 51.8832L131.698 52.7992C131.349 52.2992 131.182 51.6943 131.227 51.086V51.0758ZM133.672 54.1731C133.1 54.0727 132.578 53.7851 132.187 53.3555C132.508 52.9979 132.871 52.6802 133.269 52.409L133.869 52.7483C133.847 53.2316 133.782 53.7119 133.672 54.1833V54.1731ZM136.587 53.3148L135.701 52.1851C135.82 51.9714 135.915 51.7984 136.017 51.605C136.491 51.615 136.964 51.6627 137.431 51.7475C137.361 52.3641 137.055 52.9296 136.576 53.325L136.587 53.3148ZM137.57 51.0758C137.062 51.063 136.557 51.0005 136.061 50.8892C136.003 50.6653 135.952 50.4754 135.898 50.2617L137.038 49.3559C137.385 49.8661 137.57 50.4689 137.57 51.086V51.0758ZM135.036 47.9752C135.636 48.1058 136.188 48.3979 136.634 48.8199L135.481 49.7596L134.867 49.4203C134.924 48.925 134.979 48.4705 135.036 47.9854V47.9752ZM135.216 52.6465L136.105 53.7389C135.615 54.0955 135.012 54.2608 134.409 54.2036C134.397 53.7346 134.438 53.2658 134.531 52.806C134.749 52.7125 134.982 52.6618 135.219 52.6567L135.216 52.6465ZM134.371 47.9345C134.32 48.4264 134.269 48.8809 134.219 49.3423L133.54 49.5493L132.624 48.4094C133.136 48.0594 133.753 47.8953 134.371 47.9446V47.9345ZM147.941 27.3053C147.747 27.2612 147.602 27.1798 147.622 26.9423C147.626 26.8882 147.648 26.837 147.684 26.7966C147.72 26.7561 147.769 26.7287 147.822 26.7184C147.865 26.704 147.911 26.6993 147.956 26.7049C148.001 26.7104 148.045 26.7259 148.083 26.7502C148.121 26.7746 148.154 26.8073 148.178 26.8458C148.202 26.8843 148.217 26.9277 148.222 26.9729C148.219 27.0514 148.192 27.127 148.143 27.1886C148.094 27.2502 148.027 27.2946 147.951 27.3155L147.941 27.3053ZM159.251 16.5853C159.088 16.4632 159.176 16.3139 159.329 16.202C159.397 16.1913 159.467 16.2081 159.523 16.2488C159.579 16.2895 159.617 16.3508 159.628 16.4191C159.573 16.6227 159.434 16.7244 159.261 16.5955L159.251 16.5853ZM169.208 7.82957C169.445 7.65655 169.445 7.65655 169.513 7.95848C169.381 8.01615 169.259 8.0365 169.218 7.83974L169.208 7.82957ZM177.994 1.3026C177.994 1.37723 177.923 1.39758 177.858 1.38741C177.829 1.38399 177.803 1.36928 177.784 1.34645C177.766 1.32361 177.757 1.29446 177.76 1.26528C177.76 1.24956 177.762 1.23391 177.768 1.21929C177.774 1.20467 177.783 1.1914 177.794 1.18028C177.805 1.16916 177.818 1.16043 177.833 1.15463C177.847 1.14883 177.863 1.14608 177.879 1.14655C177.981 1.14655 178.004 1.22118 177.994 1.3026Z" fill="black"/>
</g>
<mask id="mask2_294_674" style="mask-type:luminance" maskUnits="userSpaceOnUse" x="151" y="73" width="39" height="43">
<path d="M157.314 73.415C157.314 73.415 155.679 75.5828 152.269 78.5647C148.86 81.5466 153.403 94.9873 154.39 95.6658C155.377 96.3442 163.295 108.855 163.912 109.276C164.53 109.697 169.7 114.65 169.7 114.65C169.7 114.65 171.705 116.007 173.855 115.155C176.006 114.304 178.31 111.25 179.283 110.494C181.213 108.981 189.487 102.749 189.487 102.749L180.24 94.3088L157.314 73.415Z" fill="white"/>
</mask>
<g mask="url(#mask2_294_674)">
<path fill-rule="evenodd" clip-rule="evenodd" d="M173.743 114.544C178.306 107.226 185.277 102.725 185.277 102.725C173.625 90.0948 165.113 82.3737 165.113 82.3907C161.656 83.9342 155.75 71.5791 155.75 71.5791L153.25 77.6854C155.796 81.6613 155.804 85.4733 155.808 87.4663C155.81 88.1635 155.811 88.6381 155.92 88.8193C156.34 89.5181 160.177 90.3764 160.177 90.3764C160.177 90.3764 169.194 107.019 171.42 111.209C173.645 115.399 173.743 114.544 173.743 114.544ZM183.846 102.556C181.882 103.987 177.187 107.692 173.553 113.072C173.265 112.628 172.841 111.902 172.21 110.762C170.383 107.321 163.904 95.3526 161.702 91.2857C161.251 90.4523 160.979 89.9507 160.964 89.9224C160.918 89.8385 160.86 89.7618 160.791 89.6951C160.666 89.5733 160.51 89.4887 160.34 89.4509C158.81 89.1082 157.219 88.6028 156.724 88.3144V87.4595L156.724 87.4429C156.717 85.527 156.703 81.6366 154.278 77.5978L155.828 73.8187C157.015 76.0475 159.156 79.7351 161.293 81.7976C162.586 83.046 163.78 83.5888 164.852 83.4226C165.442 83.9688 166.697 85.1493 168.465 86.8455C171.949 90.1972 177.383 95.6013 183.846 102.556Z" fill="black"/>
<path d="M151.014 64.3911L149.467 65.9889L141.97 58.7495L138.313 62.5388L148.789 72.6482C151.082 74.86 152.5 76.3357 153.474 77.9878L157.633 75.6131C157.633 75.6131 154.325 67.5867 151.014 64.3911Z" fill="black"/>
<path d="M146.618 76.7458C150.393 80.3892 154.081 77.5057 154.125 77.4751L153.341 76.4913C153.216 76.5863 149.976 79.2426 146.896 76.0164C145.878 74.9376 145.4 73.8656 145.488 72.8276C145.624 71.2806 147.33 69.8287 147.344 69.8185L146.601 68.8008C146.526 68.8551 144.772 70.1577 144.565 72.2712C144.436 73.6858 145.023 75.0937 146.312 76.4506C146.414 76.5558 146.523 76.6677 146.618 76.7458Z" fill="black"/>
<path d="M148.979 76.98C148.979 76.98 150.617 75.3483 148.406 73.2144C148.377 72.8522 148.371 72.4885 148.389 72.1255L151.357 74.9921L150.315 75.5925C150.315 75.5925 150.383 76.729 148.979 76.98Z" fill="#464548"/>
<path d="M181.424 104.805C181.264 104.625 165.503 86.9337 162.121 84.4233C158.674 81.8654 156.062 76.4919 155.954 76.2646L156.371 76.0645C156.398 76.1187 159.044 81.5601 162.399 84.0502C165.819 86.5911 181.122 103.767 181.77 104.496L181.424 104.805Z" fill="black"/>
<path d="M178.377 107.719C178.343 107.675 174.893 103.349 172.817 98.6644C170.89 94.312 166.711 90.8042 162.284 87.0895L161.341 86.2991C156.591 82.2995 155.282 76.5053 155.268 76.4612L155.72 76.3628C155.72 76.4205 157.015 82.062 161.643 85.9599L162.579 86.7469C167.047 90.4989 171.267 94.0406 173.238 98.488C175.29 103.119 178.7 107.4 178.734 107.441L178.377 107.719Z" fill="black"/>
<path d="M182.852 103.851C182.767 103.753 174.052 93.9725 168.387 88.6566C163.563 84.1244 163.858 83.3814 163.953 83.1372C163.983 83.06 164.036 82.9935 164.104 82.9464C164.172 82.8993 164.253 82.8736 164.336 82.8726V83.3373C164.374 83.3373 164.384 83.3136 164.384 83.3068C164.36 83.3814 164.275 84.1583 168.706 88.3174C174.385 93.6502 183.113 103.444 183.201 103.542L182.852 103.851Z" fill="black"/>
<path d="M179.66 106.64C179.599 106.573 174.015 99.4655 174.571 98.9125C174.775 98.7056 175.053 98.9498 175.25 99.1093C177.051 100.687 180.738 105.246 180.895 105.439L180.535 105.731C180.501 105.687 177.217 101.63 175.334 99.8217C176.352 101.491 179.195 105.378 180.016 106.338L179.66 106.64Z" fill="black"/>
<path d="M176.104 110.202C175.212 109.965 173.34 106.223 170.358 100.137C169.764 98.9224 169.167 97.7079 168.594 96.5579C166.297 91.9646 163.787 90.326 162.287 89.349C161.981 89.1606 161.686 88.9533 161.405 88.7282C161.127 88.4907 160.856 88.294 160.594 88.104C159.862 87.5748 159.166 87.0863 158.712 85.8413C158.142 84.2977 154.101 77.7267 154.061 77.6588L154.458 77.418C154.624 77.6894 158.559 84.0942 159.146 85.6818C159.553 86.781 160.133 87.1982 160.866 87.7173C161.137 87.914 161.415 88.1176 161.707 88.3686C161.972 88.5794 162.25 88.7743 162.538 88.9521C164.078 89.9698 166.657 91.6321 169.008 96.3407C169.584 97.4908 170.178 98.7154 170.775 99.9231C172.875 104.211 175.49 109.547 176.223 109.744L176.104 110.202Z" fill="black"/>
<path d="M174.072 112.848C174.042 112.783 171.23 106.338 170.039 104.462C169.394 103.444 168.607 101.314 167.844 99.2477C167.166 97.392 166.453 95.4719 165.931 94.6238C164.804 92.7953 161.388 89.844 160.7 89.5624C160.011 89.2808 158.169 88.3309 157.891 87.8492C157.67 87.4625 155.743 82.3298 155.516 81.7429L155.95 81.5801C156.805 83.8632 158.135 87.3472 158.288 87.6185C158.44 87.8899 159.984 88.7754 160.869 89.1349C161.755 89.4945 165.191 92.5443 166.317 94.383C166.864 95.2684 167.549 97.124 168.275 99.0882C169.028 101.124 169.808 103.244 170.422 104.214C171.633 106.121 174.374 112.397 174.493 112.661L174.072 112.848Z" fill="black"/>
<path d="M166.65 101.324C166.178 99.4992 165.147 95.8456 164.614 95.0891C163.956 94.1426 162.019 92.5889 161.999 92.572L162.287 92.209C162.369 92.2734 164.299 93.8204 165.001 94.8279C165.703 95.8355 167.037 100.989 167.094 101.209L166.65 101.324Z" fill="black"/>
</g>
<mask id="mask3_294_674" style="mask-type:luminance" maskUnits="userSpaceOnUse" x="80" y="0" width="22" height="19">
<path d="M101.485 14.4077C101.485 14.4077 97.3737 17.5762 96.9293 18.3463C96.4849 19.1163 84.4894 6.57805 84.4894 6.57805L80.6492 0.678678C80.6492 0.678678 86.7827 -0.101573 87.1185 0.088401L101.485 14.4077Z" fill="white"/>
</mask>
<g mask="url(#mask3_294_674)">
<path d="M85.843 1.54006C85.7387 1.64383 85.6676 1.7762 85.6387 1.92041C85.6098 2.06462 85.6243 2.21417 85.6804 2.35013C85.7365 2.48608 85.8318 2.60231 85.954 2.6841C86.0763 2.76588 86.22 2.80954 86.3671 2.80954C86.5142 2.80954 86.658 2.76588 86.7802 2.6841C86.9025 2.60231 86.9977 2.48608 87.0538 2.35013C87.1099 2.21417 87.1245 2.06462 87.0955 1.92041C87.0666 1.7762 86.9955 1.64383 86.8912 1.54006C86.8225 1.47104 86.7408 1.41626 86.6509 1.37888C86.561 1.34151 86.4645 1.32227 86.3671 1.32227C86.2697 1.32227 86.1733 1.34151 86.0833 1.37888C85.9934 1.41626 85.9117 1.47104 85.843 1.54006Z" fill="#464548"/>
<path fill-rule="evenodd" clip-rule="evenodd" d="M82.7063 2.98751L84.9419 0.670898L144.827 58.461L142.592 60.7776L82.7063 2.98751ZM84.4805 2.20207L84.9516 1.71385L143.865 58.5664L143.394 59.0546L84.4805 2.20207Z" fill="black"/>
</g>
</svg>
