<svg xmlns="http://www.w3.org/2000/svg" width="138" height="55" viewBox="0 0 138 55" fill="none">
  <path d="M48.4551 0.00195312H5.81461C2.60446 0.00195312 0 2.60641 0 5.81656V48.457C0 51.6672 2.60446 54.2716 5.81461 54.2716H48.4551C51.6652 54.2716 54.2697 51.6672 54.2697 48.457V5.81656C54.2697 2.60641 51.6652 0.00195312 48.4551 0.00195312ZM15.3845 42.703C14.7182 43.8659 13.2282 44.2535 12.0774 43.5873C10.9145 42.921 10.5269 41.431 11.1931 40.2802L12.9254 37.2881C14.8757 36.6945 16.4747 37.1549 17.7224 38.6691L15.3845 42.703ZM32.2105 36.1737H10.1756C8.84305 36.1737 7.75281 35.0834 7.75281 33.7509C7.75281 32.4184 8.84305 31.3281 10.1756 31.3281H16.3536L24.276 17.6154L21.7927 13.3271C21.1264 12.1642 21.5262 10.6863 22.677 10.02C23.8399 9.35378 25.3178 9.75353 25.984 10.9043L27.0621 12.7699L28.1403 10.9043C28.8065 9.74142 30.2965 9.35378 31.4473 10.02C32.6103 10.6863 32.9979 12.1763 32.3316 13.3271L21.938 31.3281H29.4607C31.9077 31.3281 33.2765 34.1991 32.2105 36.1737ZM44.0941 36.1737H40.5811L42.9554 40.2802C43.6217 41.4431 43.2219 42.921 42.0711 43.5873C40.9082 44.2535 39.4303 43.8538 38.764 42.703C34.7786 35.8102 31.7986 30.6255 29.7999 27.1852C27.7769 23.6722 29.2184 20.1593 30.6599 18.9721C32.2468 21.7219 34.6211 25.8406 37.7949 31.3281H44.0941C45.4266 31.3281 46.5169 32.4184 46.5169 33.7509C46.5169 35.0955 45.4266 36.1737 44.0941 36.1737Z" fill="white"/>
  <path d="M120.639 24.8425L96.9068 1.38104L127.101 18.4712L120.639 24.8425ZM90.7148 0.00195312C89.3161 0.72288 88.3818 2.03751 88.3818 3.74399V50.5296C88.3818 52.2361 89.3178 53.5507 90.7148 54.2716L118.308 27.1308L90.7148 0.00195312ZM136.435 23.9198L130.102 20.3049L123.037 27.1427L130.102 33.9805L136.564 30.3657C138.499 28.8509 138.499 25.4362 136.435 23.9198ZM96.9085 52.9061L127.103 35.8159L120.641 29.4446L96.9085 52.9061Z" fill="white"/>
</svg>