<svg xmlns="http://www.w3.org/2000/svg" width="148" height="38" viewBox="0 0 148 38" fill="none">
  <path d="M23.3153 20.0507C23.2764 15.8771 26.8443 13.8466 27.0074 13.7521C24.9869 10.8994 21.855 10.5096 20.7544 10.4785C18.1239 10.2105 15.5724 12.0027 14.2325 12.0027C12.8658 12.0027 10.8023 10.5044 8.5784 10.5484C5.71666 10.5911 3.03943 12.1956 1.57111 14.687C-1.45921 19.7671 0.800786 27.2325 3.70403 31.3388C5.15634 33.3498 6.85334 35.5952 9.07459 35.5163C11.2476 35.4295 12.0594 34.1747 14.6818 34.1747C17.2801 34.1747 18.0423 35.5163 20.3077 35.4658C22.6399 35.4295 24.1082 33.4457 25.5098 31.4165C27.188 29.1115 27.862 26.8414 27.8887 26.7249C27.8339 26.7067 23.3594 25.0531 23.3153 20.0507Z" fill="black"/>
  <path d="M19.0358 7.77699C20.2046 6.36163 21.0043 4.436 20.7823 2.48193C19.0907 2.55448 16.9751 3.61504 15.7569 4.99932C14.679 6.21919 13.7161 8.21855 13.9649 10.0988C15.8652 10.2361 17.8162 9.1703 19.0358 7.77699Z" fill="black"/>
  <path d="M39.5065 0.965332V9.36425H42.5729C45.1037 9.36425 46.5692 7.82186 46.5692 5.13861C46.5692 2.49615 45.0919 0.965332 42.5729 0.965332H39.5065ZM40.8248 2.15276H42.4257C44.1856 2.15276 45.2273 3.25862 45.2273 5.15606C45.2273 7.08263 44.2032 8.17691 42.4257 8.17691H40.8248V2.15276Z" fill="black"/>
  <path d="M50.9069 9.48652C52.7785 9.48652 53.9262 8.24673 53.9262 6.19211C53.9262 4.14915 52.7727 2.90356 50.9069 2.90356C49.0353 2.90356 47.8817 4.14915 47.8817 6.19211C47.8817 8.24673 49.0293 9.48652 50.9069 9.48652ZM50.9069 8.37479C49.8063 8.37479 49.1883 7.57741 49.1883 6.19211C49.1883 4.81847 49.8063 4.0153 50.9069 4.0153C52.0016 4.0153 52.6255 4.81847 52.6255 6.19211C52.6255 7.57153 52.0016 8.37479 50.9069 8.37479Z" fill="black"/>
  <path d="M63.5493 3.02588H62.2839L61.1421 7.8626H61.042L59.7236 3.02588H58.5112L57.1928 7.8626H57.0986L55.9509 3.02588H54.6679L56.4335 9.3643H57.7343L59.0526 4.69633H59.1527L60.477 9.3643H61.7895L63.5493 3.02588Z" fill="black"/>
  <path d="M64.8559 9.36425H66.1213V5.65663C66.1213 4.66717 66.7157 4.05021 67.6515 4.05021C68.5873 4.05021 69.0347 4.55656 69.0347 5.57515V9.36425H70.3002V5.26088C70.3002 3.75339 69.5114 2.90356 68.0812 2.90356C67.116 2.90356 66.4803 3.32844 66.1684 4.03275H66.0742V3.02583H64.8559V9.36425Z" fill="black"/>
  <path d="M72.1427 9.36437H73.4075V0.552246H72.1427V9.36437Z" fill="black"/>
  <path d="M78.0163 9.48652C79.8881 9.48652 81.0358 8.24673 81.0358 6.19211C81.0358 4.14915 79.8821 2.90356 78.0163 2.90356C76.1445 2.90356 74.9908 4.14915 74.9908 6.19211C74.9908 8.24673 76.1385 9.48652 78.0163 9.48652ZM78.0163 8.37479C76.916 8.37479 76.2978 7.57741 76.2978 6.19211C76.2978 4.81847 76.916 4.0153 78.0163 4.0153C79.1106 4.0153 79.7348 4.81847 79.7348 6.19211C79.7348 7.57153 79.1106 8.37479 78.0163 8.37479Z" fill="black"/>
  <path d="M84.6553 8.41549C83.9666 8.41549 83.4663 8.08376 83.4663 7.51338C83.4663 6.95458 83.8667 6.65776 84.7492 6.59952L86.3145 6.50058V7.03027C86.3145 7.81598 85.6085 8.41549 84.6553 8.41549ZM84.3316 9.46898C85.1728 9.46898 85.8736 9.10814 86.2559 8.47372H86.3558V9.36425H87.5741V5.03388C87.5741 3.69515 86.6683 2.90356 85.0609 2.90356C83.6075 2.90356 82.5718 3.60201 82.4417 4.69041H83.6661C83.8073 4.24229 84.2963 3.98618 85.0023 3.98618C85.8676 3.98618 86.3145 4.36448 86.3145 5.03388V5.58094L84.5787 5.67996C83.0539 5.77302 82.1946 6.43077 82.1946 7.57153C82.1946 8.72984 83.0952 9.46898 84.3316 9.46898Z" fill="black"/>
  <path d="M91.718 9.4691C92.6005 9.4691 93.3478 9.05589 93.731 8.36324H93.8309V9.36437H95.0431V0.552246H93.7775V4.03287H93.6836C93.3367 3.33443 92.5945 2.92114 91.718 2.92114C90.0993 2.92114 89.0576 4.19005 89.0576 6.19223C89.0576 8.20028 90.0873 9.4691 91.718 9.4691ZM92.077 4.04454C93.136 4.04454 93.8016 4.87683 93.8016 6.19802C93.8016 7.52508 93.1421 8.34579 92.077 8.34579C91.006 8.34579 90.3645 7.53675 90.3645 6.19223C90.3645 4.85937 91.012 4.04454 92.077 4.04454Z" fill="black"/>
  <path d="M102.948 9.48652C104.82 9.48652 105.967 8.24673 105.967 6.19211C105.967 4.14915 104.814 2.90356 102.948 2.90356C101.076 2.90356 99.9224 4.14915 99.9224 6.19211C99.9224 8.24673 101.07 9.48652 102.948 9.48652ZM102.948 8.37479C101.848 8.37479 101.229 7.57741 101.229 6.19211C101.229 4.81847 101.848 4.0153 102.948 4.0153C104.042 4.0153 104.666 4.81847 104.666 6.19211C104.666 7.57153 104.042 8.37479 102.948 8.37479Z" fill="black"/>
  <path d="M107.491 9.36425H108.757V5.65663C108.757 4.66717 109.351 4.05021 110.287 4.05021C111.223 4.05021 111.671 4.55656 111.671 5.57515V9.36425H112.935V5.26088C112.935 3.75339 112.147 2.90356 110.717 2.90356C109.751 2.90356 109.116 3.32844 108.804 4.03275H108.71V3.02583H107.491V9.36425Z" fill="black"/>
  <path d="M118.462 1.44873V3.05515H117.444V4.10865H118.462V7.68821C118.462 8.91055 119.022 9.39945 120.428 9.39945C120.675 9.39945 120.91 9.37033 121.116 9.33542V8.29359C120.94 8.31105 120.828 8.32271 120.634 8.32271C120.004 8.32271 119.728 8.03169 119.728 7.36815V4.10865H121.116V3.05515H119.728V1.44873H118.462Z" fill="black"/>
  <path d="M122.664 9.36437H123.93V5.66254C123.93 4.70219 124.507 4.05612 125.543 4.05612C126.437 4.05612 126.914 4.56835 126.914 5.58106V9.36437H128.18V5.27258C128.18 3.76509 127.338 2.90947 125.972 2.90947C125.007 2.90947 124.33 3.33443 124.019 4.04454H123.918V0.552246H122.664V9.36437Z" fill="black"/>
  <path d="M132.593 3.96872C133.529 3.96872 134.141 4.6148 134.171 5.61006H130.934C131.005 4.62059 131.658 3.96872 132.593 3.96872ZM134.165 7.65302C133.93 8.14779 133.406 8.42136 132.641 8.42136C131.628 8.42136 130.975 7.71705 130.934 6.6054V6.53549H135.46V6.09896C135.46 4.10836 134.383 2.90356 132.599 2.90356C130.793 2.90356 129.645 4.18993 129.645 6.21544C129.645 8.24094 130.769 9.48652 132.605 9.48652C134.071 9.48652 135.095 8.788 135.384 7.65302H134.165Z" fill="black"/>
  <path d="M50.3673 33.205H53.192L46.9825 16.1973H44.0982L37.8887 33.205H40.6657L42.2389 28.6083H48.794L50.3673 33.205ZM45.4807 19.026H45.5523L48.1147 26.4867H42.9183L45.4807 19.026Z" fill="black"/>
  <path d="M61.9873 20.2751C60.1875 20.2751 58.5905 21.1474 57.8635 22.5264H57.8039V20.4048H55.313V37.4479H57.8992V31.1068H57.9469C58.7216 32.5212 60.1875 33.3345 62.0468 33.3345C65.3006 33.3345 67.4578 30.765 67.4578 26.8048C67.4578 22.8328 65.2887 20.2751 61.9873 20.2751ZM61.3318 31.1657C59.2699 31.1657 57.8873 29.4214 57.8754 26.8048C57.8873 24.2 59.2818 22.4439 61.3318 22.4439C63.4294 22.4439 64.8119 24.1646 64.8119 26.8048C64.8119 29.4567 63.4294 31.1657 61.3318 31.1657Z" fill="black"/>
  <path d="M76.6818 20.2751C74.8823 20.2751 73.2852 21.1474 72.5585 22.5264H72.4991V20.4048H70.0079V37.4479H72.5938V31.1068H72.6421C73.4169 32.5212 74.8823 33.3345 76.7421 33.3345C79.9957 33.3345 82.1525 30.765 82.1525 26.8048C82.1525 22.8328 79.9837 20.2751 76.6818 20.2751ZM76.0266 31.1657C73.9645 31.1657 72.5826 29.4214 72.5706 26.8048C72.5826 24.2 73.9766 22.4439 76.0266 22.4439C78.1239 22.4439 79.5067 24.1646 79.5067 26.8048C79.5067 29.4567 78.1239 31.1657 76.0266 31.1657Z" fill="black"/>
  <path d="M90.3163 28.4665C90.4825 31.5428 93.0568 33.4875 96.871 33.4875C100.947 33.4875 103.509 31.4956 103.509 28.3133C103.509 25.8263 102.044 24.4238 98.5155 23.5988L96.6204 23.1391C94.4043 22.5969 93.4985 21.8898 93.4985 20.6875C93.4985 19.1788 94.9166 18.1417 96.9898 18.1417C99.0639 18.1417 100.482 19.1671 100.637 20.8643H103.235C103.152 17.9295 100.661 15.9141 97.026 15.9141C93.3547 15.9141 90.7692 17.9295 90.7692 20.8643C90.7692 23.2333 92.2346 24.6949 95.3935 25.4492L97.6218 25.9796C99.8509 26.5218 100.792 27.3114 100.792 28.6315C100.792 30.1519 99.231 31.2599 97.0621 31.2599C94.7969 31.2599 93.1403 30.1519 92.9501 28.4665H90.3163Z" fill="black"/>
  <path d="M106.906 17.5291V20.405H105.118V22.4204H106.906V29.8341C106.906 32.3092 107.907 33.2875 110.493 33.2875C111.053 33.2875 111.661 33.2285 111.948 33.1578V31.1423C111.781 31.1659 111.34 31.2012 111.065 31.2012C109.981 31.2012 109.48 30.6827 109.48 29.5747V22.4204H111.959V20.405H109.48V17.5291H106.906Z" fill="black"/>
  <path d="M119.861 33.3582C123.603 33.3582 125.975 30.8359 125.975 26.805C125.975 22.7741 123.591 20.24 119.861 20.24C116.13 20.24 113.734 22.7858 113.734 26.805C113.734 30.8359 116.118 33.3582 119.861 33.3582ZM119.861 31.2367C117.668 31.2367 116.357 29.5983 116.357 26.805C116.357 24.0234 117.668 22.3615 119.861 22.3615C122.054 22.3615 123.353 24.0116 123.353 26.805C123.353 29.5983 122.054 31.2367 119.861 31.2367Z" fill="black"/>
  <path d="M128.537 33.2048H131.124V25.5672C131.124 23.7639 132.196 22.597 133.9 22.597C134.413 22.597 134.865 22.6678 135.08 22.7503V20.3576C134.877 20.3105 134.555 20.2751 134.174 20.2751C132.648 20.2751 131.457 21.1355 131.051 22.5617H131.004V20.4048H128.537V33.2048Z" fill="black"/>
  <path d="M142.064 22.3261C143.947 22.3261 145.222 23.6462 145.282 25.6382H138.715C138.858 23.6698 140.204 22.3261 142.064 22.3261ZM145.27 29.4569C144.912 30.5766 143.733 31.2838 142.23 31.2838C140.109 31.2838 138.703 29.8223 138.703 27.6064V27.4532H147.868V26.5575C147.868 22.6797 145.628 20.24 142.075 20.24C138.452 20.24 136.092 22.8447 136.092 26.8522C136.092 30.8595 138.429 33.3582 142.183 33.3582C145.091 33.3582 147.368 31.7553 147.737 29.4569H145.27Z" fill="black"/>
</svg>