<svg width="786" height="798" viewBox="0 0 786 798" fill="none" xmlns="http://www.w3.org/2000/svg">
<path d="M394.238 215.244C360.652 215.567 327.735 224.674 298.758 241.658C269.781 258.642 245.753 282.912 229.061 312.058C213.551 337.673 205.54 367.126 205.941 397.067C207.189 424.857 200.924 452.469 187.807 476.999C181.66 487.87 172.991 497.106 162.53 503.929C152.069 510.751 140.122 514.961 127.695 516.204C109.088 519.722 89.8936 518.475 71.8988 512.577C55.1176 506.943 40.0276 497.169 28.0247 484.158C16.0217 471.147 7.49299 455.319 3.22737 438.139C-2.54869 413.887 1.38753 388.337 14.195 366.947C27.0024 345.558 47.6656 330.024 71.7716 323.663C82.1153 321.168 92.6756 319.674 103.306 319.203C132.96 318.852 162.105 311.45 188.332 297.608C214.559 283.765 237.116 263.881 254.139 239.597C276.048 210.278 287.328 174.377 286.126 137.796C284.85 119.807 285.513 101.733 288.103 83.886C290.831 66.4599 298.356 50.1368 309.834 36.7438C321.311 23.3508 336.29 13.4163 353.093 8.05209C378.206 -1.67396 406.044 -1.67396 431.157 8.0521C444.248 13.0853 456.122 20.8415 465.99 30.8074C475.859 40.7732 483.499 52.7215 488.404 65.8614C496.912 86.2877 498.473 108.944 492.847 130.344C489.86 144.163 489.691 158.443 492.348 172.329C495.006 186.216 500.436 199.424 508.315 211.164C530.147 250.103 565.483 279.699 607.649 294.36C630.815 301.741 654.981 305.502 679.294 305.512C696.248 305.773 712.917 309.906 728.028 317.597C743.139 325.288 756.291 336.331 766.479 349.884C774.572 359.962 780.362 371.688 783.444 384.241C786.526 396.793 786.825 409.867 784.32 422.547C781.814 435.227 776.566 447.205 768.942 457.642C761.318 468.079 751.504 476.722 740.186 482.965C716.077 496.756 689.213 505.036 661.524 507.21C635.791 509.986 610.758 517.317 587.594 528.861C552.674 545.8 524.892 574.571 509.185 610.062C500.24 630.691 494.762 652.656 492.974 675.07C491.369 696.866 488.2 718.519 483.49 739.861C480.08 750.227 474.372 759.688 466.792 767.538C459.212 775.388 449.956 781.424 439.716 785.194C431.302 789.337 422.494 792.623 413.423 795.005C399.334 798.218 384.726 798.416 370.556 795.584C354.029 792.986 338.469 786.109 325.421 775.638C313.953 766.915 304.474 755.849 297.617 743.176C290.76 730.504 286.682 716.516 285.655 702.143C283.779 684.766 286.379 667.197 293.21 651.108C300.04 635.019 310.873 620.946 324.678 610.225C341.34 596.471 361.996 588.464 383.575 587.395C407.275 585.963 431.03 584.893 454.676 582.681C472.06 579.857 488.424 572.6 502.186 561.61C537.982 537.289 564.282 501.355 576.641 459.881C585.082 431.478 586.777 401.496 581.591 372.323C576.406 343.149 564.482 315.589 546.771 291.834C529.059 268.079 506.047 248.786 479.567 235.49C453.086 222.193 423.869 215.261 394.238 215.244Z" fill="#2DABE8" fill-opacity="0.07"/>
</svg>
