<svg width="562" height="804" viewBox="0 0 562 804" fill="none" xmlns="http://www.w3.org/2000/svg">
<path d="M61.0557 59.6917C18.1434 60.1051 -23.9144 71.7403 -60.9379 93.4406C-97.9613 115.141 -128.662 146.151 -149.99 183.39C-169.807 216.118 -180.041 253.75 -179.53 292.006C-177.935 327.512 -185.939 362.792 -202.699 394.134C-210.553 408.024 -221.63 419.825 -234.996 428.542C-248.361 437.259 -263.626 442.637 -279.504 444.225C-303.277 448.721 -327.802 447.127 -350.794 439.591C-372.235 432.393 -391.516 419.904 -406.852 403.281C-422.188 386.657 -433.085 366.434 -438.535 344.483C-445.915 313.496 -440.886 280.851 -424.522 253.522C-408.158 226.192 -381.757 206.345 -350.957 198.218C-337.74 195.03 -324.248 193.121 -310.666 192.519C-272.777 192.071 -235.539 182.613 -202.028 164.927C-168.518 147.241 -139.697 121.835 -117.947 90.8076C-89.9548 53.3468 -75.5415 7.47649 -77.0772 -39.2623C-78.7076 -62.2468 -77.8615 -85.3398 -74.5523 -108.143C-71.066 -130.408 -61.452 -151.264 -46.7868 -168.376C-32.1216 -185.488 -12.9837 -198.182 8.48529 -205.035C40.5714 -217.462 76.1409 -217.462 108.227 -205.035C124.954 -198.605 140.124 -188.695 152.733 -175.961C165.343 -163.228 175.104 -147.962 181.371 -131.173C192.242 -105.075 194.236 -76.1273 187.048 -48.7846C183.232 -31.1276 183.015 -12.8825 186.411 4.86015C189.806 22.6028 196.745 39.4787 206.811 54.479C234.706 104.231 279.855 142.045 333.729 160.778C363.328 170.208 394.205 175.014 425.27 175.027C446.931 175.36 468.229 180.641 487.536 190.467C506.843 200.294 523.648 214.404 536.666 231.721C547.005 244.597 554.403 259.579 558.341 275.617C562.279 291.655 562.661 308.36 559.46 324.561C556.259 340.762 549.553 356.067 539.812 369.402C530.071 382.737 517.531 393.78 503.071 401.757C472.267 419.377 437.943 429.956 402.564 432.734C369.687 436.281 337.702 445.648 308.105 460.397C263.489 482.04 227.991 518.801 207.923 564.147C196.493 590.505 189.495 618.569 187.21 647.208C185.159 675.056 181.11 702.722 175.093 729.99C170.736 743.234 163.443 755.323 153.758 765.353C144.073 775.383 132.247 783.094 119.163 787.912C108.413 793.205 97.1578 797.404 85.5679 800.447C67.5673 804.553 48.9022 804.805 30.7971 801.188C9.68086 797.867 -10.1999 789.081 -26.8705 775.702C-41.524 764.557 -53.6348 750.418 -62.3959 734.226C-71.1569 718.035 -76.367 700.162 -77.6796 681.799C-80.0769 659.596 -76.7539 637.148 -68.0268 616.591C-59.2998 596.035 -45.4586 578.053 -27.82 564.356C-6.53159 546.783 19.8612 536.552 47.4321 535.186C77.7138 533.356 108.065 531.989 138.277 529.162C160.489 525.555 181.396 516.283 198.98 502.24C244.716 471.166 278.32 425.253 294.111 372.263C304.895 335.972 307.061 297.665 300.436 260.39C293.81 223.115 278.576 187.901 255.945 157.55C233.315 127.199 203.913 102.548 170.08 85.5594C136.246 68.5709 98.9149 59.7133 61.0557 59.6917Z" fill="#2DABE8" fill-opacity="0.1"/>
</svg>
