<svg width="339" height="73" viewBox="0 0 339 73" fill="none" xmlns="http://www.w3.org/2000/svg">
<path d="M78.3822 43.1446C76.7858 44.4725 74.7577 45.1687 72.6822 45.1012C70.5808 45.156 68.5412 44.3869 66.9992 42.9581C66.2465 42.2753 65.6501 41.438 65.2508 40.5035C64.8514 39.5689 64.6585 38.5593 64.6852 37.5434H68.0195C67.9938 38.132 68.0978 38.7192 68.3242 39.2632C68.5507 39.8071 68.894 40.2946 69.3299 40.6911C70.2912 41.5049 71.5252 41.9241 72.7833 41.8643C73.9695 41.9253 75.1407 41.577 76.1008 40.8776C76.5233 40.5219 76.8559 40.0715 77.0717 39.563C77.2875 39.0545 77.3802 38.5023 77.3425 37.9513C77.3561 37.5262 77.2849 37.1026 77.1331 36.7053C76.9812 36.3081 76.7518 35.945 76.4581 35.6373C75.8469 35.0135 75.0852 34.5576 74.2465 34.3138C73.3641 34.041 72.4111 33.7289 71.3875 33.3776C70.3639 33.0262 69.4109 32.652 68.5285 32.2549C67.6218 31.8388 66.854 31.1704 66.3169 30.3297C65.5872 29.0804 65.2964 27.6229 65.4906 26.1893C65.6849 24.7556 66.3532 23.4281 67.389 22.4181C68.8543 21.24 70.7009 20.6406 72.5788 20.7335C73.5232 20.6918 74.4665 20.8372 75.3545 21.1614C76.2424 21.4856 77.0575 21.9822 77.7529 22.6227C78.4177 23.2797 78.9369 24.0691 79.2768 24.9397C79.6168 25.8104 79.7699 26.7428 79.7263 27.6764H76.392C76.4286 27.1691 76.3565 26.6598 76.1805 26.1825C76.0045 25.7053 75.7287 25.271 75.3716 24.9089C74.5957 24.2509 73.5969 23.9158 72.5812 23.9727C71.5827 23.9213 70.5988 24.2291 69.8076 24.8403C69.4698 25.1177 69.2006 25.4693 69.0207 25.8677C68.8408 26.266 68.7551 26.7005 68.7704 27.1374C68.7582 27.5343 68.8307 27.9292 68.9832 28.2959C69.1357 28.6625 69.3647 28.9924 69.6548 29.2635C70.2789 29.8383 71.0406 30.2424 71.8664 30.4368C72.7488 30.6646 73.7014 30.9425 74.7242 31.2706C75.6985 31.5817 76.6532 31.951 77.5832 32.3764C78.5079 32.8225 79.2781 33.5349 79.7948 34.422C80.4158 35.4953 80.7223 36.7216 80.6793 37.9609C80.7145 38.9425 80.526 39.9194 80.128 40.8175C79.7301 41.7155 79.1331 42.5113 78.3822 43.1446Z" fill="#00004E"/>
<path d="M82.5516 44.8244V20.9994H85.8859V34.2705L92.522 27.8052H96.7756L90.2418 34.3029L97.8983 44.8172H94.1897L87.9627 36.4123L85.8871 38.4194V44.8172L82.5516 44.8244Z" fill="#00004E"/>
<path d="M106.407 51.6314C104.803 51.6633 103.235 51.1604 101.949 50.2019C100.659 49.2219 99.6879 47.8821 99.1581 46.3514H102.902C103.238 46.9848 103.744 47.5122 104.363 47.8747C104.982 48.2372 105.69 48.4205 106.407 48.4042C106.958 48.4329 107.51 48.348 108.027 48.1549C108.545 47.9618 109.017 47.6645 109.415 47.2815C109.784 46.8992 110.072 46.4465 110.262 45.9503C110.452 45.4541 110.54 44.9246 110.521 44.3937V43.4755C109.99 44.0249 109.348 44.4547 108.638 44.7365C107.928 45.0183 107.166 45.1455 106.403 45.1096C105.4 45.1562 104.399 44.9943 103.462 44.6341C102.525 44.274 101.673 43.7234 100.959 43.0171C99.4783 41.2885 98.7427 39.0432 98.9138 36.7733V27.8232H102.249V36.7733C102.249 40.1762 103.634 41.8776 106.402 41.8776C106.974 41.9139 107.547 41.8229 108.079 41.6111C108.612 41.3992 109.09 41.0719 109.481 40.6527C110.271 39.5978 110.652 38.2921 110.553 36.9778V27.8245H113.889V43.9881C113.92 44.9961 113.75 46.0003 113.387 46.9414C113.025 47.8825 112.478 48.7415 111.778 49.4679C111.083 50.1855 110.247 50.75 109.321 51.1251C108.395 51.5001 107.401 51.6775 106.403 51.6458" fill="#00004E"/>
<path d="M124.95 44.8257V21.0007H132.641C133.641 20.9792 134.635 21.1562 135.567 21.5214C136.498 21.8865 137.348 22.4326 138.067 23.1281C138.789 23.7977 139.36 24.6123 139.744 25.5183C140.128 26.4243 140.316 27.4013 140.296 28.3852C140.343 30.1855 139.718 31.9388 138.544 33.3042C137.514 34.571 136.077 35.4424 134.478 35.7709L139.752 44.8232H136.142L131.209 36.0778H128.282V44.8232L124.95 44.8257ZM128.285 33.0852H132.641C133.228 33.103 133.812 32.9901 134.351 32.7548C134.889 32.5194 135.369 32.1675 135.755 31.7243C136.563 30.8043 136.992 29.6127 136.958 28.3888C136.981 27.8085 136.887 27.2295 136.682 26.686C136.478 26.1425 136.167 25.6454 135.767 25.2242C135.359 24.8142 134.87 24.4936 134.331 24.2827C133.793 24.0718 133.216 23.9753 132.638 23.9992H128.282L128.285 33.0852Z" fill="#00004E"/>
<path d="M143.514 42.5454C142.692 41.7397 142.043 40.7749 141.608 39.71C141.172 38.6452 140.957 37.5026 140.978 36.3521C140.958 35.1998 141.17 34.0553 141.599 32.9859C142.028 31.9164 142.667 30.9438 143.479 30.1251C144.264 29.2895 145.216 28.6277 146.273 28.1824C147.33 27.737 148.469 27.5179 149.615 27.5393C151.858 27.5119 154.026 28.3462 155.673 29.87C156.529 30.647 157.213 31.5941 157.682 32.6509C158.151 33.7076 158.394 34.8507 158.396 36.0068C158.4 36.5192 158.366 37.0312 158.293 37.5385H144.551C144.656 38.7496 145.237 39.8695 146.167 40.6526C147.131 41.4644 148.361 41.8927 149.621 41.8559C150.385 41.8836 151.145 41.7459 151.85 41.4522C152.555 41.1585 153.188 40.7158 153.705 40.1545L157.686 40.187C156.947 41.6521 155.816 42.8834 154.419 43.7439C153.016 44.6324 151.387 45.099 149.726 45.0879C148.571 45.1111 147.424 44.8964 146.356 44.4574C145.287 44.0183 144.321 43.3642 143.516 42.5358M144.553 34.8107H154.83C154.532 33.662 153.869 32.641 152.941 31.9012C152.037 31.1541 150.899 30.7501 149.726 30.7604C148.522 30.7299 147.347 31.1278 146.409 31.8831C145.49 32.632 144.839 33.6589 144.553 34.8095" fill="#00004E"/>
<path d="M166.602 45.0964C164.909 45.1489 163.247 44.6413 161.872 43.6524C161.25 43.2077 160.748 42.6164 160.409 41.9308C160.071 41.2452 159.907 40.4866 159.932 39.7225H163.131C163.128 40.0749 163.22 40.4215 163.396 40.7266C163.573 41.0316 163.827 41.284 164.134 41.4577C164.899 41.9141 165.78 42.1386 166.669 42.1038C167.519 42.1557 168.363 41.9416 169.084 41.4913C169.352 41.3123 169.57 41.0688 169.719 40.7832C169.868 40.4976 169.942 40.1792 169.935 39.8573C169.941 39.5221 169.849 39.1926 169.671 38.9086C169.493 38.6247 169.236 38.3987 168.932 38.2581C168.166 37.8621 167.346 37.5811 166.499 37.4242C165.546 37.2317 164.594 37.0051 163.641 36.7444C162.705 36.4945 161.86 35.9807 161.208 35.2644C160.827 34.7993 160.544 34.2615 160.378 33.6838C160.211 33.106 160.164 32.5004 160.238 31.9038C160.313 31.3072 160.509 30.7321 160.813 30.2135C161.117 29.6948 161.524 29.2435 162.008 28.8869C163.317 27.9578 164.896 27.4854 166.5 27.5429C168.103 27.4765 169.68 27.9564 170.975 28.9038C171.546 29.341 172.004 29.9095 172.309 30.5611C172.614 31.2127 172.758 31.9283 172.728 32.6472H169.53C169.528 32.3327 169.444 32.0242 169.286 31.7524C169.128 31.4806 168.901 31.2552 168.628 31.0986C167.973 30.6844 167.209 30.4749 166.434 30.4969C165.698 30.4671 164.972 30.6696 164.358 31.0757C164.106 31.2356 163.899 31.4569 163.756 31.7187C163.613 31.9805 163.539 32.2743 163.541 32.5726C163.545 32.8798 163.642 33.1785 163.817 33.4304C163.993 33.6822 164.241 33.8755 164.528 33.9852C165.294 34.3494 166.107 34.6069 166.944 34.7505C167.908 34.935 168.862 35.1679 169.803 35.4484C170.74 35.7231 171.583 36.2535 172.236 36.9802C173.027 37.9864 173.388 39.2642 173.242 40.5357C173.095 41.8071 172.453 42.9692 171.454 43.7691C170.017 44.7103 168.32 45.1735 166.605 45.0928" fill="#00004E"/>
<path d="M177.365 30.1071C178.802 28.6691 180.692 27.7737 182.714 27.5733C184.737 27.373 186.766 27.8801 188.457 29.0083C190.147 30.1365 191.394 31.816 191.985 33.7605C192.576 35.705 192.474 37.7943 191.697 39.6723C190.92 41.5503 189.516 43.1007 187.724 44.0595C185.932 45.0183 183.863 45.3261 181.87 44.9303C179.877 44.5346 178.082 43.4599 176.792 41.8893C175.502 40.3188 174.797 38.3495 174.796 36.3172C174.778 35.1615 174.996 34.0142 175.438 32.9461C175.88 31.878 176.536 30.9118 177.365 30.1071ZM183.609 30.7701C182.882 30.751 182.158 30.8833 181.485 31.1586C180.811 31.4339 180.202 31.8462 179.696 32.3692C178.688 33.4342 178.128 34.8456 178.132 36.3118C178.135 37.778 178.702 39.1868 179.714 40.2471C180.216 40.7722 180.821 41.1871 181.492 41.4655C182.163 41.7439 182.884 41.8797 183.61 41.8643C184.33 41.8823 185.046 41.7493 185.711 41.4738C186.376 41.1984 186.976 40.7867 187.472 40.2652C188.467 39.1917 189.02 37.7817 189.02 36.3178C189.02 34.8539 188.467 33.444 187.472 32.3704C186.975 31.8491 186.375 31.4375 185.71 31.1621C185.045 30.8866 184.33 30.7535 183.61 30.7713" fill="#00004E"/>
<path d="M209.207 36.7612C209.377 39.0311 208.642 41.2761 207.161 43.0051C205.668 44.3524 203.728 45.0981 201.717 45.0981C199.706 45.0981 197.766 44.3524 196.273 43.0051C194.791 41.2764 194.056 39.0312 194.227 36.7612V27.8112H197.572V36.7612C197.572 40.1641 198.956 41.8656 201.725 41.8656C204.493 41.8656 205.876 40.1641 205.875 36.7612V27.8112H209.21L209.207 36.7612Z" fill="#00004E"/>
<path d="M211.247 44.8256V35.9442C211.081 33.7225 211.782 31.5229 213.204 29.8075C213.875 29.118 214.684 28.5781 215.579 28.2233C216.473 27.8685 217.432 27.7068 218.394 27.7487H218.734V30.9819H218.394C215.853 30.9819 214.583 32.638 214.583 35.9503V44.8317L211.247 44.8256Z" fill="#00004E"/>
<path d="M228.363 45.0964C226.751 45.1216 225.162 44.7039 223.771 43.8888C222.38 43.0738 221.239 41.8926 220.473 40.4739C219.706 39.0553 219.344 37.4535 219.425 35.8431C219.506 34.2327 220.027 32.6754 220.932 31.3408C221.837 30.0062 223.091 28.9455 224.557 28.2742C226.023 27.6028 227.645 27.3467 229.246 27.5335C230.848 27.7204 232.368 28.3431 233.64 29.3339C234.912 30.3247 235.888 31.6455 236.461 33.1526H232.888C232.413 32.3981 231.748 31.7813 230.96 31.3636C230.172 30.9458 229.288 30.7416 228.397 30.7713C227.669 30.752 226.945 30.8842 226.271 31.1595C225.598 31.4348 224.988 31.8472 224.482 32.3705C223.474 33.4351 222.914 34.8465 222.917 36.3127C222.92 37.779 223.486 39.188 224.499 40.2483C225.001 40.7732 225.607 41.1878 226.278 41.466C226.949 41.7442 227.67 41.8799 228.397 41.8643C229.271 41.8967 230.14 41.7003 230.915 41.2945C231.691 40.8887 232.348 40.2876 232.82 39.5504H236.461C235.866 41.1839 234.771 42.5884 233.332 43.5646C231.876 44.5799 230.138 45.1154 228.363 45.0964Z" fill="#00004E"/>
<path d="M240.733 42.5454C239.911 41.7397 239.263 40.7749 238.827 39.71C238.391 38.6452 238.177 37.5026 238.197 36.3521C238.178 35.1999 238.389 34.0554 238.818 32.986C239.248 31.9166 239.887 30.9439 240.698 30.1251C241.483 29.2895 242.435 28.6277 243.492 28.1824C244.549 27.737 245.688 27.5179 246.834 27.5393C249.078 27.5119 251.246 28.3462 252.892 29.87C253.748 30.647 254.432 31.5941 254.901 32.6509C255.37 33.7076 255.613 34.8507 255.615 36.0068C255.619 36.5192 255.585 37.0312 255.513 37.5385H241.77C241.875 38.7496 242.456 39.8695 243.386 40.6526C244.351 41.4644 245.58 41.8927 246.841 41.8559C247.604 41.8836 248.364 41.7459 249.069 41.4522C249.774 41.1585 250.407 40.7158 250.925 40.1545L254.904 40.1954C254.165 41.6605 253.034 42.8919 251.637 43.7523C250.234 44.6408 248.605 45.1074 246.944 45.0964C245.789 45.1195 244.642 44.9049 243.574 44.4658C242.505 44.0268 241.539 43.3727 240.734 42.5442M241.771 34.8191H252.048C251.75 33.6704 251.087 32.6495 250.159 31.9096C249.255 31.1626 248.117 30.7586 246.944 30.7689C245.74 30.7383 244.565 31.1362 243.627 31.8915C242.708 32.6404 242.057 33.6673 241.771 34.8179" fill="#00004E"/>
<path d="M263.821 45.0964C262.129 45.1489 260.466 44.6413 259.091 43.6524C258.469 43.2077 257.967 42.6164 257.628 41.9308C257.29 41.2452 257.126 40.4866 257.151 39.7225H260.35C260.347 40.0749 260.439 40.4216 260.615 40.7267C260.792 41.0317 261.047 41.2841 261.353 41.4577C262.118 41.9141 262.999 42.1386 263.889 42.1038C264.738 42.1557 265.582 41.9416 266.304 41.4913C266.571 41.3123 266.789 41.0688 266.938 40.7832C267.087 40.4976 267.161 40.1792 267.154 39.8573C267.16 39.5221 267.068 39.1926 266.89 38.9086C266.712 38.6247 266.455 38.3987 266.151 38.2581C265.385 37.8621 264.565 37.5811 263.718 37.4242C262.766 37.2317 261.813 37.0051 260.86 36.7444C259.924 36.4941 259.08 35.9805 258.427 35.2644C258.046 34.7993 257.763 34.2615 257.597 33.6838C257.43 33.106 257.383 32.5004 257.458 31.9038C257.533 31.3072 257.728 30.7321 258.032 30.2135C258.336 29.6948 258.743 29.2435 259.227 28.8869C260.536 27.9578 262.115 27.4854 263.719 27.5429C265.322 27.4765 266.9 27.9564 268.194 28.9038C268.765 29.3403 269.223 29.9079 269.528 30.5586C269.834 31.2094 269.979 31.9241 269.95 32.6424H266.751C266.75 32.3279 266.666 32.0194 266.508 31.7476C266.349 31.4758 266.123 31.2504 265.85 31.0938C265.194 30.6795 264.43 30.4701 263.655 30.4921C262.92 30.4623 262.194 30.6648 261.58 31.0709C261.328 31.2308 261.121 31.4521 260.978 31.7139C260.835 31.9757 260.761 32.2695 260.763 32.5678C260.767 32.875 260.863 33.1737 261.039 33.4256C261.215 33.6774 261.462 33.8707 261.749 33.9804C262.516 34.3446 263.329 34.6021 264.165 34.7457C265.13 34.9302 266.084 35.1631 267.024 35.4436C267.962 35.7183 268.804 36.2487 269.457 36.9754C270.248 37.9816 270.61 39.2594 270.464 40.5308C270.317 41.8023 269.674 42.9644 268.675 43.7643C267.239 44.7055 265.542 45.1687 263.826 45.088" fill="#00004E"/>
<path d="M271.545 45.982C271.788 45.9059 272.013 45.7833 272.208 45.621C272.394 45.4444 272.514 45.2103 272.549 44.9568C272.597 44.7207 272.631 44.4821 272.651 44.242C272.661 44.0607 272.667 43.7547 272.668 43.3239V40.874H276.002V43.8016C276.002 46.0694 274.518 47.2603 271.55 47.3742L271.545 45.982Z" fill="#00004E"/>
<path d="M290.225 41.5924H300.229V44.8257H286.893V21.0006H290.225V41.5924Z" fill="#00004E"/>
<path d="M305.437 41.5924H315.436V44.8257H302.103V21.0006H305.437V41.5924Z" fill="#00004E"/>
<path d="M327.013 45.0964C325.402 45.1265 323.802 44.8283 322.31 44.2199C320.818 43.6115 319.465 42.7056 318.335 41.5575C316.047 39.2629 314.762 36.1547 314.762 32.9143C314.762 29.674 316.047 26.5658 318.335 24.2712C320.361 22.2821 323.01 21.0509 325.836 20.7845C328.663 20.518 331.495 21.2325 333.857 22.808C335.828 24.1304 337.338 26.0328 338.179 28.2516H334.569C333.832 26.9466 332.749 25.8694 331.441 25.1375C330.092 24.3753 328.567 23.9822 327.018 23.998C325.659 24.0032 324.32 24.3186 323.102 24.9203C321.885 25.5219 320.82 26.3939 319.991 27.4696C319.162 28.5454 318.589 29.7964 318.317 31.1272C318.045 32.458 318.08 33.8333 318.421 35.1483C318.762 36.4632 319.398 37.683 320.282 38.7144C321.166 39.7458 322.274 40.5616 323.521 41.0994C324.768 41.6373 326.122 41.8831 327.479 41.818C328.836 41.7528 330.159 41.3785 331.349 40.7237C332.63 40.0092 333.712 38.9859 334.497 37.7467H338.107C337.243 39.9211 335.735 41.779 333.785 43.0713C331.788 44.4217 329.425 45.1284 327.014 45.0964" fill="#00004E"/>
<path d="M26.8338 19.9453C28.2948 19.964 29.7065 20.4763 30.8395 21.3988C30.8804 21.4313 30.9201 21.4638 30.9598 21.4975C31.7017 22.1132 32.2976 22.8859 32.7044 23.7599C33.1112 24.6339 33.3188 25.5873 33.3123 26.5513C33.2988 28.5017 33.7456 30.4277 34.6161 32.173C35.4867 33.9184 36.7566 35.4338 38.3227 36.5963C40.5835 38.3144 43.4114 39.112 46.2367 38.8284C49.2076 38.6226 51.8404 39.4096 53.4564 42.1711C54.0047 43.0597 54.3474 44.0595 54.4594 45.0976C54.5714 46.1356 54.45 47.1856 54.104 48.1706C53.7579 49.1557 53.196 50.051 52.4594 50.7909C51.7228 51.5308 50.8301 52.0967 49.8466 52.4472C48.3783 52.9401 46.7941 52.9707 45.3078 52.535C44.322 52.3097 43.2905 52.398 42.3573 52.7877C39.8387 53.693 37.6911 55.4076 36.2507 57.6634C35.2393 59.1662 34.6133 60.8948 34.4277 62.6967C34.3781 63.8371 34.2696 64.9741 34.1028 66.1032C33.9206 67.4387 33.3572 68.6933 32.48 69.7166C31.6029 70.74 30.4492 71.4886 29.1573 71.8729C27.8611 72.2702 26.4657 72.1928 25.2214 71.6546C23.9771 71.1163 22.9652 70.1524 22.3672 68.9357C21.4345 67.2476 20.8879 65.3736 20.7668 63.4488C20.6456 62.5226 20.4324 61.6108 20.1303 60.7269C19.4006 58.3162 17.8903 56.2163 15.837 54.7574C14.643 53.8881 13.2754 53.2868 11.8276 52.9946C10.7976 52.7901 9.73755 52.7263 8.69912 52.5747C7.61767 52.4593 6.54376 52.2818 5.48274 52.0429C4.83897 51.8249 4.2456 51.4797 3.73791 51.0278C3.23023 50.576 2.81858 50.0266 2.52747 49.4125C1.79009 48.2028 1.44409 46.7951 1.53669 45.3814C1.6293 43.9678 2.15601 42.6172 3.04489 41.5141C3.80117 40.5566 4.79493 39.8137 5.92735 39.3594C7.05976 38.905 8.29138 38.755 9.49976 38.9242C10.7081 39.0935 11.8512 39.5761 12.8152 40.3241C13.7792 41.0721 14.5306 42.0594 14.9947 43.1879C15.3317 44.1684 15.5309 45.1909 15.5867 46.2262C15.7191 47.4126 15.6481 48.6231 15.8274 49.7999C15.9524 50.6338 16.2185 51.4403 16.6143 52.1848C17.8929 54.5992 19.9566 56.5054 22.4647 57.5888C24.0707 58.2929 25.8046 58.6582 27.5582 58.6621C30.2899 58.6804 32.9526 57.8045 35.1398 56.1678C37.327 54.5311 38.9186 52.2237 39.6716 49.5978C40.1524 48.0533 40.3069 46.4257 40.1252 44.8183C39.8187 42.0213 38.5912 39.4054 36.6357 37.382C35.2335 35.83 33.4372 34.6866 31.4375 34.073C30.3177 33.7799 29.1696 33.6085 28.013 33.5616C26.8214 33.524 25.6374 33.3582 24.4814 33.0671C23.3877 32.8244 22.3959 32.2494 21.6419 31.4209C20.8879 30.5924 20.4086 29.5509 20.2699 28.4393C20.0753 27.5073 20.0706 26.5457 20.256 25.6119C20.4414 24.6781 20.8132 23.7912 21.3491 23.0043C21.8849 22.2174 22.5739 21.5466 23.3749 21.032C24.1758 20.5173 25.0723 20.1694 26.0107 20.0091C26.2883 19.957 26.5707 19.9352 26.853 19.9441" fill="#2DABE8"/>
<path d="M14.5266 26.7823C14.5481 29.011 15.1524 31.1953 16.2794 33.1181C17.4064 35.0409 19.0169 36.6354 20.951 37.743C22.6507 38.7722 24.6051 39.3038 26.592 39.2772C28.436 39.1944 30.2682 39.6101 31.896 40.4805C32.6174 40.8884 33.2303 41.4637 33.683 42.1578C34.1357 42.852 34.4151 43.6447 34.4975 44.4694C34.731 45.7041 34.6482 46.9778 34.2569 48.1719C33.883 49.2854 33.2344 50.2868 32.371 51.0832C31.5077 51.8797 30.4574 52.4457 29.3174 52.7287C27.708 53.112 26.0126 52.8508 24.5933 52.0009C23.1739 51.1511 22.1431 49.7799 21.7211 48.1803C21.5555 47.4939 21.4563 46.7932 21.4251 46.0878C21.4018 44.12 20.9106 42.1861 19.9921 40.4457C19.0735 38.7053 17.7541 37.2085 16.1426 36.0789C14.1971 34.6251 11.8148 33.8765 9.38742 33.9563C8.19371 34.041 6.99437 33.997 5.81007 33.8252C4.65372 33.6441 3.57056 33.1448 2.68184 32.3832C1.79311 31.6215 1.13389 30.6276 0.777931 29.5126C0.132535 27.8462 0.132535 25.9989 0.777931 24.3325C1.11192 23.4638 1.6266 22.6759 2.28791 22.021C2.94922 21.3661 3.74208 20.8592 4.614 20.5337C5.96943 19.9691 7.47282 19.8655 8.89287 20.2389C9.8099 20.4371 10.7575 20.4483 11.6789 20.272C12.6004 20.0956 13.4769 19.7353 14.2559 19.2125C16.8398 17.7637 18.8037 15.4189 19.7766 12.6209C20.2663 11.0837 20.5159 9.48006 20.5166 7.86671C20.5339 6.74173 20.8082 5.63561 21.3185 4.63289C21.8288 3.63017 22.5617 2.75742 23.461 2.08135C24.1297 1.54434 24.9079 1.16012 25.7408 0.95562C26.5737 0.75112 27.4413 0.731287 28.2827 0.897527C29.1241 1.06377 29.919 1.41204 30.6115 1.91794C31.3041 2.42384 31.8776 3.0751 32.2919 3.82609C33.207 5.4259 33.7564 7.20855 33.9007 9.04594C34.0849 10.7535 34.5714 12.4146 35.3374 13.9517C36.4614 16.2689 38.3707 18.1124 40.7257 19.1547C42.0946 19.7483 43.5521 20.1118 45.0395 20.2305C46.4858 20.3369 47.9226 20.5472 49.3388 20.8598C50.0267 21.086 50.6545 21.4648 51.1754 21.9678C51.6963 22.4708 52.0968 23.085 52.347 23.7645C52.6219 24.3228 52.84 24.9073 52.998 25.5093C53.2113 26.4441 53.2244 27.4135 53.0365 28.3538C52.8641 29.4505 52.4077 30.483 51.7129 31.3488C51.1341 32.1098 50.3998 32.7388 49.5588 33.1938C48.7179 33.6488 47.7897 33.9194 46.836 33.9876C45.6829 34.1121 44.517 33.9395 43.4494 33.4863C42.3818 33.033 41.4479 32.3142 40.7365 31.3981C39.8239 30.2925 39.2925 28.9218 39.2216 27.4899C39.1266 25.9172 39.0555 24.3409 38.9087 22.7718C38.7214 21.6182 38.2398 20.5324 37.5105 19.6192C35.8967 17.2439 33.5122 15.4986 30.7601 14.6785C28.8753 14.1184 26.8859 14.0059 24.95 14.35C23.0141 14.6941 21.1852 15.4853 19.6089 16.6606C18.0326 17.836 16.7524 19.363 15.8701 21.1201C14.9878 22.8773 14.5278 24.8161 14.5266 26.7823Z" fill="#00004E"/>
<path d="M224.413 57.9101H64.6864V58.5972H224.413V57.9101Z" fill="#2DABE8"/>
<path d="M240.705 54.5138L238.925 60.8156H238.06L236.763 56.2101C236.708 56.0138 236.674 55.7999 236.662 55.5685H236.645C236.627 55.7853 236.589 55.9962 236.53 56.2013L235.225 60.8156H234.368L232.523 54.5138H233.336L234.676 59.3478C234.732 59.5499 234.767 59.7609 234.781 59.9806H234.803C234.818 59.8253 234.863 59.6144 234.94 59.3478L236.333 54.5138H237.04L238.376 59.383C238.423 59.5499 238.458 59.7462 238.482 59.9718H238.499C238.511 59.8195 238.55 59.6173 238.618 59.3654L239.905 54.5138H240.705ZM244.186 60.921C243.292 60.921 242.576 60.6266 242.037 60.0377C241.501 59.4489 241.233 58.6828 241.233 57.7394C241.233 56.7257 241.507 55.9171 242.054 55.3136C242.602 54.7101 243.348 54.4083 244.291 54.4083C245.161 54.4083 245.862 54.7013 246.392 55.2873C246.925 55.8732 247.192 56.6393 247.192 57.5856C247.192 58.6139 246.919 59.4269 246.374 60.0246C245.829 60.6222 245.1 60.921 244.186 60.921ZM244.238 55.0763C243.576 55.0763 243.039 55.3151 242.626 55.7926C242.213 56.2702 242.006 56.8971 242.006 57.6735C242.006 58.4499 242.207 59.0753 242.608 59.5499C243.012 60.0216 243.538 60.2575 244.186 60.2575C244.877 60.2575 245.422 60.0319 245.82 59.5807C246.219 59.1295 246.418 58.4982 246.418 57.6867C246.418 56.8546 246.225 56.2116 245.838 55.7575C245.451 55.3034 244.918 55.0763 244.238 55.0763ZM252.948 60.8156H252.07L251.015 59.049C250.918 58.8849 250.824 58.7458 250.734 58.6315C250.643 58.5143 250.549 58.4191 250.452 58.3458C250.359 58.2726 250.256 58.2199 250.145 58.1876C250.036 58.1525 249.913 58.1349 249.776 58.1349H249.169V60.8156H248.431V54.5138H250.312C250.587 54.5138 250.841 54.549 251.072 54.6193C251.306 54.6867 251.508 54.7907 251.678 54.9313C251.851 55.0719 251.986 55.2477 252.083 55.4586C252.179 55.6666 252.228 55.9113 252.228 56.1925C252.228 56.4123 252.194 56.6144 252.127 56.799C252.062 56.9806 251.968 57.1432 251.845 57.2868C251.725 57.4303 251.579 57.5534 251.406 57.6559C251.236 57.7555 251.044 57.8332 250.83 57.8888V57.9064C250.936 57.9533 251.027 58.0075 251.103 58.069C251.182 58.1276 251.257 58.1979 251.327 58.2799C251.397 58.362 251.466 58.4557 251.533 58.5612C251.604 58.6637 251.681 58.7838 251.766 58.9215L252.948 60.8156ZM249.169 55.1818V57.4669H250.171C250.356 57.4669 250.526 57.4391 250.681 57.3834C250.839 57.3278 250.975 57.2487 251.09 57.1461C251.204 57.0407 251.293 56.9132 251.358 56.7638C251.422 56.6115 251.454 56.4416 251.454 56.2541C251.454 55.9171 251.344 55.6549 251.125 55.4674C250.908 55.277 250.593 55.1818 250.18 55.1818H249.169ZM258.204 60.8156H257.176L254.741 57.9328C254.651 57.8244 254.595 57.7511 254.574 57.713H254.557V60.8156H253.819V54.5138H254.557V57.4757H254.574C254.615 57.4113 254.671 57.3395 254.741 57.2604L257.097 54.5138H258.015L255.313 57.5373L258.204 60.8156ZM259.778 60.8156H259.039V54.5138H259.778V60.8156ZM266.519 60.8156H265.613L262.37 55.7926C262.288 55.6666 262.221 55.5348 262.168 55.3971H262.142C262.165 55.5319 262.177 55.8205 262.177 56.2628V60.8156H261.439V54.5138H262.397L265.552 59.4577C265.684 59.6627 265.769 59.8034 265.807 59.8795H265.824C265.795 59.6979 265.78 59.3888 265.78 58.9523V54.5138H266.519V60.8156ZM272.882 60.3849C272.249 60.7423 271.546 60.921 270.773 60.921C269.873 60.921 269.145 60.631 268.589 60.0509C268.035 59.4708 267.758 58.7033 267.758 57.7482C267.758 56.7726 268.066 55.9728 268.681 55.3488C269.299 54.7218 270.081 54.4083 271.028 54.4083C271.713 54.4083 272.289 54.5197 272.755 54.7423V55.5597C272.245 55.2374 271.641 55.0763 270.944 55.0763C270.238 55.0763 269.659 55.3195 269.208 55.8058C268.757 56.2921 268.531 56.922 268.531 57.6955C268.531 58.4923 268.741 59.1193 269.16 59.5763C269.579 60.0304 270.147 60.2575 270.865 60.2575C271.357 60.2575 271.783 60.1593 272.144 59.963V58.1964H270.764V57.5285H272.882V60.3849ZM280.019 55.1818H277.558V57.3615H279.834V58.025H277.558V60.8156H276.82V54.5138H280.019V55.1818ZM283.754 60.921C282.861 60.921 282.144 60.6266 281.605 60.0377C281.069 59.4489 280.801 58.6828 280.801 57.7394C280.801 56.7257 281.075 55.9171 281.623 55.3136C282.171 54.7101 282.916 54.4083 283.86 54.4083C284.73 54.4083 285.43 54.7013 285.96 55.2873C286.493 55.8732 286.76 56.6393 286.76 57.5856C286.76 58.6139 286.487 59.4269 285.943 60.0246C285.398 60.6222 284.668 60.921 283.754 60.921ZM283.807 55.0763C283.145 55.0763 282.607 55.3151 282.194 55.7926C281.781 56.2702 281.574 56.8971 281.574 57.6735C281.574 58.4499 281.775 59.0753 282.176 59.5499C282.581 60.0216 283.107 60.2575 283.754 60.2575C284.445 60.2575 284.99 60.0319 285.389 59.5807C285.787 59.1295 285.987 58.4982 285.987 57.6867C285.987 56.8546 285.793 56.2116 285.406 55.7575C285.02 55.3034 284.487 55.0763 283.807 55.0763ZM292.517 60.8156H291.638L290.583 59.049C290.487 58.8849 290.393 58.7458 290.302 58.6315C290.211 58.5143 290.117 58.4191 290.021 58.3458C289.927 58.2726 289.824 58.2199 289.713 58.1876C289.605 58.1525 289.482 58.1349 289.344 58.1349H288.737V60.8156H287.999V54.5138H289.88C290.155 54.5138 290.409 54.549 290.64 54.6193C290.875 54.6867 291.077 54.7907 291.247 54.9313C291.42 55.0719 291.554 55.2477 291.651 55.4586C291.748 55.6666 291.796 55.9113 291.796 56.1925C291.796 56.4123 291.762 56.6144 291.695 56.799C291.631 56.9806 291.537 57.1432 291.414 57.2868C291.294 57.4303 291.147 57.5534 290.974 57.6559C290.804 57.7555 290.612 57.8332 290.399 57.8888V57.9064C290.504 57.9533 290.595 58.0075 290.671 58.069C290.75 58.1276 290.825 58.1979 290.895 58.2799C290.966 58.362 291.034 58.4557 291.102 58.5612C291.172 58.6637 291.25 58.7838 291.335 58.9215L292.517 60.8156ZM288.737 55.1818V57.4669H289.739C289.924 57.4669 290.094 57.4391 290.249 57.3834C290.407 57.3278 290.544 57.2487 290.658 57.1461C290.772 57.0407 290.862 56.9132 290.926 56.7638C290.99 56.6115 291.023 56.4416 291.023 56.2541C291.023 55.9171 290.913 55.6549 290.693 55.4674C290.476 55.277 290.161 55.1818 289.748 55.1818H288.737ZM299.952 54.5138L297.874 58.4865V60.8156H297.135V58.5041L295.11 54.5138H295.949L297.36 57.3615C297.377 57.3966 297.428 57.5255 297.513 57.7482H297.527C297.556 57.6486 297.612 57.5197 297.694 57.3615L299.17 54.5138H299.952ZM303.02 60.921C302.126 60.921 301.41 60.6266 300.871 60.0377C300.335 59.4489 300.067 58.6828 300.067 57.7394C300.067 56.7257 300.341 55.9171 300.888 55.3136C301.436 54.7101 302.182 54.4083 303.125 54.4083C303.995 54.4083 304.695 54.7013 305.226 55.2873C305.759 55.8732 306.026 56.6393 306.026 57.5856C306.026 58.6139 305.753 59.4269 305.208 60.0246C304.663 60.6222 303.934 60.921 303.02 60.921ZM303.072 55.0763C302.41 55.0763 301.873 55.3151 301.46 55.7926C301.047 56.2702 300.84 56.8971 300.84 57.6735C300.84 58.4499 301.041 59.0753 301.442 59.5499C301.846 60.0216 302.372 60.2575 303.02 60.2575C303.711 60.2575 304.256 60.0319 304.654 59.5807C305.053 59.1295 305.252 58.4982 305.252 57.6867C305.252 56.8546 305.059 56.2116 304.672 55.7575C304.285 55.3034 303.752 55.0763 303.072 55.0763ZM311.875 58.2667C311.875 60.0363 311.076 60.921 309.48 60.921C307.95 60.921 307.186 60.07 307.186 58.3678V54.5138H307.924V58.3195C307.924 59.6115 308.469 60.2575 309.559 60.2575C310.611 60.2575 311.136 59.6334 311.136 58.3854V54.5138H311.875V58.2667ZM314.274 54.5138L314.191 59.0402H313.597L313.518 54.5138H314.274ZM313.905 60.8947C313.77 60.8947 313.654 60.8478 313.558 60.7541C313.464 60.6603 313.417 60.546 313.417 60.4113C313.417 60.2765 313.464 60.1623 313.558 60.0685C313.654 59.9718 313.77 59.9235 313.905 59.9235C314.037 59.9235 314.151 59.9718 314.248 60.0685C314.344 60.1623 314.393 60.2765 314.393 60.4113C314.393 60.546 314.344 60.6603 314.248 60.7541C314.151 60.8478 314.037 60.8947 313.905 60.8947Z" fill="#2DABE8"/>
</svg>
