<svg width="614" height="1088" viewBox="0 0 614 1088" fill="none" xmlns="http://www.w3.org/2000/svg">
<path d="M775.203 1083.08C742.635 1091.36 708.226 1088.38 677.564 1074.63C676.462 1074.15 675.386 1073.67 674.303 1073.16C654.158 1063.9 636.321 1050.28 622.081 1033.28C607.841 1016.29 597.554 996.344 591.961 974.89C580.65 931.482 559.262 891.355 529.533 857.764C499.804 824.174 462.572 798.067 420.861 781.565C360.411 756.855 292.843 755.97 231.766 779.088C166.992 801.343 103.82 799.532 51.4827 747.804C34.0141 731.329 20.4499 711.156 11.7821 688.763C3.11411 666.369 -0.438219 642.322 1.38551 618.379C3.20924 594.436 10.3629 571.203 22.3224 550.381C34.282 529.559 50.7449 511.674 70.5074 498.034C100.192 478.344 135.202 468.233 170.814 469.066C194.054 468.203 216.444 460.1 234.854 445.89C285.417 410.787 322.919 359.912 341.491 301.227C355.012 261.821 358.63 219.694 352.027 178.56C346.341 152.932 341.983 127.028 338.967 100.951C335.065 70.199 340.114 38.9743 353.509 11.0193C366.903 -16.9356 388.075 -40.4343 414.487 -56.6613C440.917 -73.2032 472.376 -79.7897 503.222 -75.2391C534.069 -70.6886 562.285 -55.2993 582.813 -31.8299C613.582 0.11919 636.88 38.4969 651.026 80.5367C659.232 100.39 669.397 119.377 681.368 137.214C711.93 186.425 757.98 224.084 812.278 244.27C843.977 256.476 877.937 261.693 911.838 259.565C935.937 257.978 959.867 253.085 983.838 250.271C1008.55 246.396 1033.46 243.948 1058.46 242.941C1074.05 243.95 1089.29 248.087 1103.26 255.103C1117.23 262.119 1129.64 271.873 1139.76 283.783C1163.35 306.266 1179.41 335.48 1185.77 367.435C1192.13 399.39 1188.46 432.528 1175.28 462.325C1164.18 488.098 1146.53 510.516 1124.08 527.351C1101.62 544.185 1075.16 554.848 1047.31 558.281C1019.45 561.714 991.189 557.797 965.321 546.919C939.454 536.04 916.884 518.58 899.857 496.273C886.535 476.498 876.022 454.968 868.62 432.302C858.617 406.733 852.989 379.419 842.001 354.344C834.259 336.564 823.547 320.232 810.323 306.047C767.547 260.023 710.356 229.961 648.191 220.823C608.322 214.741 567.628 216.945 528.65 227.298C467.856 243.151 413.918 278.461 375.072 327.838C336.225 377.216 314.602 437.95 313.505 500.767C312.018 537.94 318.275 575.015 331.877 609.642C355.336 669.955 398.177 720.76 453.661 754.068C494.051 780.199 540.761 794.908 588.836 796.636C615.457 796.481 641.983 793.455 667.956 787.612C694.65 781.354 721.94 777.99 749.355 777.576C775.095 776.457 800.551 783.327 822.233 797.244C843.914 811.162 860.76 831.445 870.46 855.314C880.329 874.859 886.158 896.193 887.597 918.041C889.037 939.89 886.057 961.804 878.837 982.475C871.617 1003.15 860.304 1022.15 845.574 1038.35C830.844 1054.55 813 1067.61 793.108 1076.76C787.251 1079.57 781.106 1081.74 774.782 1083.22" fill="#2DABE8" fill-opacity="0.1"/>
</svg>
