<svg width="278" height="136" viewBox="0 0 278 136" fill="none" xmlns="http://www.w3.org/2000/svg">
<path d="M168.651 56.1118H159.735L164.106 48.2339L168.651 56.1118Z" fill="#FFCC00"/>
<path d="M173.698 64.8461H154.72L156.655 61.6692L157.468 60.2075H171.018L173.698 64.8461Z" fill="#FFCC00"/>
<path d="M178.737 73.5764H149.625L152.044 69.2506L152.232 68.9346H176.058L178.737 73.5764Z" fill="#FFCC00"/>
<path d="M183.844 82.4221H144.687L147.343 77.665H181.096L183.844 82.4221Z" fill="#FFCC00"/>
<path d="M177.666 13.47L177.531 5.7929L177.443 0.785645L173.743 3.0078L166.568 7.31714L158.027 12.4495L155.69 13.8486L161.496 17.065L143.061 50.0023L137.581 59.8358L137.591 59.8423L132.341 69.2478H122.846H116.954L120.124 63.6447L120.18 63.6743L138.996 31.0728L143.453 38.7928L150.934 25.4104L145.747 16.423C142.748 11.2281 135.247 11.2248 132.249 16.423L116.572 43.5794L94.155 82.4194H104.967H109.506H115.397H122.846H138.805L172.084 22.9381L173.174 23.5438L177.877 26.1577L177.666 13.47Z" fill="#D81E29"/>
<path d="M11.7463 114.383L16.8806 108.721H22.3773C23.7254 108.721 25.2406 108.721 26.2958 108.787C25.8359 107.996 25.1429 106.648 24.6169 105.592L21.6874 99.7636L8.78534 114.383H0.718384L18.3611 94.4642C19.514 93.1788 21.0606 91.9941 23.1994 91.9941C25.2405 91.9941 26.3934 93.0811 27.1179 94.4642L37.3552 114.383H11.7463Z" fill="#D81E29"/>
<path d="M64.1799 108.721L58.8156 114.382H47.7562C40.8767 114.382 36.2999 110.233 36.2999 104.669C36.2999 97.4258 43.2108 92.3564 51.64 92.3564H67.0778L61.6788 98.0843H50.6195C46.5718 98.0843 43.1478 100.687 43.1478 104.174C43.1478 106.906 45.4189 108.718 48.7452 108.718H64.1799V108.721Z" fill="#D81E29"/>
<path d="M96.1772 92.3564L90.7121 98.0843H82.8782L79.9803 114.382H73.167L76.0302 98.0843H65.6953L71.1605 92.3564H96.1772Z" fill="#D81E29"/>
<path d="M101.245 114.382H94.4321L98.3506 92.3564H105.132L101.245 114.382Z" fill="#D81E29"/>
<path d="M116.025 92.3564L123.364 106.975L136.266 92.3564H144.33L126.687 112.275C125.535 113.56 123.988 114.745 121.849 114.745C119.808 114.745 118.655 113.658 117.931 112.275L107.693 92.3564H116.025Z" fill="#D81E29"/>
<path d="M169.447 108.721L164.048 114.382H142.849L146.768 92.3564H172.244L166.814 98.0843H152.56L152.101 100.718H169.513L164.773 105.721H151.212L150.686 108.718H169.447V108.721Z" fill="#D81E29"/>
<path d="M202.726 101.15C207.498 101.15 210.034 102.861 210.034 106.153C210.034 110.926 207.039 114.382 199.205 114.382H178.699L184.063 108.721H200.751C202.594 108.721 203.385 108.128 203.385 106.843C203.385 105.955 202.695 105.526 201.312 105.526H189.298C184.296 105.526 182.057 103.418 182.057 100.227C182.057 95.7497 185.118 92.3564 192.82 92.3564H211.943L206.544 98.0843H191.27C189.427 98.0843 188.637 98.5789 188.637 99.8959C188.637 100.784 189.327 101.147 190.744 101.147H202.726V101.15Z" fill="#D81E29"/>
<path d="M245.354 101.314C245.354 110.369 239.363 114.749 227.019 114.749C217.506 114.749 212.699 111.787 212.699 105.398C212.699 96.3428 218.69 91.998 231.035 91.998C240.548 91.998 245.354 94.9281 245.354 101.314ZM238.506 102.004C238.506 98.4474 236.005 97.7259 230.014 97.7259C221.16 97.7259 219.547 99.0744 219.547 104.739C219.547 108.296 222.083 109.018 228.008 109.018C236.859 109.018 238.506 107.635 238.506 102.004Z" fill="#D81E29"/>
<path d="M268.065 101.15C272.837 101.15 275.373 102.861 275.373 106.153C275.373 110.926 272.377 114.382 264.543 114.382H244.037L249.402 108.721H266.09C267.933 108.721 268.723 108.128 268.723 106.843C268.723 105.955 268.033 105.526 266.651 105.526H254.634C249.632 105.526 247.392 103.418 247.392 100.227C247.392 95.7497 250.454 92.3564 258.155 92.3564H277.282L271.883 98.0843H256.609C254.766 98.0843 253.975 98.5789 253.975 99.8959C253.975 100.784 254.665 101.147 256.083 101.147H268.065V101.15Z" fill="#D81E29"/>
<path d="M1.659 131.235C1.659 127.222 4.10964 124.32 8.16989 124.32C10.6048 124.32 12.8538 125.599 12.8538 128.16C12.8538 128.318 12.8381 128.472 12.8223 128.63H10.4662C10.4662 127.335 9.53066 126.365 7.9998 126.365C5.53341 126.365 4.17579 128.52 4.17579 131.05C4.17579 132.704 5.20581 133.702 6.75243 133.702C8.39039 133.702 9.54641 132.767 9.95275 131.346H12.3561C11.9813 134.172 9.73226 135.747 6.57918 135.747C3.51745 135.747 1.659 133.954 1.659 131.235Z" fill="#FFCC00"/>
<path d="M22.7128 130.394C23.7114 130.612 24.1807 131.254 24.1807 132.174C24.1807 132.348 24.1649 132.533 24.1334 132.735L23.8374 134.468C23.7901 134.733 23.7744 134.997 23.7744 135.202C23.7744 135.36 23.7744 135.482 23.8059 135.593H21.3867C21.3237 135.407 21.2765 135.186 21.2765 134.922C21.2765 134.78 21.2922 134.641 21.3237 134.468L21.6198 132.83C21.6513 132.644 21.6671 132.455 21.6671 132.3C21.6671 131.519 21.182 131.254 20.2464 131.254H17.9816L17.232 135.596H14.7183L16.6681 124.48H21.6797C23.957 124.48 25.1918 125.605 25.1918 127.118C25.195 129.065 24.3697 129.909 22.7128 130.394ZM20.8103 126.349H18.8605L18.3124 129.377H20.6685C22.0734 129.377 22.6656 128.753 22.6656 127.502C22.6687 126.645 22.0734 126.349 20.8103 126.349Z" fill="#FFCC00"/>
<path d="M27.0344 135.592L28.9842 124.477H31.4979L29.5481 135.592H27.0344Z" fill="#FFCC00"/>
<path d="M33.1985 132.486C33.1985 132.313 33.2143 132.143 33.23 131.973H35.6492C35.6492 133.299 36.4146 133.879 37.788 133.879C39.2243 133.879 40.1598 133.239 40.1598 132.256C40.1598 131.569 39.7063 131.226 38.3171 131.024L37.054 130.838C35.1798 130.574 34.2443 129.714 34.2443 128.122C34.2443 125.719 36.1027 124.329 39.0983 124.329C41.7065 124.329 43.1397 125.593 43.1397 127.546C43.1397 127.672 43.1397 127.811 43.1239 127.952H40.7835C40.7835 126.875 40.1284 126.204 38.818 126.204C37.6147 126.204 36.7579 126.765 36.7579 127.751C36.7579 128.422 37.0855 128.702 38.3045 128.875L39.5834 129.049C41.4734 129.329 42.6735 130.252 42.6735 131.938C42.6735 134.31 40.9095 135.763 37.5076 135.763C34.6821 135.747 33.1985 134.61 33.1985 132.486Z" fill="#FFCC00"/>
<path d="M45.1404 135.592L47.0902 124.477H49.6039L47.6541 135.592H45.1404Z" fill="#FFCC00"/>
<path d="M51.3043 132.486C51.3043 132.313 51.32 132.143 51.3358 131.973H53.7549C53.7549 133.299 54.5203 133.879 55.8937 133.879C57.3301 133.879 58.2656 133.239 58.2656 132.256C58.2656 131.569 57.812 131.226 56.4229 131.024L55.1598 130.838C53.2856 130.574 52.35 129.714 52.35 128.122C52.35 125.719 54.2085 124.329 57.2041 124.329C59.8122 124.329 61.2454 125.593 61.2454 127.546C61.2454 127.672 61.2454 127.811 61.2297 127.952H58.8893C58.8893 126.875 58.2341 126.204 56.9237 126.204C55.7205 126.204 54.8637 126.765 54.8637 127.751C54.8637 128.422 55.1913 128.702 56.4103 128.875L57.6892 129.049C59.5791 129.329 60.7792 130.252 60.7792 131.938C60.7792 134.31 59.0153 135.763 55.6134 135.763C52.7879 135.747 51.3043 134.61 51.3043 132.486Z" fill="#FFCC00"/>
<path d="M77.0104 130.394C78.0089 130.612 78.4783 131.254 78.4783 132.174C78.4783 132.348 78.4625 132.533 78.431 132.735L78.1349 134.468C78.0877 134.733 78.0719 134.997 78.0719 135.202C78.0719 135.36 78.0719 135.482 78.1034 135.593H75.6811C75.6181 135.407 75.5709 135.186 75.5709 134.922C75.5709 134.78 75.5866 134.641 75.6181 134.468L75.9142 132.83C75.9457 132.644 75.9615 132.455 75.9615 132.3C75.9615 131.519 75.4764 131.254 74.5409 131.254H72.2761L71.5264 135.596H69.0127L70.9625 124.48H75.9741C78.2546 124.48 79.4862 125.605 79.4862 127.118C79.4925 129.065 78.6641 129.909 77.0104 130.394ZM75.1047 126.349H73.1549L72.6068 129.377H74.9629C76.3678 129.377 76.96 128.753 76.96 127.502C76.9631 126.645 76.371 126.349 75.1047 126.349Z" fill="#FFCC00"/>
<path d="M81.3329 135.592L83.2828 124.477H91.6175L91.2584 126.522H85.4216L84.9995 128.957H90.3386L89.9795 130.892H84.6561L84.1868 133.548H90.0078L89.6645 135.592H81.3329Z" fill="#FFCC00"/>
<path d="M92.9272 132.486C92.9272 132.313 92.943 132.143 92.9587 131.973H95.3779C95.3779 133.299 96.1433 133.879 97.5167 133.879C98.953 133.879 99.8886 133.239 99.8886 132.256C99.8886 131.569 99.435 131.226 98.0458 131.024L96.7827 130.838C94.9085 130.574 93.973 129.714 93.973 128.122C93.973 125.719 95.8315 124.329 98.827 124.329C101.435 124.329 102.868 125.593 102.868 127.546C102.868 127.672 102.868 127.811 102.853 127.952H100.512C100.512 126.875 99.8571 126.204 98.5467 126.204C97.3434 126.204 96.4866 126.765 96.4866 127.751C96.4866 128.422 96.8142 128.702 98.0332 128.875L99.3121 129.049C101.202 129.329 102.402 130.252 102.402 131.938C102.402 134.31 100.638 135.763 97.2363 135.763C94.4108 135.747 92.9272 134.61 92.9272 132.486Z" fill="#FFCC00"/>
<path d="M110.722 131.72H108.054L107.383 135.592H104.869L106.819 124.477H111.578C113.859 124.477 115.292 125.649 115.292 127.536C115.295 130.205 113.639 131.72 110.722 131.72ZM110.876 126.349H109.002L108.378 129.846H110.659C112.064 129.846 112.782 129.112 112.782 127.738C112.782 126.755 112.142 126.349 110.876 126.349Z" fill="#FFCC00"/>
<path d="M117.462 131.235C117.462 127.222 119.913 124.32 123.973 124.32C127 124.32 128.89 126.116 128.89 128.832C128.89 132.845 126.565 135.747 122.379 135.747C119.321 135.747 117.462 133.954 117.462 131.235ZM126.376 129.021C126.376 127.366 125.346 126.368 123.8 126.368C121.333 126.368 119.976 128.523 119.976 131.053C119.976 132.707 121.006 133.706 122.552 133.706C125.016 133.702 126.376 131.547 126.376 129.021Z" fill="#FFCC00"/>
<path d="M137.987 135.592L134.645 127.911L133.303 135.592H130.915L132.865 124.477H135.533L138.859 132.158L140.217 124.477H142.605L140.655 135.592H137.987Z" fill="#FFCC00"/>
<path d="M144.321 132.486C144.321 132.313 144.337 132.143 144.353 131.973H146.772C146.772 133.299 147.537 133.879 148.911 133.879C150.347 133.879 151.283 133.239 151.283 132.256C151.283 131.569 150.829 131.226 149.44 131.024L148.177 130.838C146.303 130.574 145.367 129.714 145.367 128.122C145.367 125.719 147.226 124.329 150.221 124.329C152.829 124.329 154.263 125.593 154.263 127.546C154.263 127.672 154.263 127.811 154.247 127.952H151.906C151.906 126.875 151.251 126.204 149.941 126.204C148.738 126.204 147.881 126.765 147.881 127.751C147.881 128.422 148.208 128.702 149.427 128.875L150.706 129.049C152.596 129.329 153.796 130.252 153.796 131.938C153.796 134.31 152.032 135.763 148.631 135.763C145.805 135.747 144.321 134.61 144.321 132.486Z" fill="#FFCC00"/>
<path d="M156.26 135.592L158.21 124.477H166.544L166.185 126.522H160.352L159.93 128.957H165.269L164.91 130.892H159.586L159.117 133.548H164.938L164.595 135.592H156.26Z" fill="#FFCC00"/>
<path d="M173.631 132.486C173.631 132.313 173.647 132.143 173.663 131.973H176.082C176.082 133.299 176.848 133.879 178.221 133.879C179.657 133.879 180.593 133.239 180.593 132.256C180.593 131.569 180.139 131.226 178.75 131.024L177.487 130.838C175.613 130.574 174.677 129.714 174.677 128.122C174.677 125.719 176.536 124.329 179.531 124.329C182.139 124.329 183.573 125.593 183.573 127.546C183.573 127.672 183.573 127.811 183.557 127.952H181.216C181.216 126.875 180.561 126.204 179.251 126.204C178.048 126.204 177.191 126.765 177.191 127.751C177.191 128.422 177.518 128.702 178.737 128.875L180.016 129.049C181.906 129.329 183.106 130.252 183.106 131.938C183.106 134.31 181.342 135.763 177.941 135.763C175.115 135.747 173.631 134.61 173.631 132.486Z" fill="#FFCC00"/>
<path d="M185.57 135.592L187.52 124.477H190.034L188.084 135.592H185.57Z" fill="#FFCC00"/>
<path d="M201.726 135.592L203.288 126.723L198.904 135.592H196.796L195.533 126.723L193.987 135.592H191.599L193.549 124.477H197.404L198.434 131.768L202.025 124.477H206.07L204.12 135.592H201.726Z" fill="#FFCC00"/>
<path d="M213.491 131.72H210.823L210.152 135.592H207.638L209.588 124.477H214.348C216.625 124.477 218.062 125.649 218.062 127.536C218.065 130.205 216.411 131.72 213.491 131.72ZM213.648 126.349H211.774L211.151 129.846H213.431C214.836 129.846 215.554 129.112 215.554 127.738C215.551 126.755 214.912 126.349 213.648 126.349Z" fill="#FFCC00"/>
<path d="M219.797 135.592L221.747 124.477H224.26L222.654 133.548H227.82L227.476 135.592H219.797Z" fill="#FFCC00"/>
<path d="M230.378 135.592L232.328 124.477H234.841L232.892 135.592H230.378Z" fill="#FFCC00"/>
<path d="M236.403 135.592L238.353 124.477H246.688L246.329 126.522H240.492L240.07 128.957H245.409L245.05 130.892H239.727L238.914 135.592H236.403Z" fill="#FFCC00"/>
<path d="M247.639 135.592L249.589 124.477H252.103L250.153 135.592H247.639Z" fill="#FFCC00"/>
<path d="M253.662 135.592L255.612 124.477H263.947L263.588 126.522H257.751L257.329 128.957H262.668L262.309 130.892H256.985L256.516 133.548H262.337L261.994 135.592H253.662Z" fill="#FFCC00"/>
<path d="M269.849 135.592H265.118L267.068 124.477H271.393C274.561 124.477 276.341 126.04 276.341 128.834C276.341 132.924 274.187 135.592 269.849 135.592ZM271.361 126.443H269.222L267.959 133.626H270.145C272.564 133.626 273.831 131.55 273.831 129.02C273.828 127.363 272.86 126.443 271.361 126.443Z" fill="#FFCC00"/>
</svg>
