<svg width="335" height="144" viewBox="0 0 335 144" fill="none" xmlns="http://www.w3.org/2000/svg">
<path d="M113.652 42.5024C112.475 42.8802 111.739 43.1384 111.471 43.2388L111.39 43.2723C107.526 44.9841 102.472 47.021 100.34 47.021H99.3548C98.934 47.021 98.4654 47.021 98.2598 47.021C95.7986 47.8318 93.2681 48.4144 90.7002 48.7615C90.0164 48.7997 88.0225 49.0053 86.0717 49.2396C86.0168 50.0344 85.8042 50.8103 85.4462 51.5221C85.0883 52.2338 84.5922 52.8672 83.9869 53.3852C83.8778 53.9255 83.6995 54.4494 83.4562 54.944C83.2765 55.373 83.1683 55.8284 83.1358 56.2924C83.3594 57.4503 83.255 58.6476 82.8346 59.7494C82.7354 59.9681 82.6926 60.2081 82.7103 60.4475C82.8776 60.8731 83.3988 62.2071 83.2123 66.1854C83.1836 66.7066 83.1502 67.1895 83.1215 67.6198C83.062 68.2172 83.0396 68.8176 83.0545 69.4177C83.3243 69.8533 83.4961 70.3423 83.558 70.8509C83.6199 71.3595 83.5705 71.8755 83.4131 72.3631C83.2008 72.9196 82.863 73.4197 82.426 73.8244C81.9889 74.2291 81.4644 74.5275 80.8933 74.6965L80.6494 74.7921C80.3625 75.0981 80.0852 75.4042 79.8509 75.6624C80.3086 75.9742 80.7124 76.3586 81.0463 76.8004C81.8926 77.8953 82.3373 79.3394 82.7676 80.7356C82.9159 81.2137 83.1406 81.9453 83.284 82.2657C84.7185 83.7766 85.8804 85.9044 86.8128 88.7638C87.0136 89.3854 87.291 90.2317 87.6448 91.2167C89.0793 95.3336 90.9919 100.947 91.5417 104.485C91.6514 105.188 91.4964 105.906 91.1068 106.5C90.7172 107.095 90.1208 107.524 89.4331 107.703L87.0232 108.306C86.7124 110.276 86.0669 111.739 85.1584 112.667C84.7219 113.064 84.3635 113.539 84.1017 114.068L83.9726 114.292C83.9009 114.421 83.8148 114.603 83.7 114.833C82.4226 117.521 80.8026 120.033 78.8803 122.306C77.8748 123.474 76.9284 124.692 76.0448 125.955C76.7569 126.611 77.1827 127.521 77.2306 128.489L131.845 73.8502C133.589 72.1054 134.568 69.7397 134.568 67.2732C134.568 64.8066 133.589 62.441 131.845 60.6962L113.652 42.5024Z" fill="#00009D"/>
<path d="M60.6196 125.266C61.6163 124.455 62.7201 123.786 63.8997 123.277C64.0909 122.797 64.4101 122.378 64.8225 122.067L64.856 122.038C65.1635 121.286 65.6815 120.639 66.3478 120.174C66.6266 119.512 66.8583 118.831 67.0412 118.137C67.0412 118.003 67.0173 117.759 67.0029 117.577C66.8977 116.286 66.7256 114.158 68.0357 112.198C68.4039 111.643 69.1546 110.419 70.1205 108.793C68.8958 106.295 67.4458 103.913 65.7884 101.679L65.5446 101.377C64.7939 103.108 63.6845 105.681 62.2931 108.903C62.096 109.362 61.7829 109.76 61.3846 110.061C60.4905 111.643 59.472 112.676 58.3197 113.13C58.2288 113.173 58.1284 113.235 58.0184 113.302C56.7643 114.132 55.3039 114.595 53.8011 114.641C53.4114 114.642 53.0225 114.607 52.6392 114.536C50.2484 114.111 47.4225 112.423 45.6199 110.448C43.3917 109.755 41.6225 108.908 41.3165 106.996C41.2074 106.34 41.287 105.667 41.546 105.054C41.4982 104.825 41.46 104.576 41.4169 104.313V104.179C41.1061 102.042 41.087 101.081 42.1007 98.714C42.4208 97.9313 42.6704 97.1216 42.8466 96.2945C42.9648 95.7257 43.1345 95.1687 43.3535 94.6305C43.6765 93.9799 44.1372 93.4073 44.7036 92.9523C45.27 92.4974 45.9285 92.1711 46.6336 91.9959L47.1117 90.2029C47.2504 89.2083 47.5899 87.3626 47.9629 85.9712C48.2019 85.0149 48.8331 82.5476 48.7375 81.3283C48.7375 81.1944 48.6992 81.0271 48.6705 80.8502C48.0633 76.9628 49.3591 74.835 51.09 73.6779L51.0422 72.9463C51.0326 72.811 51.0326 72.6752 51.0422 72.5399C51.013 72.4076 50.9938 72.2734 50.9848 72.1382L50.1958 60.586C50.1935 60.5462 50.1935 60.5063 50.1958 60.4665C50.1958 60.1605 50.1671 59.3189 50.1624 58.7165C50.1603 58.707 50.1603 58.6972 50.1624 58.6878C49.863 57.8421 49.735 56.9453 49.7859 56.0496C49.8368 55.154 50.0655 54.2774 50.4588 53.4711C50.7457 52.8639 50.7314 51.4294 50.7266 50.3823C50.7266 49.7367 50.7266 49.1151 50.7601 48.5222H50.1767C48.0728 48.5222 44.9887 48.2688 42.2489 47.0878C35.6169 44.2141 34.2207 42.2202 33.7187 40.6327C33.5374 40.0861 33.4773 39.5065 33.5426 38.9343C33.6078 38.3621 33.7968 37.8109 34.0964 37.3191C34.8615 36.0568 36.2194 33.3217 36.7262 32.1646C37.3622 30.7015 40.4606 25.8482 41.9094 24.562C42.607 23.8388 43.159 22.9882 43.5352 22.0565C43.5352 21.9321 43.5352 21.7839 43.5734 21.6213C43.5912 21.4595 43.6232 21.2995 43.669 21.1432C43.6732 20.9695 43.694 20.7965 43.7312 20.6268C43.8316 20.1447 43.9922 19.6773 44.2094 19.2354L2.72478 60.7151C1.86093 61.5788 1.17568 62.6041 0.708156 63.7326C0.240633 64.8611 0 66.0706 0 67.2921C0 68.5136 0.240633 69.7232 0.708156 70.8517C1.17568 71.9802 1.86093 73.0055 2.72478 73.8691L59.5772 130.707C59.1803 128.752 59.1803 126.547 60.6196 125.266Z" fill="#118FFF"/>
<path d="M61.442 23.4815C61.1224 23.6813 60.7666 23.8161 60.3949 23.8784L60.0936 23.9262C59.8963 24.1281 59.6709 24.3004 59.4242 24.4378L58.9795 24.8633C58.0997 25.6762 57.1147 26.4652 55.5703 26.4652H55.4651L55.2786 26.5369C54.724 26.7568 54.2267 26.9146 53.8442 27.015C52.7874 27.3497 52.7683 27.3832 52.5818 27.6988C52.2376 28.2965 51.812 28.9802 51.396 29.6449C50.8557 30.5247 49.9615 31.9926 49.7751 32.4325L49.6747 32.7577C49.5216 33.2358 49.3878 33.6709 49.273 34.0582L49.4882 34.0917L50.2771 34.2399C51.0671 34.4423 51.8814 34.534 52.6966 34.5125C53.2799 34.4455 54.0832 34.3164 54.7526 34.1969C55.1044 33.7615 55.5465 33.4077 56.0485 33.16C56.5505 32.9123 57.1003 32.7767 57.6598 32.7624C57.8378 32.7619 58.0155 32.7779 58.1906 32.8103H58.2814C58.5579 32.8617 58.8254 32.9535 59.0752 33.0828C59.8784 33.494 60.8204 33.9435 61.6763 34.326C61.1144 33.5171 60.7795 32.5725 60.7064 31.5903C60.6332 30.6082 60.8245 29.6244 61.2603 28.7412C61.41 27.0226 61.843 25.3407 62.5418 23.7636C62.5418 23.7636 62.5418 23.7349 62.5418 23.7253C62.4909 23.36 62.5104 22.9884 62.5991 22.6304C62.2319 22.9384 61.8454 23.2227 61.442 23.4815Z" fill="#118FFF"/>
<path d="M66.9742 13.5693C66.9849 16.0842 66.1777 18.5343 64.6743 20.5503C65.6306 20.1057 69.4558 18.4465 72.3869 18.4465C73.2948 18.4294 74.195 18.6156 75.0215 18.9916C77.9622 20.426 79.5305 22.879 79.6835 26.3264C80.1617 30.5724 79.8652 31.3375 79.6596 31.8395C79.5587 32.0966 79.4421 32.3473 79.3106 32.5902C79.2217 33.5952 79.0376 34.5894 78.7607 35.5596H79.0715C80.4375 35.5548 81.8006 35.6861 83.1406 35.9517C83.4466 35.9517 83.8913 35.9182 84.3933 35.9182C85.6529 35.8695 86.9118 36.0311 88.1182 36.3963L88.1899 36.4202C88.668 36.5924 89.3518 36.8267 89.6913 36.8984C89.9543 36.8315 90.3129 36.7502 90.8771 36.6211C92.2638 36.3055 95.4817 35.5787 96.4667 35.0623C98.2598 34.1299 100.804 33.4653 104.179 33.0493L73.8596 2.71523C72.1162 0.976449 69.7545 0 67.2922 0C64.8299 0 62.4682 0.976449 60.7248 2.71523L60.3661 3.07384C62.344 4.02369 64.0135 5.51265 65.1825 7.36939C66.3515 9.22613 66.9726 11.3752 66.9742 13.5693Z" fill="#00009D"/>
<path d="M129.426 30.0465C129.196 30.0465 128.948 30.0465 128.723 30.0799C128.846 30.0026 128.945 29.893 129.01 29.7632C129.075 29.6334 129.103 29.4882 129.091 29.3436C129.044 29.1874 128.942 29.0533 128.804 28.9656C128.667 28.8779 128.502 28.8424 128.34 28.8654H128.278C127.277 29.0667 126.3 29.3711 125.362 29.7739C124.553 30.0704 123.717 30.3764 122.995 30.5963C121.842 30.9502 121.13 31.2418 120.982 31.4283C119.891 32.5117 118.649 33.4313 117.295 34.1586C114.096 34.851 110.855 35.3302 107.593 35.593C103.032 35.9086 99.7373 36.5828 97.796 37.5917C96.4763 38.2803 93.3731 38.9879 91.513 39.4087C90.8723 39.5521 90.4037 39.6573 90.2172 39.7195C90.0757 39.7596 89.9292 39.7789 89.7821 39.7769C88.8978 39.6791 88.0327 39.4519 87.2144 39.1027H87.1618C86.2615 38.8512 85.3273 38.7431 84.3933 38.7823C83.657 38.7823 83.0545 38.8206 82.9302 38.8301C81.6828 38.5592 80.4101 38.4214 79.1337 38.4189C77.8801 38.4949 76.6355 38.6788 75.4136 38.9688C74.5482 40.0112 72.1287 42.2824 69.0877 39.7386C72.0905 41.2926 73.764 39.8486 74.443 38.964C74.6199 38.4859 74.9211 37.7447 75.3036 36.8314C75.9635 35.2822 76.4799 32.8915 76.4369 32.2651C76.4461 31.9075 76.5554 31.5596 76.7525 31.261C76.8337 31.1032 76.915 30.9358 76.9867 30.7828C77.221 30.2042 76.8529 26.9241 76.8146 26.5607C76.7238 24.1078 75.7866 22.5777 73.7688 21.6023C73.3333 21.4135 72.8613 21.3236 72.3869 21.3393C69.8144 21.3393 65.9701 23.1324 65.8075 23.2089L65.3772 23.4145L66.1996 23.5531C64.3731 25.2171 64.1005 29.1523 64.0766 29.597C63.0247 31.5431 63.8614 32.5902 64.3109 33.1497L64.3348 33.1784C64.5154 33.4459 64.6361 33.7493 64.6886 34.0677C64.7864 34.555 64.9659 35.0222 65.2194 35.4496C65.5434 36.0766 65.6381 36.7971 65.4872 37.4865C65.3677 37.5284 65.2585 37.5953 65.1668 37.6826C64.9785 37.8496 64.7591 37.9778 64.5211 38.0598C64.2832 38.1419 64.0314 38.1762 63.7802 38.1607C62.4461 38.1607 57.7841 35.7699 57.7363 35.7413H57.6454C57.1099 35.7413 56.5314 36.6545 56.3736 36.9175C56.0006 36.9892 54.1693 37.3335 53.0265 37.4674C52.8089 37.4908 52.5902 37.502 52.3714 37.5009C51.4791 37.45 50.5937 37.3139 49.7272 37.0944L48.967 36.951C48.7443 36.9123 48.5187 36.8931 48.2928 36.8936C47.7229 36.9099 47.1574 36.9983 46.6097 37.1566C46.3488 37.2311 46.0814 37.2807 45.8112 37.3048C44.8336 37.7816 43.9034 38.35 43.0331 39.0023C43.7727 38.1048 44.6469 37.3273 45.6247 36.6976C45.9331 35.0752 46.3581 33.4772 46.8966 31.916L47.0065 31.5574C47.5478 30.3681 48.1875 29.2261 48.9192 28.1434C49.316 27.5075 49.7272 26.8428 50.0619 26.269C50.827 24.9589 51.7594 24.6624 52.9309 24.2895C53.3277 24.1652 53.7342 24.0361 54.1693 23.8592C54.5444 23.6849 54.9512 23.5889 55.3647 23.577H55.5368C55.9098 23.577 56.1727 23.491 56.9713 22.7403C57.2306 22.526 57.4605 22.2784 57.655 22.0039L57.9802 21.9035C57.1434 21.937 55.5894 21.9944 53.868 22.0135L59.9262 21.0285C61.2267 20.2244 62.2944 19.0946 63.0237 17.7508C63.753 16.407 64.1185 14.896 64.0839 13.3675C64.0494 11.8389 63.6161 10.346 62.8268 9.03648C62.0376 7.72701 60.9199 6.64649 59.5845 5.902C58.2491 5.15751 56.7423 4.77489 55.2135 4.79206C53.6847 4.80923 52.1869 5.22559 50.8686 5.99988C49.5502 6.77418 48.4571 7.87953 47.6975 9.2064C46.9378 10.5333 46.5381 12.0356 46.538 13.5645C46.538 13.6936 46.538 13.8179 46.538 13.9423C46.4734 13.9335 46.4077 13.9432 46.3484 13.9703C46.2892 13.9974 46.2388 14.0407 46.2032 14.0953C45.9594 14.4491 46.2845 15.3528 46.3562 15.5297C46.5605 16.0243 46.7066 16.541 46.7914 17.0694C47.1213 18.719 47.1452 19.8761 46.8535 20.3256C46.6975 20.6002 46.5892 20.8993 46.5332 21.2102C47.2197 21.3271 47.8714 21.596 48.4406 21.9972C49.0098 22.3985 49.482 22.9219 49.8229 23.5292C48.8795 22.6602 47.6935 22.0997 46.4232 21.9226C46.3897 22.2239 46.3802 22.4582 46.3802 22.5251C45.8815 24.1094 44.9976 25.5453 43.8077 26.7042C42.7844 27.6079 39.8964 32.0547 39.3465 33.3122C38.7966 34.5698 37.3813 37.4196 36.5493 38.8014C36.4613 38.9428 36.4065 39.1024 36.3891 39.268C36.3717 39.4337 36.3921 39.6011 36.4489 39.7577C36.9605 41.3596 40.4702 43.1765 43.32 44.415C45.6199 45.4143 48.2928 45.6295 50.1145 45.6295C50.9083 45.6295 51.6159 45.5912 52.1658 45.5482C53.0549 44.3885 54.2227 43.4723 55.5607 42.8849C54.6366 43.611 53.8302 44.4755 53.1699 45.4478H53.2847C53.6464 46.3362 53.77 47.3037 53.6433 48.2545C53.5612 48.9526 53.5341 49.6561 53.562 50.3584C53.562 51.8311 53.562 53.4951 53.0217 54.7C52.7797 55.1818 52.641 55.7089 52.6147 56.2474C52.5883 56.7859 52.6749 57.324 52.8687 57.8272C52.9408 58.0228 52.9874 58.2269 53.0074 58.4344C53.0074 58.9939 53.0313 60.0458 53.0408 60.3901L53.8298 71.9422C57.1434 71.3446 61.3511 73.5154 61.3511 73.5154C61.3511 73.5154 56.6079 72.2148 53.8872 72.7503L54.021 74.706L54.0497 75.4758C50.8509 76.3412 51.2478 78.8659 51.4821 80.3817C51.5251 80.6494 51.5681 80.9028 51.5825 81.1084C51.6972 82.6003 51.2143 84.7615 50.7266 86.6789C50.2054 88.7254 49.8994 90.7958 49.8994 90.8006L49.12 93.8608L48.4171 99.9238L48.3884 94.5398C47.1643 94.6832 46.2367 95.147 45.9546 95.7782C45.8128 96.1561 45.7009 96.5446 45.6199 96.9401C45.4043 97.9207 45.1035 98.8807 44.721 99.809C43.932 101.64 43.9942 102.042 44.2428 103.735V103.859C44.3863 104.815 44.5584 105.25 44.721 105.423C44.4723 105.662 44.0802 106.102 44.1424 106.484C44.2189 106.962 46.1124 107.565 47.2695 107.918C48.5414 109.645 51.1617 111.328 53.1412 111.686C53.3575 111.725 53.5767 111.744 53.7963 111.744C54.7864 111.684 55.7409 111.354 56.5553 110.787C56.7712 110.652 56.9965 110.532 57.2295 110.429C57.9658 110.151 58.6926 108.927 58.8791 108.602C57.2055 108.55 53.2273 108.291 50.6644 107.063C54.1071 107.942 58.0041 107.832 59.6441 107.732C60.6004 105.499 63.5459 98.6901 63.981 97.729C64.0905 97.4796 64.2408 97.2501 64.4257 97.0501C65.2038 94.8614 66.4117 92.8504 67.9783 91.1353C66.8053 92.8346 65.9111 94.7103 65.3294 96.6915C66.2966 97.6891 67.2005 98.7463 68.0357 99.8568C70.6177 103.103 72.9416 107.985 72.9655 108.033V108.057L76.5899 107.875L73.6349 108.502C72.9129 109.735 71.1963 112.647 70.4456 113.762C69.6949 114.876 69.8001 116.224 69.8862 117.295C69.919 117.613 69.935 117.932 69.934 118.251C69.9005 119.208 68.8055 121.795 68.4995 122.459C68.4307 122.427 68.3556 122.411 68.2796 122.411C68.0405 122.411 67.701 122.574 67.4189 123.339C67.3072 123.687 67.0727 123.983 66.759 124.171L66.5678 124.31C66.7683 125.483 67.2617 126.586 68.0022 127.518C67.2522 126.961 66.6295 126.25 66.1757 125.433C64.861 125.858 63.6287 126.505 62.5322 127.346C61.5998 128.187 62.9051 132.075 63.3594 133.084C63.8949 134.298 63.2398 137.311 63.2351 137.339V137.373C63.2781 139.027 64.0049 143.431 66.8069 143.962C66.9314 143.986 67.0578 143.999 67.1846 144C69.2693 144 69.5754 140.581 69.7762 138.539C69.8192 138.09 69.8527 137.703 69.9005 137.478C69.9483 137.253 70.0153 136.895 70.087 136.522C70.3834 134.891 70.8807 132.161 71.5215 130.908C71.9517 130.16 72.6484 129.602 73.4723 129.345C73.8453 129.192 74.137 129.072 74.2565 128.866C74.5529 128.317 73.7257 127.781 73.4962 127.642L72.975 126.375L71.3971 127.657L72.7455 125.744C73.888 123.859 75.2004 122.082 76.6664 120.437C78.4296 118.343 79.9176 116.032 81.0941 113.561C81.2375 113.269 81.3523 113.035 81.4384 112.887L81.5627 112.662C81.9551 111.902 82.4741 111.215 83.0975 110.63C83.9965 109.735 84.2355 107.383 84.2929 106.661L79.0332 107.445L88.6776 104.877C88.1994 101.597 86.2294 95.9408 84.9145 92.1299C84.5655 91.121 84.2642 90.2459 84.0586 89.61C83.2362 87.0854 82.256 85.2779 81.0606 84.0826C80.659 83.6809 80.3386 82.6481 79.9991 81.5388C79.6596 80.4295 79.2771 79.1958 78.7511 78.5168C78.5189 78.2133 78.2143 77.9729 77.8651 77.8175C77.5159 77.6621 77.1334 77.5968 76.7525 77.6275C76.4273 77.6275 76.2408 77.6275 76.1834 77.4936C76.0263 76.7716 75.9652 76.0321 76.0017 75.2941C72.6286 75.2158 69.2722 74.7945 65.9844 74.0366C69.3169 74.4214 72.6722 74.5716 76.0257 74.486H76.1595C76.4656 74.486 76.7716 74.4573 77.0728 74.4334C77.2784 74.1943 77.9478 73.415 78.6842 72.6451C79.0255 72.3354 79.4301 72.1037 79.87 71.9661C80.2573 71.8227 80.592 71.6936 80.6876 71.4115C80.7117 71.3011 80.7109 71.1868 80.6853 71.0768C80.6596 70.9668 80.6098 70.8639 80.5394 70.7755C80.0613 70.0248 80.1378 68.9825 80.2525 67.4285C80.2812 66.9934 80.3147 66.5248 80.3386 65.994C80.439 63.8328 80.3386 62.2166 80.0278 61.4372C79.7315 60.5404 79.7723 59.5663 80.1426 58.6974C80.4206 57.992 80.451 57.2132 80.2286 56.4883C80.2608 55.4988 80.4832 54.5248 80.8837 53.6194C81.1393 53.0806 81.2654 52.4895 81.2519 51.8933C80.8933 48.7996 80.4534 46.361 80.4534 46.361C81.0445 47.9984 81.5034 49.6805 81.8257 51.3912C83.2601 50.3919 83.2601 49.0387 83.2314 48.1876C83.2252 48.0008 83.2332 47.8138 83.2553 47.6281C83.3653 47.0878 84.2499 46.6192 84.6085 46.471C84.948 46.4328 89.3231 45.945 90.5376 45.8733C92.7907 45.5526 95.0136 45.0473 97.1839 44.3624C97.6621 44.1329 98.1737 44.1376 99.3834 44.1472H100.34C102.295 44.1472 109.903 40.8001 110.223 40.6471C110.673 40.408 114.431 39.2127 116.836 38.5002C117.035 37.4805 117.357 36.4884 117.792 35.5452C117.613 36.4596 117.509 37.3871 117.482 38.3185C117.691 38.405 117.915 38.4473 118.141 38.4428C119.232 38.4428 120.776 37.6873 121.904 37.1375C122.288 36.9328 122.686 36.757 123.095 36.6115C123.623 36.5925 124.151 36.6472 124.663 36.7741C125.259 36.8996 125.863 36.9763 126.471 37.0036C126.806 37.0302 127.141 36.9499 127.427 36.7741C127.513 36.7167 127.767 36.5302 127.719 36.2959C127.652 35.9803 127.121 35.8608 126.562 35.7317C126.351 35.6839 126.15 35.6361 126.002 35.5882C125.78 35.5197 125.551 35.4764 125.318 35.4591C124.63 35.3779 124.209 35.2918 124.233 34.7945C124.257 34.149 125.634 33.9386 126.853 33.7569C127.131 33.7139 127.408 33.6756 127.666 33.6278C129.101 33.3696 129.555 33.2549 129.732 32.5424C129.744 32.5006 129.745 32.4565 129.736 32.414C129.727 32.3715 129.707 32.3319 129.679 32.2986C129.579 32.1695 129.311 32.0164 128.149 32.0164C127.671 32.0164 127.116 32.0451 126.715 32.0738C127.552 31.8233 128.409 31.6473 129.278 31.5479C130.377 31.4283 130.425 30.9406 130.382 30.4146C130.353 30.1134 129.856 30.0465 129.426 30.0465Z" fill="#191919"/>
<path d="M163.413 45.9162L174.119 73.8595H165.163L158.708 56.8516L155.839 63.4549V73.8595H147.471V20.708H155.82V42.2727L165.086 20.708H174.119L163.413 45.9162Z" fill="#00009D"/>
<path d="M188.927 74.4671C185.382 74.4671 182.447 73.4295 180.12 71.3543C177.585 68.8233 176.32 65.5081 176.323 61.4087V33.1594C176.323 29.0601 177.589 25.7449 180.12 23.2139C182.45 21.1387 185.386 20.1011 188.927 20.1011C192.571 20.1011 195.507 21.1387 197.735 23.2139C200.263 25.6429 201.528 28.9581 201.531 33.1594V37.8692H193.173V33.1594C193.173 31.2883 192.819 30.0228 192.112 29.3629C191.452 28.7541 190.389 28.4512 188.922 28.4544C187.456 28.4576 186.419 28.7604 185.81 29.3629C185.049 30.0753 184.672 31.3377 184.672 33.1594V61.4087C184.672 63.2321 185.051 64.4976 185.81 65.2053C186.466 65.8141 187.504 66.1169 188.922 66.1138C190.392 66.1138 191.455 65.8109 192.112 65.2053C192.819 64.5454 193.173 63.2927 193.173 61.4087V54.5711H201.527V61.4087C201.527 65.6133 200.261 68.9285 197.73 71.3543C195.505 73.4295 192.571 74.4671 188.927 74.4671Z" fill="#00009D"/>
<path d="M240.41 29.0613H226.74V42.4496H236.159V50.7982H226.74V65.4966H240.41V73.85H218.391V20.708H240.41V29.0613Z" fill="#00009D"/>
<path d="M245.569 73.8595V20.708H253.923V65.4966H267.593V73.85L245.569 73.8595Z" fill="#00009D"/>
<path d="M271.614 73.8595V20.708H279.968V73.8595H271.614Z" fill="#00009D"/>
<path d="M309.125 20.708V29.0613H300.619V73.8595H292.27V29.0613H283.764V20.708H309.125Z" fill="#00009D"/>
<path d="M334.864 29.0613H321.199V42.4496H330.614V50.7982H321.199V65.4966H334.864V73.85H312.845V20.708H334.864V29.0613Z" fill="#00009D"/>
<path d="M152.2 101.478H147.529V81.7828H151.779C152.958 81.7287 154.113 82.1195 155.017 82.8778C155.501 83.3042 155.868 83.8473 156.083 84.4557C156.339 85.1185 156.465 85.825 156.451 86.5356V88.367C156.451 89.6962 156.077 90.7083 155.327 91.4032C156.355 92.1348 156.872 93.3158 156.872 94.9511V96.7538C156.892 97.4551 156.768 98.1532 156.508 98.805C156.292 99.4137 155.923 99.9568 155.437 100.383C154.537 101.147 153.379 101.539 152.2 101.478ZM150.618 90.1122H151.77C152.183 90.147 152.594 90.0259 152.922 89.7727C153.243 89.3782 153.396 88.8732 153.348 88.367V86.5356C153.396 86.0516 153.254 85.568 152.951 85.1872C152.607 84.9452 152.188 84.8349 151.77 84.8764H150.618V90.1122ZM150.618 98.3843H152.191C152.413 98.4342 152.644 98.4261 152.863 98.3609C153.081 98.2956 153.279 98.1754 153.437 98.0117C153.595 97.848 153.709 97.6463 153.767 97.426C153.825 97.2058 153.826 96.9743 153.769 96.7538V94.9511C153.796 94.7006 153.773 94.447 153.701 94.2055C153.629 93.964 153.509 93.7395 153.348 93.5454C153.018 93.2923 152.605 93.1713 152.191 93.2059H150.618V98.3843Z" fill="#118FFF"/>
<path d="M165.679 101.478L165.12 98.3555H161.572L161.008 101.478H157.857L161.797 81.7827H164.895L168.83 101.478H165.679ZM162.108 95.2619H164.584L163.346 88.1948L162.108 95.2619Z" fill="#118FFF"/>
<path d="M174.573 101.702C173.376 101.758 172.204 101.344 171.307 100.55C170.829 100.068 170.456 99.4904 170.214 98.8554C169.972 98.2205 169.865 97.5419 169.901 96.8633V94.3052H172.995V96.8633C172.967 97.1143 172.991 97.3682 173.064 97.6098C173.137 97.8514 173.259 98.0757 173.421 98.2691C173.749 98.5222 174.16 98.6434 174.573 98.6086C174.987 98.6497 175.4 98.5279 175.725 98.2691C175.891 98.0775 176.014 97.8534 176.087 97.6113C176.16 97.3692 176.182 97.1144 176.151 96.8633V95.6201C176.149 95.1919 176.055 94.769 175.875 94.3804C175.696 93.9917 175.434 93.6464 175.109 93.368C174.732 93.0971 174.338 92.8526 173.928 92.6365C173.238 92.2947 172.587 91.8794 171.986 91.3981C171.331 90.8315 170.803 90.1323 170.437 89.3468C170.078 88.5708 169.895 87.7249 169.901 86.8699V86.3918C169.865 85.7132 169.972 85.0346 170.214 84.3997C170.456 83.7648 170.829 83.1876 171.307 82.7052C172.231 81.9568 173.384 81.5483 174.573 81.5483C175.762 81.5483 176.915 81.9568 177.839 82.7052C178.317 83.1876 178.69 83.7648 178.932 84.3997C179.174 85.0346 179.281 85.7132 179.245 86.3918V88.1084H176.151V86.3918C176.181 86.1408 176.159 85.8861 176.086 85.6441C176.013 85.4021 175.89 85.178 175.725 84.986C175.401 84.7249 174.987 84.6028 174.573 84.6465C174.16 84.6094 173.748 84.7307 173.421 84.986C173.259 85.1795 173.137 85.4038 173.064 85.6454C172.991 85.887 172.967 86.1409 172.995 86.3918V86.8699C172.993 87.2946 173.086 87.7143 173.266 88.0988C173.447 88.4833 173.71 88.823 174.038 89.0934C174.388 89.3434 174.755 89.5687 175.137 89.7675C175.857 90.1263 176.537 90.5607 177.165 91.0633C177.826 91.6227 178.355 92.3213 178.714 93.109C179.074 93.8968 179.255 94.7543 179.245 95.6201V96.8586C179.281 97.5371 179.174 98.2157 178.932 98.8507C178.69 99.4856 178.317 100.063 177.839 100.545C176.942 101.341 175.771 101.756 174.573 101.702Z" fill="#118FFF"/>
<path d="M186.957 91.1258L190.926 101.478H187.603L185.212 95.1758L184.141 97.6239V101.478H181.047V81.7827H184.141V89.7727L187.574 81.7827H190.921L186.957 91.1258Z" fill="#118FFF"/>
<path d="M200.575 84.8764H195.511V89.83H199.002V92.9237H195.511V98.3842H200.575V101.478H192.413V81.7827H200.575V84.8764Z" fill="#118FFF"/>
<path d="M211.042 81.7827V84.8764H207.891V101.478H204.797V84.8764H201.646V81.7827H211.042Z" fill="#118FFF"/>
<path d="M217.081 101.478H212.409V81.7828H216.655C217.833 81.7287 218.989 82.1195 219.892 82.8778C220.378 83.3039 220.747 83.847 220.963 84.4557C221.22 85.1185 221.345 85.825 221.332 86.5356V88.367C221.37 88.9241 221.289 89.4831 221.094 90.0066C220.9 90.5301 220.596 91.0062 220.203 91.4032C221.236 92.1348 221.752 93.3158 221.752 94.9511V96.7538C221.771 97.4555 221.646 98.1536 221.384 98.805C221.168 99.4125 220.801 99.9553 220.318 100.383C219.417 101.146 218.26 101.538 217.081 101.478ZM215.503 90.1122H216.655C217.07 90.1468 217.482 90.0257 217.812 89.7727C218.132 89.3775 218.283 88.8726 218.233 88.367V86.5356C218.278 86.0527 218.138 85.5707 217.841 85.1872C217.496 84.9452 217.075 84.835 216.655 84.8764H215.503V90.1122ZM215.503 98.3843H217.081C217.303 98.4346 217.534 98.4268 217.753 98.3616C217.971 98.2964 218.169 98.1761 218.327 98.0122C218.485 97.8482 218.598 97.6463 218.655 97.4259C218.713 97.2054 218.712 96.9739 218.654 96.7538V94.9511C218.682 94.7006 218.659 94.447 218.586 94.2055C218.514 93.964 218.394 93.7395 218.233 93.5454C217.902 93.3007 217.491 93.1882 217.081 93.2298H215.503V98.3843Z" fill="#118FFF"/>
<path d="M230.574 101.478L229.991 98.3555H226.448L225.884 101.478H222.733L226.673 81.7827H229.766L233.706 101.478H230.574ZM226.998 95.2619H229.475L228.236 88.1948L226.998 95.2619Z" fill="#118FFF"/>
<path d="M235.251 101.478V81.7827H238.344V98.3842H243.413V101.478H235.251Z" fill="#118FFF"/>
<path d="M244.895 101.478V81.7827H247.993V98.3842H253.057V101.478H244.895Z" fill="#118FFF"/>
<path d="M267.464 81.7827V84.8764H264.313V101.478H261.219V84.8764H258.068V81.7827H267.464Z" fill="#118FFF"/>
<path d="M278.103 101.478H274.937L273.331 93.5738H271.925V101.478H268.831V81.7825H273.503C274.704 81.7343 275.876 82.1583 276.769 82.9635C277.706 83.8242 278.175 85.0435 278.175 86.6214V88.7301C278.175 90.3239 277.706 91.5528 276.769 92.4166C276.622 92.5555 276.462 92.6789 276.291 92.7848L278.103 101.478ZM275.09 86.6214C275.116 86.3709 275.092 86.1178 275.02 85.8766C274.948 85.6353 274.829 85.4107 274.67 85.2156C274.341 84.9625 273.93 84.8414 273.517 84.8762H271.939V90.4753H273.503C273.915 90.5114 274.326 90.3921 274.655 90.1406C274.817 89.9458 274.937 89.7205 275.009 89.4781C275.081 89.2358 275.104 88.9814 275.076 88.7301L275.09 86.6214Z" fill="#118FFF"/>
<path d="M287.135 101.478L286.576 98.3555H283.028L282.464 101.478H279.312L283.252 81.7827H286.346L290.286 101.478H287.135ZM283.563 95.2619H286.04L284.802 88.1948L283.563 95.2619Z" fill="#118FFF"/>
<path d="M291.807 101.478V81.7827H294.905V101.478H291.807Z" fill="#118FFF"/>
<path d="M306.668 81.7827V101.478H304.865L300.136 91.4892V101.478H297.042V81.7827H298.845L303.574 91.7426V81.7827H306.668Z" fill="#118FFF"/>
<path d="M308.805 101.478V81.7827H311.899V101.478H308.805Z" fill="#118FFF"/>
<path d="M323.661 81.7827V101.478H321.859L317.134 91.4892V101.478H314.036V81.7827H315.839L320.568 91.7426V81.7827H323.661Z" fill="#118FFF"/>
<path d="M330.221 101.702C329.026 101.746 327.859 101.335 326.956 100.55C326.481 100.065 326.111 99.4869 325.869 98.8529C325.626 98.2188 325.516 97.5417 325.545 96.8635V86.3967C325.516 85.7184 325.626 85.0414 325.869 84.4073C326.111 83.7733 326.481 83.1956 326.956 82.7101C327.858 81.9243 329.026 81.5107 330.221 81.553C331.418 81.4991 332.588 81.9143 333.482 82.7101C333.961 83.1925 334.334 83.7697 334.576 84.4046C334.818 85.0395 334.924 85.7181 334.888 86.3967V88.142H331.795V86.3967C331.855 85.8947 331.714 85.3893 331.403 84.9909C331.065 84.7338 330.644 84.6127 330.221 84.6514C329.807 84.6135 329.393 84.7349 329.064 84.9909C328.903 85.1848 328.783 85.4092 328.71 85.6508C328.638 85.8924 328.615 86.1461 328.644 86.3967V96.8635C328.615 97.1141 328.638 97.3678 328.71 97.6094C328.783 97.851 328.903 98.0754 329.064 98.2692C329.394 98.5231 329.807 98.6442 330.221 98.6087C330.644 98.6452 331.064 98.5243 331.403 98.2692C331.714 97.8709 331.855 97.3655 331.795 96.8635V93.1769H330.245V90.0833H334.888V96.8635C334.924 97.5421 334.818 98.2206 334.576 98.8556C334.334 99.4905 333.961 100.068 333.482 100.55C332.587 101.345 331.417 101.758 330.221 101.702Z" fill="#118FFF"/>
<path d="M334.888 108.793H147.467V123.941H334.888V108.793Z" fill="#191919"/>
<path d="M154.61 111.82V113.255H153.176V120.905H151.741V113.255H150.283V111.82H154.61Z" fill="white"/>
<path d="M160.563 120.91H159.105L158.368 117.261H157.718V120.91H156.284V111.825H158.44C158.994 111.803 159.534 111.999 159.946 112.37C160.168 112.589 160.341 112.853 160.453 113.144C160.566 113.435 160.614 113.746 160.597 114.058V115.014C160.616 115.328 160.568 115.642 160.456 115.936C160.343 116.229 160.17 116.495 159.946 116.716C159.882 116.78 159.812 116.836 159.736 116.884L160.563 120.91ZM159.172 114.053C159.194 113.82 159.123 113.589 158.976 113.408C158.825 113.289 158.635 113.233 158.445 113.25H157.718V115.837H158.445C158.635 115.853 158.825 115.797 158.976 115.679C159.05 115.589 159.106 115.485 159.139 115.373C159.173 115.262 159.184 115.144 159.172 115.028V114.053Z" fill="white"/>
<path d="M165.77 120.91L165.507 119.476H163.872L163.614 120.91H162.179L163.996 111.825H165.431L167.248 120.91H165.77ZM164.121 118.041H165.263L164.69 114.78L164.121 118.041Z" fill="white"/>
<path d="M168.964 120.91V111.825H170.399V120.91H168.964Z" fill="white"/>
<path d="M176.859 111.82V120.905H176.027L173.846 116.296V120.905H172.412V111.82H173.244L175.424 116.42V111.82H176.859Z" fill="white"/>
<path d="M186.446 111.82L184.676 117.716V120.91H183.242V117.716L181.487 111.82H182.993L183.95 115.081L184.939 111.82H186.446Z" fill="white"/>
<path d="M189.912 121.015C189.355 121.044 188.809 120.854 188.392 120.484C188.17 120.262 187.998 119.995 187.886 119.702C187.774 119.409 187.725 119.095 187.741 118.782V113.953C187.724 113.639 187.773 113.326 187.885 113.032C187.997 112.739 188.17 112.473 188.392 112.25C188.818 111.905 189.349 111.716 189.898 111.716C190.446 111.716 190.978 111.905 191.404 112.25C191.626 112.473 191.798 112.739 191.91 113.032C192.022 113.326 192.071 113.639 192.054 113.953V118.782C192.071 119.095 192.022 119.409 191.91 119.702C191.798 119.995 191.626 120.262 191.404 120.484C190.994 120.846 190.459 121.037 189.912 121.015ZM189.912 113.145C189.72 113.128 189.529 113.185 189.377 113.302C189.303 113.392 189.248 113.496 189.215 113.608C189.182 113.72 189.172 113.837 189.185 113.953V118.782C189.172 118.898 189.183 119.015 189.216 119.126C189.248 119.238 189.303 119.342 189.377 119.432C189.53 119.548 189.721 119.603 189.912 119.585C190.102 119.605 190.293 119.55 190.443 119.432C190.519 119.343 190.575 119.239 190.609 119.128C190.642 119.016 190.653 118.898 190.639 118.782V113.953C190.653 113.837 190.643 113.719 190.61 113.607C190.576 113.495 190.519 113.391 190.443 113.302C190.294 113.182 190.103 113.126 189.912 113.145Z" fill="white"/>
<path d="M196.119 121.015C195.565 121.042 195.023 120.851 194.608 120.484C194.386 120.262 194.214 119.996 194.102 119.702C193.99 119.409 193.941 119.096 193.957 118.782V111.82H195.392V118.782C195.365 119.014 195.43 119.248 195.574 119.433C195.73 119.55 195.924 119.604 196.119 119.586C196.31 119.603 196.501 119.549 196.654 119.433C196.728 119.342 196.782 119.238 196.815 119.127C196.848 119.015 196.858 118.898 196.845 118.782V111.82H198.28V118.782C198.293 119.095 198.243 119.408 198.131 119.701C198.019 119.993 197.848 120.26 197.63 120.484C197.211 120.847 196.671 121.036 196.119 121.015Z" fill="white"/>
<path d="M204.563 120.91H203.104L202.368 117.261H201.718V120.91H200.283V111.825H202.44C202.994 111.803 203.534 111.999 203.946 112.37C204.169 112.588 204.343 112.852 204.455 113.143C204.567 113.434 204.615 113.746 204.596 114.058V115.014C204.616 115.328 204.569 115.642 204.457 115.936C204.344 116.23 204.17 116.496 203.946 116.716C203.882 116.78 203.812 116.836 203.736 116.884L204.563 120.91ZM203.171 114.053C203.193 113.82 203.123 113.589 202.975 113.408C202.825 113.289 202.635 113.233 202.445 113.25H201.718V115.837H202.445C202.635 115.853 202.825 115.797 202.975 115.679C203.05 115.589 203.105 115.485 203.139 115.373C203.173 115.262 203.184 115.144 203.171 115.028V114.053Z" fill="white"/>
<path d="M211.577 121.015C211.025 121.034 210.485 120.845 210.066 120.484C209.848 120.259 209.678 119.992 209.567 119.7C209.455 119.407 209.404 119.095 209.416 118.782V113.953C209.403 113.64 209.454 113.327 209.566 113.034C209.678 112.742 209.848 112.475 210.066 112.25C210.485 111.889 211.024 111.697 211.577 111.715C212.13 111.691 212.67 111.883 213.084 112.25C213.304 112.474 213.475 112.74 213.586 113.033C213.697 113.326 213.746 113.64 213.729 113.953V114.746H212.295V113.943C212.322 113.711 212.257 113.477 212.113 113.293C211.957 113.174 211.763 113.118 211.568 113.135C211.376 113.119 211.185 113.175 211.032 113.293C210.957 113.382 210.901 113.486 210.868 113.598C210.834 113.71 210.823 113.827 210.836 113.943V118.772C210.824 118.888 210.835 119.006 210.869 119.117C210.902 119.229 210.958 119.333 211.032 119.423C211.185 119.539 211.376 119.593 211.568 119.576C211.762 119.594 211.956 119.539 212.113 119.423C212.256 119.238 212.321 119.005 212.295 118.772V117.07H211.577V115.636H213.734V118.768C213.75 119.081 213.701 119.393 213.59 119.687C213.479 119.98 213.308 120.246 213.088 120.47C212.675 120.842 212.133 121.038 211.577 121.015Z" fill="white"/>
<path d="M218.95 120.91L218.692 119.476H217.081L216.818 120.91H215.383L217.2 111.825H218.635L220.452 120.91H218.95ZM217.301 118.041H218.444L217.875 114.78L217.301 118.041Z" fill="white"/>
<path d="M227.328 111.82H228.145V120.905H226.711V116.377L225.554 119.48H224.731L223.574 116.377V120.905H222.14V111.82H222.957L225.143 116.86L227.328 111.82Z" fill="white"/>
<path d="M233.988 113.25H231.65V115.535H233.262V116.97H231.65V119.49H233.988V120.924H230.221V111.839H233.988V113.25Z" fill="white"/>
<path d="M242.901 111.82V113.255H241.467V120.905H240.032V113.255H238.598V111.82H242.901Z" fill="white"/>
<path d="M246.626 121.015C246.074 121.04 245.534 120.85 245.12 120.484C244.898 120.262 244.726 119.995 244.614 119.702C244.502 119.409 244.453 119.095 244.469 118.782V113.953C244.452 113.639 244.502 113.326 244.614 113.032C244.726 112.739 244.898 112.473 245.12 112.25C245.546 111.905 246.077 111.716 246.626 111.716C247.174 111.716 247.706 111.905 248.132 112.25C248.354 112.473 248.526 112.739 248.638 113.032C248.75 113.326 248.8 113.639 248.782 113.953V118.782C248.799 119.095 248.75 119.409 248.638 119.702C248.526 119.995 248.354 120.262 248.132 120.484C247.718 120.85 247.178 121.041 246.626 121.015ZM246.626 113.145C246.435 113.128 246.246 113.184 246.095 113.302C246.02 113.392 245.964 113.496 245.931 113.607C245.897 113.719 245.886 113.837 245.899 113.953V118.782C245.887 118.898 245.898 119.015 245.932 119.127C245.965 119.239 246.021 119.342 246.095 119.432C246.246 119.549 246.436 119.604 246.626 119.585C246.72 119.596 246.816 119.588 246.907 119.562C246.998 119.536 247.083 119.492 247.157 119.432C247.233 119.344 247.29 119.24 247.324 119.128C247.358 119.016 247.368 118.898 247.353 118.782V113.953C247.368 113.837 247.358 113.719 247.325 113.606C247.291 113.494 247.234 113.391 247.157 113.302C247.083 113.242 246.998 113.197 246.907 113.17C246.816 113.143 246.72 113.134 246.626 113.145Z" fill="white"/>
<path d="M257.724 111.82V113.255H256.289V120.905H254.855V113.255H253.421V111.82H257.724Z" fill="white"/>
<path d="M262.305 111.82H263.739V120.905H262.305V116.96H260.846V120.905H259.412V111.82H260.846V115.536H262.305V111.82Z" fill="white"/>
<path d="M269.577 113.25H267.239V115.535H268.851V116.97H267.239V119.49H269.577V120.924H265.809V111.839H269.577V113.25Z" fill="white"/>
<path d="M278.94 111.82V120.905H278.108L275.927 116.296V120.905H274.493V111.82H275.325L277.505 116.42V111.82H278.94Z" fill="white"/>
<path d="M284.73 113.25H282.392V115.535H284.022V116.97H282.411V119.49H284.749V120.924H280.962V111.839H284.73V113.25Z" fill="white"/>
<path d="M291.381 120.91H289.861L288.847 118.223L287.848 120.91H286.327L288.015 116.382L286.327 111.82H287.848L288.847 114.508L289.846 111.82H291.381L289.679 116.382L291.381 120.91Z" fill="white"/>
<path d="M297.148 111.82V113.255H295.713V120.905H294.279V113.255H292.844V111.82H297.148Z" fill="white"/>
<path d="M301.872 120.91V111.825H303.306V119.476H305.644V120.91H301.872Z" fill="white"/>
<path d="M311.134 113.25H308.795V115.535H310.407V116.97H308.795V119.49H311.134V120.924H307.366V111.839H311.134V113.25Z" fill="white"/>
<path d="M315.212 117.965L316.288 111.82H317.723L315.906 120.905H314.471L312.654 111.82H314.089L315.212 117.965Z" fill="white"/>
<path d="M323.231 113.25H320.893V115.535H322.504V116.97H320.893V119.49H323.231V120.924H319.463V111.839H323.231V113.25Z" fill="white"/>
<path d="M325.143 120.91V111.825H326.578V119.476H328.916V120.91H325.143Z" fill="white"/>
<path d="M332.082 120.183C332.083 120.279 332.065 120.375 332.028 120.464C331.991 120.553 331.936 120.633 331.866 120.7C331.8 120.768 331.721 120.822 331.633 120.858C331.545 120.895 331.45 120.912 331.355 120.91C331.259 120.913 331.165 120.895 331.077 120.859C330.989 120.823 330.909 120.768 330.843 120.7C330.775 120.632 330.721 120.552 330.684 120.464C330.647 120.376 330.628 120.281 330.628 120.186C330.628 120.09 330.647 119.995 330.684 119.907C330.721 119.819 330.775 119.739 330.843 119.672C330.909 119.602 330.988 119.547 331.076 119.51C331.164 119.473 331.259 119.455 331.355 119.456C331.45 119.455 331.545 119.474 331.633 119.511C331.721 119.548 331.8 119.602 331.866 119.672C331.935 119.738 331.99 119.817 332.027 119.905C332.064 119.993 332.082 120.088 332.082 120.183ZM330.819 118.82L330.637 116.382V111.82H332.072V116.382L331.881 118.82H330.819Z" fill="white"/>
</svg>
